<?xml version="1.0" encoding="UTF-8" standalone="no"?><svg xmlns="http://www.w3.org/2000/svg" xmlns:xlink="http://www.w3.org/1999/xlink" contentStyleType="text/css" height="419px" preserveAspectRatio="none" style="width:458px;height:419px;background:#FFFFFF;" version="1.1" viewBox="0 0 458 419" width="458px" zoomAndPan="magnify"><defs/><g><rect fill="none" height="27.6094" id="_title" style="stroke:none;stroke-width:1.0;" width="157" x="151.75" y="10"/><text fill="#000000" font-family="sans-serif" font-size="14" font-weight="bold" lengthAdjust="spacing" textLength="147" x="156.75" y="29.5332">Cadastro de Clientes</text><rect fill="none" height="125.2422" style="stroke:#000000;stroke-width:1.5;" width="441.5" x="10" y="197.9219"/><line style="stroke:#181818;stroke-width:0.5;stroke-dasharray:5.0,5.0;" x1="64" x2="64" y1="107.2188" y2="340.1641"/><line style="stroke:#181818;stroke-width:0.5;stroke-dasharray:5.0,5.0;" x1="260.5" x2="260.5" y1="107.2188" y2="340.1641"/><line style="stroke:#181818;stroke-width:0.5;stroke-dasharray:5.0,5.0;" x1="423.5" x2="423.5" y1="107.2188" y2="340.1641"/><rect fill="#E2E2F0" height="31.6094" rx="2.5" ry="2.5" style="stroke:#181818;stroke-width:0.5;" width="89" x="20" y="74.6094"/><text fill="#000000" font-family="sans-serif" font-size="14" lengthAdjust="spacing" textLength="75" x="27" y="96.1426">Funcionario</text><rect fill="#E2E2F0" height="31.6094" rx="2.5" ry="2.5" style="stroke:#181818;stroke-width:0.5;" width="89" x="20" y="339.1641"/><text fill="#000000" font-family="sans-serif" font-size="14" lengthAdjust="spacing" textLength="75" x="27" y="360.6973">Funcionario</text><rect fill="#E2E2F0" height="31.6094" rx="2.5" ry="2.5" style="stroke:#181818;stroke-width:0.5;" width="64" x="228.5" y="74.6094"/><text fill="#000000" font-family="sans-serif" font-size="14" lengthAdjust="spacing" textLength="50" x="235.5" y="96.1426">Sistema</text><rect fill="#E2E2F0" height="31.6094" rx="2.5" ry="2.5" style="stroke:#181818;stroke-width:0.5;" width="64" x="228.5" y="339.1641"/><text fill="#000000" font-family="sans-serif" font-size="14" lengthAdjust="spacing" textLength="50" x="235.5" y="360.6973">Sistema</text><text fill="#000000" font-family="sans-serif" font-size="14" lengthAdjust="spacing" textLength="19" x="411" y="104.1426">BD</text><path d="M405.5,53.6094 C405.5,43.6094 423.5,43.6094 423.5,43.6094 C423.5,43.6094 441.5,43.6094 441.5,53.6094 L441.5,79.6094 C441.5,89.6094 423.5,89.6094 423.5,89.6094 C423.5,89.6094 405.5,89.6094 405.5,79.6094 L405.5,53.6094 " fill="#E2E2F0" style="stroke:#181818;stroke-width:1.5;"/><path d="M405.5,53.6094 C405.5,63.6094 423.5,63.6094 423.5,63.6094 C423.5,63.6094 441.5,63.6094 441.5,53.6094 " fill="none" style="stroke:#181818;stroke-width:1.5;"/><text fill="#000000" font-family="sans-serif" font-size="14" lengthAdjust="spacing" textLength="19" x="411" y="353.6973">BD</text><path d="M405.5,366.7734 C405.5,356.7734 423.5,356.7734 423.5,356.7734 C423.5,356.7734 441.5,356.7734 441.5,366.7734 L441.5,392.7734 C441.5,402.7734 423.5,402.7734 423.5,402.7734 C423.5,402.7734 405.5,402.7734 405.5,392.7734 L405.5,366.7734 " fill="#E2E2F0" style="stroke:#181818;stroke-width:1.5;"/><path d="M405.5,366.7734 C405.5,376.7734 423.5,376.7734 423.5,376.7734 C423.5,376.7734 441.5,376.7734 441.5,366.7734 " fill="none" style="stroke:#181818;stroke-width:1.5;"/><polygon fill="#181818" points="248.5,135.5703,258.5,139.5703,248.5,143.5703,252.5,139.5703" style="stroke:#181818;stroke-width:1.0;"/><line style="stroke:#181818;stroke-width:1.0;" x1="64.5" x2="254.5" y1="139.5703" y2="139.5703"/><text fill="#000000" font-family="sans-serif" font-size="13" lengthAdjust="spacing" textLength="152" x="71.5" y="134.7139">Insere os dados do cliente</text><line style="stroke:#181818;stroke-width:1.0;" x1="260.5" x2="302.5" y1="169.9219" y2="169.9219"/><line style="stroke:#181818;stroke-width:1.0;" x1="302.5" x2="302.5" y1="169.9219" y2="182.9219"/><line style="stroke:#181818;stroke-width:1.0;" x1="261.5" x2="302.5" y1="182.9219" y2="182.9219"/><polygon fill="#181818" points="271.5,178.9219,261.5,182.9219,271.5,186.9219,267.5,182.9219" style="stroke:#181818;stroke-width:1.0;"/><text fill="#000000" font-family="sans-serif" font-size="13" lengthAdjust="spacing" textLength="149" x="267.5" y="165.0654">Valida os dados inseridos</text><path d="M10,197.9219 L71,197.9219 L71,206.2734 L61,216.2734 L10,216.2734 L10,197.9219 " fill="#EEEEEE" style="stroke:#000000;stroke-width:1.5;"/><rect fill="none" height="125.2422" style="stroke:#000000;stroke-width:1.5;" width="441.5" x="10" y="197.9219"/><text fill="#000000" font-family="sans-serif" font-size="13" font-weight="bold" lengthAdjust="spacing" textLength="16" x="25" y="212.417">alt</text><text fill="#000000" font-family="sans-serif" font-size="11" font-weight="bold" lengthAdjust="spacing" textLength="94" x="86" y="211.3408">[Dados Invalidos]</text><polygon fill="#181818" points="75.5,234.625,65.5,238.625,75.5,242.625,71.5,238.625" style="stroke:#181818;stroke-width:1.0;"/><line style="stroke:#181818;stroke-width:1.0;" x1="69.5" x2="259.5" y1="238.625" y2="238.625"/><text fill="#000000" font-family="sans-serif" font-size="13" lengthAdjust="spacing" textLength="145" x="81.5" y="233.7686">Exibe mensagem de erro</text><line style="stroke:#000000;stroke-width:1.0;stroke-dasharray:2.0,2.0;" x1="10" x2="451.5" y1="247.625" y2="247.625"/><text fill="#000000" font-family="sans-serif" font-size="11" font-weight="bold" lengthAdjust="spacing" textLength="86" x="15" y="259.0439">[Dados Validos]</text><polygon fill="#181818" points="411.5,280.8125,421.5,284.8125,411.5,288.8125,415.5,284.8125" style="stroke:#181818;stroke-width:1.0;"/><line style="stroke:#181818;stroke-width:1.0;" x1="260.5" x2="417.5" y1="284.8125" y2="284.8125"/><text fill="#000000" font-family="sans-serif" font-size="13" lengthAdjust="spacing" textLength="88" x="267.5" y="279.9561">Salva os dados</text><polygon fill="#181818" points="75.5,311.1641,65.5,315.1641,75.5,319.1641,71.5,315.1641" style="stroke:#181818;stroke-width:1.0;"/><line style="stroke:#181818;stroke-width:1.0;" x1="69.5" x2="259.5" y1="315.1641" y2="315.1641"/><text fill="#000000" font-family="sans-serif" font-size="13" lengthAdjust="spacing" textLength="172" x="81.5" y="310.3076">Exibe mensagem de sucesso</text><!--MD5=[d5cacc529e9e32519d10131d24ea8500]
@startuml Cadastro de Clientes

title Cadastro de Clientes
participant Funcionario
participant Sistema
database BD

Funcionario -> Sistema: Insere os dados do cliente
Sistema -> Sistema: Valida os dados inseridos
alt Dados Invalidos
    Sistema -> Funcionario: Exibe mensagem de erro
else Dados Validos
    Sistema -> BD: Salva os dados
    Sistema -> Funcionario: Exibe mensagem de sucesso
end

@enduml

PlantUML version 1.2022.7(Mon Aug 22 14:01:30 BRT 2022)
(GPL source distribution)
Java Runtime: OpenJDK Runtime Environment
JVM: OpenJDK 64-Bit Server VM
Default Encoding: Cp1252
Language: pt
Country: BR
--></g></svg>