<?xml version="1.0" encoding="UTF-8" standalone="no"?><svg xmlns="http://www.w3.org/2000/svg" xmlns:xlink="http://www.w3.org/1999/xlink" contentStyleType="text/css" height="460px" preserveAspectRatio="none" style="width:317px;height:460px;background:#FFFFFF;" version="1.1" viewBox="0 0 317 460" width="317px" zoomAndPan="magnify"><defs/><g><rect fill="none" height="27.6094" id="_title" style="stroke:none;stroke-width:1.0;" width="162" x="76" y="15"/><text fill="#000000" font-family="sans-serif" font-size="14" font-weight="bold" lengthAdjust="spacing" textLength="152" x="81" y="34.5332">Criar Conta Instagram</text><ellipse cx="145" cy="58.6094" fill="#222222" rx="10" ry="10" style="stroke:#222222;stroke-width:1.0;"/><rect fill="#555555" height="6" rx="2.5" ry="2.5" style="stroke:#555555;stroke-width:1.0;" width="268" x="11" y="143.7031"/><rect fill="#F1F1F1" height="35.0938" rx="12.5" ry="12.5" style="stroke:#181818;stroke-width:0.5;" width="120" x="23" y="169.7031"/><text fill="#000000" font-family="sans-serif" font-size="12" lengthAdjust="spacing" textLength="100" x="33" y="192.1602">Validar Username</text><rect fill="#F1F1F1" height="35.0938" rx="12.5" ry="12.5" style="stroke:#181818;stroke-width:0.5;" width="96" x="171" y="169.7031"/><text fill="#000000" font-family="sans-serif" font-size="12" lengthAdjust="spacing" textLength="76" x="181" y="192.1602">Validar dados</text><rect fill="#555555" height="6" rx="2.5" ry="2.5" style="stroke:#555555;stroke-width:1.0;" width="268" x="11" y="224.7969"/><rect fill="#F1F1F1" height="35.0938" rx="12.5" ry="12.5" style="stroke:#181818;stroke-width:0.5;" width="138" x="76" y="88.6094"/><text fill="#000000" font-family="sans-serif" font-size="12" lengthAdjust="spacing" textLength="115" x="89" y="111.0664">Usuario digita dados</text><polygon fill="#F1F1F1" points="107,250.7969,183,250.7969,195,262.7969,183,274.7969,107,274.7969,95,262.7969,107,250.7969" style="stroke:#181818;stroke-width:0.5;"/><text fill="#000000" font-family="sans-serif" font-size="11" lengthAdjust="spacing" textLength="76" x="107" y="267.2979">Dados Invalidos</text><text fill="#000000" font-family="sans-serif" font-size="11" lengthAdjust="spacing" textLength="16" x="195" y="260.3799">sim</text><rect fill="#F1F1F1" height="35.0938" rx="12.5" ry="12.5" style="stroke:#181818;stroke-width:0.5;" width="176" x="57" y="317.0498"/><text fill="#000000" font-family="sans-serif" font-size="12" lengthAdjust="spacing" textLength="156" x="67" y="339.5068">Salva Informações no banco</text><rect fill="#F1F1F1" height="35.0938" rx="12.5" ry="12.5" style="stroke:#181818;stroke-width:0.5;" width="148" x="71" y="372.1436"/><text fill="#000000" font-family="sans-serif" font-size="12" lengthAdjust="spacing" textLength="128" x="81" y="394.6006">Redireciona Tela Login</text><ellipse cx="145" cy="438.2373" fill="none" rx="11" ry="11" style="stroke:#222222;stroke-width:1.0;"/><ellipse cx="145" cy="438.2373" fill="#222222" rx="6" ry="6" style="stroke:#111111;stroke-width:1.0;"/><line style="stroke:#181818;stroke-width:1.0;" x1="83" x2="83" y1="149.7031" y2="169.7031"/><polygon fill="#181818" points="79,159.7031,83,169.7031,87,159.7031,83,163.7031" style="stroke:#181818;stroke-width:1.0;"/><line style="stroke:#181818;stroke-width:1.0;" x1="219" x2="219" y1="149.7031" y2="169.7031"/><polygon fill="#181818" points="215,159.7031,219,169.7031,223,159.7031,219,163.7031" style="stroke:#181818;stroke-width:1.0;"/><line style="stroke:#181818;stroke-width:1.0;" x1="83" x2="83" y1="204.7969" y2="224.7969"/><polygon fill="#181818" points="79,214.7969,83,224.7969,87,214.7969,83,218.7969" style="stroke:#181818;stroke-width:1.0;"/><line style="stroke:#181818;stroke-width:1.0;" x1="219" x2="219" y1="204.7969" y2="224.7969"/><polygon fill="#181818" points="215,214.7969,219,224.7969,223,214.7969,219,218.7969" style="stroke:#181818;stroke-width:1.0;"/><line style="stroke:#181818;stroke-width:1.0;" x1="145" x2="145" y1="123.7031" y2="143.7031"/><polygon fill="#181818" points="141,133.7031,145,143.7031,149,133.7031,145,137.7031" style="stroke:#181818;stroke-width:1.0;"/><line style="stroke:#181818;stroke-width:1.0;" x1="195" x2="291" y1="262.7969" y2="262.7969"/><polygon fill="#181818" points="287,194.4766,291,184.4766,295,194.4766,291,190.4766" style="stroke:#181818;stroke-width:1.0;"/><line style="stroke:#181818;stroke-width:1.0;" x1="291" x2="291" y1="106.1563" y2="262.7969"/><line style="stroke:#181818;stroke-width:1.0;" x1="291" x2="214" y1="106.1563" y2="106.1563"/><polygon fill="#181818" points="224,102.1563,214,106.1563,224,110.1563,220,106.1563" style="stroke:#181818;stroke-width:1.0;"/><line style="stroke:#181818;stroke-width:1.0;" x1="145" x2="145" y1="230.7969" y2="250.7969"/><polygon fill="#181818" points="141,240.7969,145,250.7969,149,240.7969,145,244.7969" style="stroke:#181818;stroke-width:1.0;"/><line style="stroke:#181818;stroke-width:1.0;" x1="145" x2="145" y1="68.6094" y2="88.6094"/><polygon fill="#181818" points="141,78.6094,145,88.6094,149,78.6094,145,82.6094" style="stroke:#181818;stroke-width:1.0;"/><line style="stroke:#181818;stroke-width:1.0;" x1="145" x2="145" y1="274.7969" y2="317.0498"/><polygon fill="#181818" points="141,307.0498,145,317.0498,149,307.0498,145,311.0498" style="stroke:#181818;stroke-width:1.0;"/><text fill="#000000" font-family="sans-serif" font-size="11" lengthAdjust="spacing" textLength="19" x="149" y="297.1328">Não</text><line style="stroke:#181818;stroke-width:1.0;" x1="145" x2="145" y1="352.1436" y2="372.1436"/><polygon fill="#181818" points="141,362.1436,145,372.1436,149,362.1436,145,366.1436" style="stroke:#181818;stroke-width:1.0;"/><line style="stroke:#181818;stroke-width:1.0;" x1="145" x2="145" y1="407.2373" y2="427.2373"/><polygon fill="#181818" points="141,417.2373,145,427.2373,149,417.2373,145,421.2373" style="stroke:#181818;stroke-width:1.0;"/><!--MD5=[2544eda91c96a59b8b809eec32dab5fe]
@startuml 01 - CriarContaInstagram

title Criar Conta Instagram

start

repeat : Usuario digita dados;
fork
:Validar Username;
fork again
:Validar dados;
end fork
repeat while (Dados Invalidos) is (sim)
-> Não;
:Salva Informações no banco;
:Redireciona Tela Login;
stop

@enduml

PlantUML version 1.2022.7(Mon Aug 22 14:01:30 BRT 2022)
(GPL source distribution)
Java Runtime: OpenJDK Runtime Environment
JVM: OpenJDK 64-Bit Server VM
Default Encoding: Cp1252
Language: pt
Country: BR
--></g></svg>