<?xml version="1.0" encoding="UTF-8" standalone="no"?><svg xmlns="http://www.w3.org/2000/svg" xmlns:xlink="http://www.w3.org/1999/xlink" contentStyleType="text/css" height="350px" preserveAspectRatio="none" style="width:219px;height:350px;background:#FFFFFF;" version="1.1" viewBox="0 0 219 350" width="219px" zoomAndPan="magnify"><defs/><g><rect fill="none" height="27.6094" id="_title" style="stroke:none;stroke-width:1.0;" width="186" x="15" y="15"/><text fill="#000000" font-family="sans-serif" font-size="14" font-weight="bold" lengthAdjust="spacing" textLength="176" x="20" y="34.5332">Btn Curtir Post Instagram</text><ellipse cx="109.75" cy="58.6094" fill="#222222" rx="10" ry="10" style="stroke:#222222;stroke-width:1.0;"/><rect fill="#F1F1F1" height="35.0938" rx="12.5" ry="12.5" style="stroke:#181818;stroke-width:0.5;" width="160" x="29.75" y="88.6094"/><text fill="#000000" font-family="sans-serif" font-size="12" lengthAdjust="spacing" textLength="140" x="39.75" y="111.0664">Verifica se já tinha curtido</text><polygon fill="#F1F1F1" points="88.25,143.7031,131.25,143.7031,143.25,155.7031,131.25,167.7031,88.25,167.7031,76.25,155.7031,88.25,143.7031" style="stroke:#181818;stroke-width:0.5;"/><text fill="#000000" font-family="sans-serif" font-size="11" lengthAdjust="spacing" textLength="43" x="88.25" y="160.2041">Curtido ?</text><text fill="#000000" font-family="sans-serif" font-size="11" lengthAdjust="spacing" textLength="16" x="60.25" y="153.2861">sim</text><text fill="#000000" font-family="sans-serif" font-size="11" lengthAdjust="spacing" textLength="18" x="143.25" y="153.2861">não</text><rect fill="#F1F1F1" height="35.0938" rx="12.5" ry="12.5" style="stroke:#181818;stroke-width:0.5;" width="74" x="29.25" y="177.7031"/><text fill="#000000" font-family="sans-serif" font-size="12" lengthAdjust="spacing" textLength="54" x="39.25" y="200.1602">Des-curtir</text><rect fill="#F1F1F1" height="35.0938" rx="12.5" ry="12.5" style="stroke:#181818;stroke-width:0.5;" width="50" x="128.25" y="177.7031"/><text fill="#000000" font-family="sans-serif" font-size="12" lengthAdjust="spacing" textLength="30" x="138.25" y="200.1602">Curtir</text><polygon fill="#F1F1F1" points="109.75,218.7969,121.75,230.7969,109.75,242.7969,97.75,230.7969,109.75,218.7969" style="stroke:#181818;stroke-width:0.5;"/><rect fill="#F1F1F1" height="35.0938" rx="12.5" ry="12.5" style="stroke:#181818;stroke-width:0.5;" width="105" x="57.25" y="262.7969"/><text fill="#000000" font-family="sans-serif" font-size="12" lengthAdjust="spacing" textLength="85" x="67.25" y="285.2539">Salva no Banco</text><ellipse cx="109.75" cy="328.8906" fill="none" rx="11" ry="11" style="stroke:#222222;stroke-width:1.0;"/><ellipse cx="109.75" cy="328.8906" fill="#222222" rx="6" ry="6" style="stroke:#111111;stroke-width:1.0;"/><line style="stroke:#181818;stroke-width:1.0;" x1="109.75" x2="109.75" y1="68.6094" y2="88.6094"/><polygon fill="#181818" points="105.75,78.6094,109.75,88.6094,113.75,78.6094,109.75,82.6094" style="stroke:#181818;stroke-width:1.0;"/><line style="stroke:#181818;stroke-width:1.0;" x1="76.25" x2="66.25" y1="155.7031" y2="155.7031"/><line style="stroke:#181818;stroke-width:1.0;" x1="66.25" x2="66.25" y1="155.7031" y2="177.7031"/><polygon fill="#181818" points="62.25,167.7031,66.25,177.7031,70.25,167.7031,66.25,171.7031" style="stroke:#181818;stroke-width:1.0;"/><line style="stroke:#181818;stroke-width:1.0;" x1="143.25" x2="153.25" y1="155.7031" y2="155.7031"/><line style="stroke:#181818;stroke-width:1.0;" x1="153.25" x2="153.25" y1="155.7031" y2="177.7031"/><polygon fill="#181818" points="149.25,167.7031,153.25,177.7031,157.25,167.7031,153.25,171.7031" style="stroke:#181818;stroke-width:1.0;"/><line style="stroke:#181818;stroke-width:1.0;" x1="66.25" x2="66.25" y1="212.7969" y2="230.7969"/><line style="stroke:#181818;stroke-width:1.0;" x1="66.25" x2="97.75" y1="230.7969" y2="230.7969"/><polygon fill="#181818" points="87.75,226.7969,97.75,230.7969,87.75,234.7969,91.75,230.7969" style="stroke:#181818;stroke-width:1.0;"/><line style="stroke:#181818;stroke-width:1.0;" x1="153.25" x2="153.25" y1="212.7969" y2="230.7969"/><line style="stroke:#181818;stroke-width:1.0;" x1="153.25" x2="121.75" y1="230.7969" y2="230.7969"/><polygon fill="#181818" points="131.75,226.7969,121.75,230.7969,131.75,234.7969,127.75,230.7969" style="stroke:#181818;stroke-width:1.0;"/><line style="stroke:#181818;stroke-width:1.0;" x1="109.75" x2="109.75" y1="123.7031" y2="143.7031"/><polygon fill="#181818" points="105.75,133.7031,109.75,143.7031,113.75,133.7031,109.75,137.7031" style="stroke:#181818;stroke-width:1.0;"/><line style="stroke:#181818;stroke-width:1.0;" x1="109.75" x2="109.75" y1="242.7969" y2="262.7969"/><polygon fill="#181818" points="105.75,252.7969,109.75,262.7969,113.75,252.7969,109.75,256.7969" style="stroke:#181818;stroke-width:1.0;"/><line style="stroke:#181818;stroke-width:1.0;" x1="109.75" x2="109.75" y1="297.8906" y2="317.8906"/><polygon fill="#181818" points="105.75,307.8906,109.75,317.8906,113.75,307.8906,109.75,311.8906" style="stroke:#181818;stroke-width:1.0;"/><!--MD5=[dbcfec75c5fc1ee24ad8f3814cdeeed4]
@startuml 02 - BtnCurtirPostInstagram

title Btn Curtir Post Instagram

start

:Verifica se já tinha curtido;
if (Curtido ?) then (sim)
    :Des-curtir;
else (não)
    :Curtir;
endif
:Salva no Banco;
stop

@enduml

PlantUML version 1.2022.7(Mon Aug 22 14:01:30 BRT 2022)
(GPL source distribution)
Java Runtime: OpenJDK Runtime Environment
JVM: OpenJDK 64-Bit Server VM
Default Encoding: Cp1252
Language: pt
Country: BR
--></g></svg>