<?xml version="1.0" encoding="UTF-8" standalone="no"?><svg xmlns="http://www.w3.org/2000/svg" xmlns:xlink="http://www.w3.org/1999/xlink" contentStyleType="text/css" height="431px" preserveAspectRatio="none" style="width:341px;height:431px;background:#FFFFFF;" version="1.1" viewBox="0 0 341 431" width="341px" zoomAndPan="magnify"><defs/><g><rect fill="none" height="27.6094" id="_title" style="stroke:none;stroke-width:1.0;" width="139" x="99.5" y="15"/><text fill="#000000" font-family="sans-serif" font-size="14" font-weight="bold" lengthAdjust="spacing" textLength="129" x="104.5" y="34.5332">Logar no Windows</text><ellipse cx="158.75" cy="58.6094" fill="#222222" rx="10" ry="10" style="stroke:#222222;stroke-width:1.0;"/><rect fill="#F1F1F1" height="35.0938" rx="12.5" ry="12.5" style="stroke:#181818;stroke-width:0.5;" width="135" x="91.25" y="88.6094"/><text fill="#000000" font-family="sans-serif" font-size="12" lengthAdjust="spacing" textLength="115" x="101.25" y="111.0664">Usuário digita senha</text><rect fill="#F1F1F1" height="35.0938" rx="12.5" ry="12.5" style="stroke:#181818;stroke-width:0.5;" width="92" x="112.75" y="143.7031"/><text fill="#000000" font-family="sans-serif" font-size="12" lengthAdjust="spacing" textLength="72" x="122.75" y="166.1602">Valida senha</text><polygon fill="#F1F1F1" points="119.25,198.7969,198.25,198.7969,210.25,210.7969,198.25,222.7969,119.25,222.7969,107.25,210.7969,119.25,198.7969" style="stroke:#181818;stroke-width:0.5;"/><text fill="#000000" font-family="sans-serif" font-size="11" lengthAdjust="spacing" textLength="79" x="119.25" y="215.2979">Senha Correta ?</text><text fill="#000000" font-family="sans-serif" font-size="11" lengthAdjust="spacing" textLength="16" x="91.25" y="208.3799">sim</text><text fill="#000000" font-family="sans-serif" font-size="11" lengthAdjust="spacing" textLength="18" x="210.25" y="208.3799">não</text><rect fill="#F1F1F1" height="35.0938" rx="12.5" ry="12.5" style="stroke:#181818;stroke-width:0.5;" width="113" x="17.5" y="232.7969"/><text fill="#000000" font-family="sans-serif" font-size="12" lengthAdjust="spacing" textLength="93" x="27.5" y="255.2539">Carrega sistema</text><rect fill="#F1F1F1" height="35.0938" rx="12.5" ry="12.5" style="stroke:#181818;stroke-width:0.5;" width="126" x="11" y="287.8906"/><text fill="#000000" font-family="sans-serif" font-size="12" lengthAdjust="spacing" textLength="106" x="21" y="310.3477">Carrega Aplicativos</text><rect fill="#F1F1F1" height="35.0938" rx="12.5" ry="12.5" style="stroke:#181818;stroke-width:0.5;" width="125" x="11.5" y="342.9844"/><text fill="#000000" font-family="sans-serif" font-size="12" lengthAdjust="spacing" textLength="105" x="21.5" y="365.4414">Apresenta Desktop</text><rect fill="#F1F1F1" height="35.0938" rx="12.5" ry="12.5" style="stroke:#181818;stroke-width:0.5;" width="173" x="157" y="232.7969"/><text fill="#000000" font-family="sans-serif" font-size="12" lengthAdjust="spacing" textLength="153" x="167" y="255.2539">Retorna mensagem de erro</text><ellipse cx="243.5" cy="297.8906" fill="none" rx="10" ry="10" style="stroke:#222222;stroke-width:1.5;"/><line style="stroke:#222222;stroke-width:2.5;" x1="237.3128" x2="249.6872" y1="291.7034" y2="304.0778"/><line style="stroke:#222222;stroke-width:2.5;" x1="249.6872" x2="237.3128" y1="291.7034" y2="304.0778"/><ellipse cx="158.75" cy="409.0781" fill="none" rx="11" ry="11" style="stroke:#222222;stroke-width:1.0;"/><ellipse cx="158.75" cy="409.0781" fill="#222222" rx="6" ry="6" style="stroke:#111111;stroke-width:1.0;"/><line style="stroke:#181818;stroke-width:1.0;" x1="158.75" x2="158.75" y1="68.6094" y2="88.6094"/><polygon fill="#181818" points="154.75,78.6094,158.75,88.6094,162.75,78.6094,158.75,82.6094" style="stroke:#181818;stroke-width:1.0;"/><line style="stroke:#181818;stroke-width:1.0;" x1="158.75" x2="158.75" y1="123.7031" y2="143.7031"/><polygon fill="#181818" points="154.75,133.7031,158.75,143.7031,162.75,133.7031,158.75,137.7031" style="stroke:#181818;stroke-width:1.0;"/><line style="stroke:#181818;stroke-width:1.0;" x1="74" x2="74" y1="267.8906" y2="287.8906"/><polygon fill="#181818" points="70,277.8906,74,287.8906,78,277.8906,74,281.8906" style="stroke:#181818;stroke-width:1.0;"/><line style="stroke:#181818;stroke-width:1.0;" x1="74" x2="74" y1="322.9844" y2="342.9844"/><polygon fill="#181818" points="70,332.9844,74,342.9844,78,332.9844,74,336.9844" style="stroke:#181818;stroke-width:1.0;"/><line style="stroke:#181818;stroke-width:1.0;" x1="243.5" x2="243.5" y1="267.8906" y2="287.8906"/><polygon fill="#181818" points="239.5,277.8906,243.5,287.8906,247.5,277.8906,243.5,281.8906" style="stroke:#181818;stroke-width:1.0;"/><line style="stroke:#181818;stroke-width:1.0;" x1="107.25" x2="74" y1="210.7969" y2="210.7969"/><line style="stroke:#181818;stroke-width:1.0;" x1="74" x2="74" y1="210.7969" y2="232.7969"/><polygon fill="#181818" points="70,222.7969,74,232.7969,78,222.7969,74,226.7969" style="stroke:#181818;stroke-width:1.0;"/><line style="stroke:#181818;stroke-width:1.0;" x1="210.25" x2="243.5" y1="210.7969" y2="210.7969"/><line style="stroke:#181818;stroke-width:1.0;" x1="243.5" x2="243.5" y1="210.7969" y2="232.7969"/><polygon fill="#181818" points="239.5,222.7969,243.5,232.7969,247.5,222.7969,243.5,226.7969" style="stroke:#181818;stroke-width:1.0;"/><line style="stroke:#181818;stroke-width:1.0;" x1="74" x2="74" y1="378.0781" y2="383.0781"/><line style="stroke:#181818;stroke-width:1.0;" x1="74" x2="158.75" y1="383.0781" y2="383.0781"/><line style="stroke:#181818;stroke-width:1.0;" x1="158.75" x2="158.75" y1="383.0781" y2="398.0781"/><polygon fill="#181818" points="154.75,388.0781,158.75,398.0781,162.75,388.0781,158.75,392.0781" style="stroke:#181818;stroke-width:1.0;"/><line style="stroke:#181818;stroke-width:1.0;" x1="158.75" x2="158.75" y1="178.7969" y2="198.7969"/><polygon fill="#181818" points="154.75,188.7969,158.75,198.7969,162.75,188.7969,158.75,192.7969" style="stroke:#181818;stroke-width:1.0;"/><!--MD5=[dc0bcf6e433796acfaa602f97b6b1433]
@startuml 03 - LogarNoWindows

title Logar no Windows

start

:Usuário digita senha;
:Valida senha;
if (Senha Correta ?) then (sim)
    :Carrega sistema;
    :Carrega Aplicativos;
    :Apresenta Desktop;
else (não)
    :Retorna mensagem de erro;
    end
endif

stop

@enduml

PlantUML version 1.2022.7(Mon Aug 22 14:01:30 BRT 2022)
(GPL source distribution)
Java Runtime: OpenJDK Runtime Environment
JVM: OpenJDK 64-Bit Server VM
Default Encoding: Cp1252
Language: pt
Country: BR
--></g></svg>