<?xml version="1.0" encoding="UTF-8" standalone="no"?><svg xmlns="http://www.w3.org/2000/svg" xmlns:xlink="http://www.w3.org/1999/xlink" contentStyleType="text/css" height="569px" preserveAspectRatio="none" style="width:461px;height:569px;background:#FFFFFF;" version="1.1" viewBox="0 0 461 569" width="461px" zoomAndPan="magnify"><defs/><g><rect fill="none" height="27.6094" id="_title" style="stroke:none;stroke-width:1.0;" width="177" x="140.5" y="15"/><text fill="#000000" font-family="sans-serif" font-size="14" font-weight="bold" lengthAdjust="spacing" textLength="167" x="145.5" y="34.5332">Fazer ligação de celular</text><ellipse cx="245.625" cy="58.6094" fill="#222222" rx="10" ry="10" style="stroke:#222222;stroke-width:1.0;"/><rect fill="#F1F1F1" height="35.0938" rx="12.5" ry="12.5" style="stroke:#181818;stroke-width:0.5;" width="91" x="200.125" y="88.6094"/><text fill="#000000" font-family="sans-serif" font-size="12" lengthAdjust="spacing" textLength="71" x="210.125" y="111.0664">Verifica Sinal</text><polygon fill="#F1F1F1" points="229.625,143.7031,261.625,143.7031,273.625,155.7031,261.625,167.7031,229.625,167.7031,217.625,155.7031,229.625,143.7031" style="stroke:#181818;stroke-width:0.5;"/><text fill="#000000" font-family="sans-serif" font-size="11" lengthAdjust="spacing" textLength="32" x="229.625" y="160.2041">Sinal ?</text><text fill="#000000" font-family="sans-serif" font-size="11" lengthAdjust="spacing" textLength="16" x="201.625" y="153.2861">sim</text><text fill="#000000" font-family="sans-serif" font-size="11" lengthAdjust="spacing" textLength="18" x="273.625" y="153.2861">não</text><rect fill="#F1F1F1" height="35.0938" rx="12.5" ry="12.5" style="stroke:#181818;stroke-width:0.5;" width="111" x="125.875" y="177.7031"/><text fill="#000000" font-family="sans-serif" font-size="12" lengthAdjust="spacing" textLength="91" x="135.875" y="200.1602">Conecta na torre</text><rect fill="#F1F1F1" height="35.0938" rx="12.5" ry="12.5" style="stroke:#181818;stroke-width:0.5;" width="106" x="256.875" y="177.7031"/><text fill="#000000" font-family="sans-serif" font-size="12" lengthAdjust="spacing" textLength="86" x="266.875" y="200.1602">Encerra ligação</text><ellipse cx="309.875" cy="242.7969" fill="none" rx="10" ry="10" style="stroke:#222222;stroke-width:1.5;"/><line style="stroke:#222222;stroke-width:2.5;" x1="303.6878" x2="316.0622" y1="236.6097" y2="248.9841"/><line style="stroke:#222222;stroke-width:2.5;" x1="316.0622" x2="303.6878" y1="236.6097" y2="248.9841"/><rect fill="#F1F1F1" height="35.0938" rx="12.5" ry="12.5" style="stroke:#181818;stroke-width:0.5;" width="163" x="164.125" y="272.7969"/><text fill="#000000" font-family="sans-serif" font-size="12" lengthAdjust="spacing" textLength="143" x="174.125" y="295.2539">Consulta número digitado</text><polygon fill="#F1F1F1" points="203.625,327.8906,287.625,327.8906,299.625,339.8906,287.625,351.8906,203.625,351.8906,191.625,339.8906,203.625,327.8906" style="stroke:#181818;stroke-width:0.5;"/><text fill="#000000" font-family="sans-serif" font-size="11" lengthAdjust="spacing" textLength="84" x="203.625" y="344.3916">Número correto ?</text><text fill="#000000" font-family="sans-serif" font-size="11" lengthAdjust="spacing" textLength="16" x="175.625" y="337.4736">sim</text><text fill="#000000" font-family="sans-serif" font-size="11" lengthAdjust="spacing" textLength="18" x="299.625" y="337.4736">não</text><rect fill="#F1F1F1" height="35.0938" rx="12.5" ry="12.5" style="stroke:#181818;stroke-width:0.5;" width="141" x="61.75" y="361.8906"/><text fill="#000000" font-family="sans-serif" font-size="12" lengthAdjust="spacing" textLength="121" x="71.75" y="384.3477">Verifica se está ligado</text><polygon fill="#F1F1F1" points="111.75,416.9844,152.75,416.9844,164.75,428.9844,152.75,440.9844,111.75,440.9844,99.75,428.9844,111.75,416.9844" style="stroke:#181818;stroke-width:0.5;"/><text fill="#000000" font-family="sans-serif" font-size="11" lengthAdjust="spacing" textLength="41" x="111.75" y="433.4854">Ligado ?</text><text fill="#000000" font-family="sans-serif" font-size="11" lengthAdjust="spacing" textLength="16" x="83.75" y="426.5674">sim</text><text fill="#000000" font-family="sans-serif" font-size="11" lengthAdjust="spacing" textLength="18" x="164.75" y="426.5674">não</text><rect fill="#F1F1F1" height="35.0938" rx="12.5" ry="12.5" style="stroke:#181818;stroke-width:0.5;" width="119" x="11" y="450.9844"/><text fill="#000000" font-family="sans-serif" font-size="12" lengthAdjust="spacing" textLength="99" x="21" y="473.4414">Conecta números</text><rect fill="#F1F1F1" height="35.0938" rx="12.5" ry="12.5" style="stroke:#181818;stroke-width:0.5;" width="88" x="150" y="450.9844"/><text fill="#000000" font-family="sans-serif" font-size="12" lengthAdjust="spacing" textLength="68" x="160" y="473.4414">Caixa postal</text><polygon fill="#F1F1F1" points="132.25,492.0781,144.25,504.0781,132.25,516.0781,120.25,504.0781,132.25,492.0781" style="stroke:#181818;stroke-width:0.5;"/><rect fill="#F1F1F1" height="35.0938" rx="12.5" ry="12.5" style="stroke:#181818;stroke-width:0.5;" width="182" x="268" y="361.8906"/><text fill="#000000" font-family="sans-serif" font-size="12" lengthAdjust="spacing" textLength="162" x="278" y="384.3477">Mensagem: número incorreto</text><ellipse cx="359" cy="426.9844" fill="none" rx="10" ry="10" style="stroke:#222222;stroke-width:1.5;"/><line style="stroke:#222222;stroke-width:2.5;" x1="352.8128" x2="365.1872" y1="420.7972" y2="433.1716"/><line style="stroke:#222222;stroke-width:2.5;" x1="365.1872" x2="352.8128" y1="420.7972" y2="433.1716"/><ellipse cx="245.625" cy="547.0781" fill="none" rx="11" ry="11" style="stroke:#222222;stroke-width:1.0;"/><ellipse cx="245.625" cy="547.0781" fill="#222222" rx="6" ry="6" style="stroke:#111111;stroke-width:1.0;"/><line style="stroke:#181818;stroke-width:1.0;" x1="245.625" x2="245.625" y1="68.6094" y2="88.6094"/><polygon fill="#181818" points="241.625,78.6094,245.625,88.6094,249.625,78.6094,245.625,82.6094" style="stroke:#181818;stroke-width:1.0;"/><line style="stroke:#181818;stroke-width:1.0;" x1="309.875" x2="309.875" y1="212.7969" y2="232.7969"/><polygon fill="#181818" points="305.875,222.7969,309.875,232.7969,313.875,222.7969,309.875,226.7969" style="stroke:#181818;stroke-width:1.0;"/><line style="stroke:#181818;stroke-width:1.0;" x1="217.625" x2="181.375" y1="155.7031" y2="155.7031"/><line style="stroke:#181818;stroke-width:1.0;" x1="181.375" x2="181.375" y1="155.7031" y2="177.7031"/><polygon fill="#181818" points="177.375,167.7031,181.375,177.7031,185.375,167.7031,181.375,171.7031" style="stroke:#181818;stroke-width:1.0;"/><line style="stroke:#181818;stroke-width:1.0;" x1="273.625" x2="309.875" y1="155.7031" y2="155.7031"/><line style="stroke:#181818;stroke-width:1.0;" x1="309.875" x2="309.875" y1="155.7031" y2="177.7031"/><polygon fill="#181818" points="305.875,167.7031,309.875,177.7031,313.875,167.7031,309.875,171.7031" style="stroke:#181818;stroke-width:1.0;"/><line style="stroke:#181818;stroke-width:1.0;" x1="181.375" x2="181.375" y1="212.7969" y2="257.7969"/><line style="stroke:#181818;stroke-width:1.0;" x1="181.375" x2="245.625" y1="257.7969" y2="257.7969"/><line style="stroke:#181818;stroke-width:1.0;" x1="245.625" x2="245.625" y1="257.7969" y2="272.7969"/><polygon fill="#181818" points="241.625,262.7969,245.625,272.7969,249.625,262.7969,245.625,266.7969" style="stroke:#181818;stroke-width:1.0;"/><line style="stroke:#181818;stroke-width:1.0;" x1="245.625" x2="245.625" y1="123.7031" y2="143.7031"/><polygon fill="#181818" points="241.625,133.7031,245.625,143.7031,249.625,133.7031,245.625,137.7031" style="stroke:#181818;stroke-width:1.0;"/><line style="stroke:#181818;stroke-width:1.0;" x1="99.75" x2="70.5" y1="428.9844" y2="428.9844"/><line style="stroke:#181818;stroke-width:1.0;" x1="70.5" x2="70.5" y1="428.9844" y2="450.9844"/><polygon fill="#181818" points="66.5,440.9844,70.5,450.9844,74.5,440.9844,70.5,444.9844" style="stroke:#181818;stroke-width:1.0;"/><line style="stroke:#181818;stroke-width:1.0;" x1="164.75" x2="194" y1="428.9844" y2="428.9844"/><line style="stroke:#181818;stroke-width:1.0;" x1="194" x2="194" y1="428.9844" y2="450.9844"/><polygon fill="#181818" points="190,440.9844,194,450.9844,198,440.9844,194,444.9844" style="stroke:#181818;stroke-width:1.0;"/><line style="stroke:#181818;stroke-width:1.0;" x1="70.5" x2="70.5" y1="486.0781" y2="504.0781"/><line style="stroke:#181818;stroke-width:1.0;" x1="70.5" x2="120.25" y1="504.0781" y2="504.0781"/><polygon fill="#181818" points="110.25,500.0781,120.25,504.0781,110.25,508.0781,114.25,504.0781" style="stroke:#181818;stroke-width:1.0;"/><line style="stroke:#181818;stroke-width:1.0;" x1="194" x2="194" y1="486.0781" y2="504.0781"/><line style="stroke:#181818;stroke-width:1.0;" x1="194" x2="144.25" y1="504.0781" y2="504.0781"/><polygon fill="#181818" points="154.25,500.0781,144.25,504.0781,154.25,508.0781,150.25,504.0781" style="stroke:#181818;stroke-width:1.0;"/><line style="stroke:#181818;stroke-width:1.0;" x1="132.25" x2="132.25" y1="396.9844" y2="416.9844"/><polygon fill="#181818" points="128.25,406.9844,132.25,416.9844,136.25,406.9844,132.25,410.9844" style="stroke:#181818;stroke-width:1.0;"/><line style="stroke:#181818;stroke-width:1.0;" x1="359" x2="359" y1="396.9844" y2="416.9844"/><polygon fill="#181818" points="355,406.9844,359,416.9844,363,406.9844,359,410.9844" style="stroke:#181818;stroke-width:1.0;"/><line style="stroke:#181818;stroke-width:1.0;" x1="191.625" x2="132.25" y1="339.8906" y2="339.8906"/><line style="stroke:#181818;stroke-width:1.0;" x1="132.25" x2="132.25" y1="339.8906" y2="361.8906"/><polygon fill="#181818" points="128.25,351.8906,132.25,361.8906,136.25,351.8906,132.25,355.8906" style="stroke:#181818;stroke-width:1.0;"/><line style="stroke:#181818;stroke-width:1.0;" x1="299.625" x2="359" y1="339.8906" y2="339.8906"/><line style="stroke:#181818;stroke-width:1.0;" x1="359" x2="359" y1="339.8906" y2="361.8906"/><polygon fill="#181818" points="355,351.8906,359,361.8906,363,351.8906,359,355.8906" style="stroke:#181818;stroke-width:1.0;"/><line style="stroke:#181818;stroke-width:1.0;" x1="132.25" x2="132.25" y1="516.0781" y2="521.0781"/><line style="stroke:#181818;stroke-width:1.0;" x1="132.25" x2="245.625" y1="521.0781" y2="521.0781"/><line style="stroke:#181818;stroke-width:1.0;" x1="245.625" x2="245.625" y1="521.0781" y2="536.0781"/><polygon fill="#181818" points="241.625,526.0781,245.625,536.0781,249.625,526.0781,245.625,530.0781" style="stroke:#181818;stroke-width:1.0;"/><line style="stroke:#181818;stroke-width:1.0;" x1="245.625" x2="245.625" y1="307.8906" y2="327.8906"/><polygon fill="#181818" points="241.625,317.8906,245.625,327.8906,249.625,317.8906,245.625,321.8906" style="stroke:#181818;stroke-width:1.0;"/><!--MD5=[2499c00bd95a32c874ba0c18f133e123]
@startuml 04 - FazerLigaçãoDeCelular

title Fazer ligação de celular

start

:Verifica Sinal;
if (Sinal ?) then (sim)
    :Conecta na torre;
else (não)
    :Encerra ligação;
    end
endif
:Consulta número digitado;

if (Número correto ?) then (sim)
    :Verifica se está ligado;
    if (Ligado ?) then (sim)
        :Conecta números;
    else (não)
        :Caixa postal;
    endif
else (não)
    :Mensagem: número incorreto;
    end
endif

stop

@enduml

PlantUML version 1.2022.7(Mon Aug 22 14:01:30 BRT 2022)
(GPL source distribution)
Java Runtime: OpenJDK Runtime Environment
JVM: OpenJDK 64-Bit Server VM
Default Encoding: Cp1252
Language: pt
Country: BR
--></g></svg>