<?xml version="1.0" encoding="UTF-8" standalone="no"?><svg xmlns="http://www.w3.org/2000/svg" xmlns:xlink="http://www.w3.org/1999/xlink" contentStyleType="text/css" height="505px" preserveAspectRatio="none" style="width:540px;height:505px;background:#FFFFFF;" version="1.1" viewBox="0 0 540 505" width="540px" zoomAndPan="magnify"><defs/><g><rect fill="none" height="27.6094" id="_title" style="stroke:none;stroke-width:1.0;" width="182" x="177.5" y="15"/><text fill="#000000" font-family="sans-serif" font-size="14" font-weight="bold" lengthAdjust="spacing" textLength="172" x="182.5" y="34.5332">Fazer Matrícula na Fatec</text><ellipse cx="336.75" cy="58.6094" fill="#222222" rx="10" ry="10" style="stroke:#222222;stroke-width:1.0;"/><rect fill="#F1F1F1" height="35.0938" rx="12.5" ry="12.5" style="stroke:#181818;stroke-width:0.5;" width="112" x="280.75" y="88.6094"/><text fill="#000000" font-family="sans-serif" font-size="12" lengthAdjust="spacing" textLength="92" x="290.75" y="111.0664">Seleciona Curso</text><rect fill="#F1F1F1" height="35.0938" rx="12.5" ry="12.5" style="stroke:#181818;stroke-width:0.5;" width="130" x="271.75" y="143.7031"/><text fill="#000000" font-family="sans-serif" font-size="12" lengthAdjust="spacing" textLength="110" x="281.75" y="166.1602">Verifica se tem vaga</text><polygon fill="#F1F1F1" points="319.25,198.7969,354.25,198.7969,366.25,210.7969,354.25,222.7969,319.25,222.7969,307.25,210.7969,319.25,198.7969" style="stroke:#181818;stroke-width:0.5;"/><text fill="#000000" font-family="sans-serif" font-size="11" lengthAdjust="spacing" textLength="35" x="319.25" y="215.2979">Vaga ?</text><text fill="#000000" font-family="sans-serif" font-size="11" lengthAdjust="spacing" textLength="16" x="291.25" y="208.3799">sim</text><text fill="#000000" font-family="sans-serif" font-size="11" lengthAdjust="spacing" textLength="18" x="366.25" y="208.3799">não</text><rect fill="#F1F1F1" height="35.0938" rx="12.5" ry="12.5" style="stroke:#181818;stroke-width:0.5;" width="69" x="143" y="232.7969"/><text fill="#000000" font-family="sans-serif" font-size="12" lengthAdjust="spacing" textLength="49" x="153" y="255.2539">Matricula</text><rect fill="#F1F1F1" height="35.0938" rx="12.5" ry="12.5" style="stroke:#181818;stroke-width:0.5;" width="169" x="93" y="287.8906"/><text fill="#000000" font-family="sans-serif" font-size="12" lengthAdjust="spacing" textLength="149" x="103" y="310.3477">Faz upload de documentos</text><polygon fill="#F1F1F1" points="124.5,342.9844,230.5,342.9844,242.5,354.9844,230.5,366.9844,124.5,366.9844,112.5,354.9844,124.5,342.9844" style="stroke:#181818;stroke-width:0.5;"/><text fill="#000000" font-family="sans-serif" font-size="11" lengthAdjust="spacing" textLength="106" x="124.5" y="359.4854">Documentos validos ?</text><text fill="#000000" font-family="sans-serif" font-size="11" lengthAdjust="spacing" textLength="16" x="96.5" y="352.5674">sim</text><text fill="#000000" font-family="sans-serif" font-size="11" lengthAdjust="spacing" textLength="18" x="242.5" y="352.5674">não</text><rect fill="#F1F1F1" height="35.0938" rx="12.5" ry="12.5" style="stroke:#181818;stroke-width:0.5;" width="122" x="11" y="376.9844"/><text fill="#000000" font-family="sans-serif" font-size="12" lengthAdjust="spacing" textLength="102" x="21" y="399.4414">Matricula realizada</text><rect fill="#F1F1F1" height="35.0938" rx="12.5" ry="12.5" style="stroke:#181818;stroke-width:0.5;" width="260" x="153" y="376.9844"/><text fill="#000000" font-family="sans-serif" font-size="12" lengthAdjust="spacing" textLength="240" x="163" y="399.4414">Retorna mensagem: Documentos invalidos</text><ellipse cx="283" cy="442.0781" fill="none" rx="10" ry="10" style="stroke:#222222;stroke-width:1.5;"/><line style="stroke:#222222;stroke-width:2.5;" x1="276.8128" x2="289.1872" y1="435.8909" y2="448.2653"/><line style="stroke:#222222;stroke-width:2.5;" x1="289.1872" x2="276.8128" y1="435.8909" y2="448.2653"/><rect fill="#F1F1F1" height="35.0938" rx="12.5" ry="12.5" style="stroke:#181818;stroke-width:0.5;" width="106" x="423" y="232.7969"/><text fill="#000000" font-family="sans-serif" font-size="12" lengthAdjust="spacing" textLength="86" x="433" y="255.2539">Lista de espera</text><ellipse cx="476" cy="297.8906" fill="none" rx="10" ry="10" style="stroke:#222222;stroke-width:1.5;"/><line style="stroke:#222222;stroke-width:2.5;" x1="469.8128" x2="482.1872" y1="291.7034" y2="304.0778"/><line style="stroke:#222222;stroke-width:2.5;" x1="482.1872" x2="469.8128" y1="291.7034" y2="304.0778"/><ellipse cx="336.75" cy="483.0781" fill="none" rx="11" ry="11" style="stroke:#222222;stroke-width:1.0;"/><ellipse cx="336.75" cy="483.0781" fill="#222222" rx="6" ry="6" style="stroke:#111111;stroke-width:1.0;"/><line style="stroke:#181818;stroke-width:1.0;" x1="336.75" x2="336.75" y1="68.6094" y2="88.6094"/><polygon fill="#181818" points="332.75,78.6094,336.75,88.6094,340.75,78.6094,336.75,82.6094" style="stroke:#181818;stroke-width:1.0;"/><line style="stroke:#181818;stroke-width:1.0;" x1="336.75" x2="336.75" y1="123.7031" y2="143.7031"/><polygon fill="#181818" points="332.75,133.7031,336.75,143.7031,340.75,133.7031,336.75,137.7031" style="stroke:#181818;stroke-width:1.0;"/><line style="stroke:#181818;stroke-width:1.0;" x1="177.5" x2="177.5" y1="267.8906" y2="287.8906"/><polygon fill="#181818" points="173.5,277.8906,177.5,287.8906,181.5,277.8906,177.5,281.8906" style="stroke:#181818;stroke-width:1.0;"/><line style="stroke:#181818;stroke-width:1.0;" x1="283" x2="283" y1="412.0781" y2="432.0781"/><polygon fill="#181818" points="279,422.0781,283,432.0781,287,422.0781,283,426.0781" style="stroke:#181818;stroke-width:1.0;"/><line style="stroke:#181818;stroke-width:1.0;" x1="112.5" x2="72" y1="354.9844" y2="354.9844"/><line style="stroke:#181818;stroke-width:1.0;" x1="72" x2="72" y1="354.9844" y2="376.9844"/><polygon fill="#181818" points="68,366.9844,72,376.9844,76,366.9844,72,370.9844" style="stroke:#181818;stroke-width:1.0;"/><line style="stroke:#181818;stroke-width:1.0;" x1="242.5" x2="283" y1="354.9844" y2="354.9844"/><line style="stroke:#181818;stroke-width:1.0;" x1="283" x2="283" y1="354.9844" y2="376.9844"/><polygon fill="#181818" points="279,366.9844,283,376.9844,287,366.9844,283,370.9844" style="stroke:#181818;stroke-width:1.0;"/><line style="stroke:#181818;stroke-width:1.0;" x1="72" x2="72" y1="412.0781" y2="457.0781"/><line style="stroke:#181818;stroke-width:1.0;" x1="72" x2="336.75" y1="457.0781" y2="457.0781"/><line style="stroke:#181818;stroke-width:1.0;" x1="336.75" x2="336.75" y1="457.0781" y2="472.0781"/><polygon fill="#181818" points="332.75,462.0781,336.75,472.0781,340.75,462.0781,336.75,466.0781" style="stroke:#181818;stroke-width:1.0;"/><line style="stroke:#181818;stroke-width:1.0;" x1="177.5" x2="177.5" y1="322.9844" y2="342.9844"/><polygon fill="#181818" points="173.5,332.9844,177.5,342.9844,181.5,332.9844,177.5,336.9844" style="stroke:#181818;stroke-width:1.0;"/><line style="stroke:#181818;stroke-width:1.0;" x1="476" x2="476" y1="267.8906" y2="287.8906"/><polygon fill="#181818" points="472,277.8906,476,287.8906,480,277.8906,476,281.8906" style="stroke:#181818;stroke-width:1.0;"/><line style="stroke:#181818;stroke-width:1.0;" x1="307.25" x2="177.5" y1="210.7969" y2="210.7969"/><line style="stroke:#181818;stroke-width:1.0;" x1="177.5" x2="177.5" y1="210.7969" y2="232.7969"/><polygon fill="#181818" points="173.5,222.7969,177.5,232.7969,181.5,222.7969,177.5,226.7969" style="stroke:#181818;stroke-width:1.0;"/><line style="stroke:#181818;stroke-width:1.0;" x1="366.25" x2="476" y1="210.7969" y2="210.7969"/><line style="stroke:#181818;stroke-width:1.0;" x1="476" x2="476" y1="210.7969" y2="232.7969"/><polygon fill="#181818" points="472,222.7969,476,232.7969,480,222.7969,476,226.7969" style="stroke:#181818;stroke-width:1.0;"/><line style="stroke:#181818;stroke-width:1.0;" x1="336.75" x2="336.75" y1="178.7969" y2="198.7969"/><polygon fill="#181818" points="332.75,188.7969,336.75,198.7969,340.75,188.7969,336.75,192.7969" style="stroke:#181818;stroke-width:1.0;"/><!--MD5=[5fe68f8879791c40da33eea25fbc8141]
@startuml 05 - FazerMatriculaNaFatec

title Fazer Matrícula na Fatec

start

:Seleciona Curso;
:Verifica se tem vaga;
if (Vaga ?) then (sim)
    :Matricula;
    :Faz upload de documentos;
    if (Documentos validos ?) then (sim)
        :Matricula realizada;
    else (não)
        :Retorna mensagem: Documentos invalidos;
        end
    endif
else (não)
    :Lista de espera;
    end
endif

stop

@enduml

PlantUML version 1.2022.7(Mon Aug 22 14:01:30 BRT 2022)
(GPL source distribution)
Java Runtime: OpenJDK Runtime Environment
JVM: OpenJDK 64-Bit Server VM
Default Encoding: Cp1252
Language: pt
Country: BR
--></g></svg>