<?xml version="1.0" encoding="UTF-8" standalone="no"?><svg xmlns="http://www.w3.org/2000/svg" xmlns:xlink="http://www.w3.org/1999/xlink" contentStyleType="text/css" height="589px" preserveAspectRatio="none" style="width:440px;height:589px;background:#FFFFFF;" version="1.1" viewBox="0 0 440 589" width="440px" zoomAndPan="magnify"><defs/><g><rect fill="none" height="27.6094" id="_title" style="stroke:none;stroke-width:1.0;" width="246" x="95.5" y="15"/><text fill="#000000" font-family="sans-serif" font-size="14" font-weight="bold" lengthAdjust="spacing" textLength="236" x="100.5" y="34.5332">Pagar Boleto via Internet Banking</text><ellipse cx="205.5" cy="58.6094" fill="#222222" rx="10" ry="10" style="stroke:#222222;stroke-width:1.0;"/><rect fill="#F1F1F1" height="35.0938" rx="12.5" ry="12.5" style="stroke:#181818;stroke-width:0.5;" width="184" x="113.5" y="88.6094"/><text fill="#000000" font-family="sans-serif" font-size="12" lengthAdjust="spacing" textLength="164" x="123.5" y="111.0664">Seleciona opção pagar boleto</text><rect fill="#555555" height="6" rx="2.5" ry="2.5" style="stroke:#555555;stroke-width:1.0;" width="391" x="11" y="198.7969"/><rect fill="#F1F1F1" height="35.0938" rx="12.5" ry="12.5" style="stroke:#181818;stroke-width:0.5;" width="148" x="23" y="224.7969"/><text fill="#000000" font-family="sans-serif" font-size="12" lengthAdjust="spacing" textLength="128" x="33" y="247.2539">Digita código de barras</text><rect fill="#F1F1F1" height="35.0938" rx="12.5" ry="12.5" style="stroke:#181818;stroke-width:0.5;" width="189" x="199" y="224.7969"/><text fill="#000000" font-family="sans-serif" font-size="12" lengthAdjust="spacing" textLength="169" x="209" y="247.2539">Faz leitura do código de barras</text><rect fill="#555555" height="6" rx="2.5" ry="2.5" style="stroke:#555555;stroke-width:1.0;" width="391" x="11" y="279.8906"/><rect fill="#F1F1F1" height="35.0938" rx="12.5" ry="12.5" style="stroke:#181818;stroke-width:0.5;" width="174" x="118.5" y="143.7031"/><text fill="#000000" font-family="sans-serif" font-size="12" lengthAdjust="spacing" textLength="154" x="128.5" y="166.1602">Escolhe como inserir boleto</text><polygon fill="#F1F1F1" points="144,305.8906,267,305.8906,279,317.8906,267,329.8906,144,329.8906,132,317.8906,144,305.8906" style="stroke:#181818;stroke-width:0.5;"/><text fill="#000000" font-family="sans-serif" font-size="11" lengthAdjust="spacing" textLength="123" x="144" y="322.3916">Código de barras válido ?</text><text fill="#000000" font-family="sans-serif" font-size="11" lengthAdjust="spacing" textLength="18" x="279" y="315.4736">não</text><rect fill="#F1F1F1" height="35.0938" rx="12.5" ry="12.5" style="stroke:#181818;stroke-width:0.5;" width="159" x="126" y="372.1436"/><text fill="#000000" font-family="sans-serif" font-size="12" lengthAdjust="spacing" textLength="139" x="136" y="394.6006">Confirma saldo em conta</text><polygon fill="#F1F1F1" points="162,427.2373,249,427.2373,261,439.2373,249,451.2373,162,451.2373,150,439.2373,162,427.2373" style="stroke:#181818;stroke-width:0.5;"/><text fill="#000000" font-family="sans-serif" font-size="11" lengthAdjust="spacing" textLength="87" x="162" y="443.7383">Saldo disponivel ?</text><text fill="#000000" font-family="sans-serif" font-size="11" lengthAdjust="spacing" textLength="16" x="134" y="436.8203">sim</text><text fill="#000000" font-family="sans-serif" font-size="11" lengthAdjust="spacing" textLength="18" x="261" y="436.8203">não</text><rect fill="#F1F1F1" height="35.0938" rx="12.5" ry="12.5" style="stroke:#181818;stroke-width:0.5;" width="137" x="34" y="461.2373"/><text fill="#000000" font-family="sans-serif" font-size="12" lengthAdjust="spacing" textLength="117" x="44" y="483.6943">Confirma pagamento</text><rect fill="#F1F1F1" height="35.0938" rx="12.5" ry="12.5" style="stroke:#181818;stroke-width:0.5;" width="235" x="191" y="461.2373"/><text fill="#000000" font-family="sans-serif" font-size="12" lengthAdjust="spacing" textLength="215" x="201" y="483.6943">Retorna mensagem: Saldo insuficiente</text><ellipse cx="308.5" cy="526.3311" fill="none" rx="10" ry="10" style="stroke:#222222;stroke-width:1.5;"/><line style="stroke:#222222;stroke-width:2.5;" x1="302.3128" x2="314.6872" y1="520.1439" y2="532.5182"/><line style="stroke:#222222;stroke-width:2.5;" x1="314.6872" x2="302.3128" y1="520.1439" y2="532.5182"/><ellipse cx="205.5" cy="567.3311" fill="none" rx="11" ry="11" style="stroke:#222222;stroke-width:1.0;"/><ellipse cx="205.5" cy="567.3311" fill="#222222" rx="6" ry="6" style="stroke:#111111;stroke-width:1.0;"/><line style="stroke:#181818;stroke-width:1.0;" x1="205.5" x2="205.5" y1="68.6094" y2="88.6094"/><polygon fill="#181818" points="201.5,78.6094,205.5,88.6094,209.5,78.6094,205.5,82.6094" style="stroke:#181818;stroke-width:1.0;"/><line style="stroke:#181818;stroke-width:1.0;" x1="97" x2="97" y1="204.7969" y2="224.7969"/><polygon fill="#181818" points="93,214.7969,97,224.7969,101,214.7969,97,218.7969" style="stroke:#181818;stroke-width:1.0;"/><line style="stroke:#181818;stroke-width:1.0;" x1="293.5" x2="293.5" y1="204.7969" y2="224.7969"/><polygon fill="#181818" points="289.5,214.7969,293.5,224.7969,297.5,214.7969,293.5,218.7969" style="stroke:#181818;stroke-width:1.0;"/><line style="stroke:#181818;stroke-width:1.0;" x1="97" x2="97" y1="259.8906" y2="279.8906"/><polygon fill="#181818" points="93,269.8906,97,279.8906,101,269.8906,97,273.8906" style="stroke:#181818;stroke-width:1.0;"/><line style="stroke:#181818;stroke-width:1.0;" x1="293.5" x2="293.5" y1="259.8906" y2="279.8906"/><polygon fill="#181818" points="289.5,269.8906,293.5,279.8906,297.5,269.8906,293.5,273.8906" style="stroke:#181818;stroke-width:1.0;"/><line style="stroke:#181818;stroke-width:1.0;" x1="205.5" x2="205.5" y1="178.7969" y2="198.7969"/><polygon fill="#181818" points="201.5,188.7969,205.5,198.7969,209.5,188.7969,205.5,192.7969" style="stroke:#181818;stroke-width:1.0;"/><line style="stroke:#181818;stroke-width:1.0;" x1="279" x2="414" y1="317.8906" y2="317.8906"/><polygon fill="#181818" points="410,249.5703,414,239.5703,418,249.5703,414,245.5703" style="stroke:#181818;stroke-width:1.0;"/><line style="stroke:#181818;stroke-width:1.0;" x1="414" x2="414" y1="161.25" y2="317.8906"/><line style="stroke:#181818;stroke-width:1.0;" x1="414" x2="292.5" y1="161.25" y2="161.25"/><polygon fill="#181818" points="302.5,157.25,292.5,161.25,302.5,165.25,298.5,161.25" style="stroke:#181818;stroke-width:1.0;"/><line style="stroke:#181818;stroke-width:1.0;" x1="205.5" x2="205.5" y1="285.8906" y2="305.8906"/><polygon fill="#181818" points="201.5,295.8906,205.5,305.8906,209.5,295.8906,205.5,299.8906" style="stroke:#181818;stroke-width:1.0;"/><line style="stroke:#181818;stroke-width:1.0;" x1="205.5" x2="205.5" y1="123.7031" y2="143.7031"/><polygon fill="#181818" points="201.5,133.7031,205.5,143.7031,209.5,133.7031,205.5,137.7031" style="stroke:#181818;stroke-width:1.0;"/><line style="stroke:#181818;stroke-width:1.0;" x1="205.5" x2="205.5" y1="329.8906" y2="372.1436"/><polygon fill="#181818" points="201.5,362.1436,205.5,372.1436,209.5,362.1436,205.5,366.1436" style="stroke:#181818;stroke-width:1.0;"/><text fill="#000000" font-family="sans-serif" font-size="11" lengthAdjust="spacing" textLength="17" x="209.5" y="352.2266">Sim</text><line style="stroke:#181818;stroke-width:1.0;" x1="308.5" x2="308.5" y1="496.3311" y2="516.3311"/><polygon fill="#181818" points="304.5,506.3311,308.5,516.3311,312.5,506.3311,308.5,510.3311" style="stroke:#181818;stroke-width:1.0;"/><line style="stroke:#181818;stroke-width:1.0;" x1="150" x2="102.5" y1="439.2373" y2="439.2373"/><line style="stroke:#181818;stroke-width:1.0;" x1="102.5" x2="102.5" y1="439.2373" y2="461.2373"/><polygon fill="#181818" points="98.5,451.2373,102.5,461.2373,106.5,451.2373,102.5,455.2373" style="stroke:#181818;stroke-width:1.0;"/><line style="stroke:#181818;stroke-width:1.0;" x1="261" x2="308.5" y1="439.2373" y2="439.2373"/><line style="stroke:#181818;stroke-width:1.0;" x1="308.5" x2="308.5" y1="439.2373" y2="461.2373"/><polygon fill="#181818" points="304.5,451.2373,308.5,461.2373,312.5,451.2373,308.5,455.2373" style="stroke:#181818;stroke-width:1.0;"/><line style="stroke:#181818;stroke-width:1.0;" x1="102.5" x2="102.5" y1="496.3311" y2="541.3311"/><line style="stroke:#181818;stroke-width:1.0;" x1="102.5" x2="205.5" y1="541.3311" y2="541.3311"/><line style="stroke:#181818;stroke-width:1.0;" x1="205.5" x2="205.5" y1="541.3311" y2="556.3311"/><polygon fill="#181818" points="201.5,546.3311,205.5,556.3311,209.5,546.3311,205.5,550.3311" style="stroke:#181818;stroke-width:1.0;"/><line style="stroke:#181818;stroke-width:1.0;" x1="205.5" x2="205.5" y1="407.2373" y2="427.2373"/><polygon fill="#181818" points="201.5,417.2373,205.5,427.2373,209.5,417.2373,205.5,421.2373" style="stroke:#181818;stroke-width:1.0;"/><!--MD5=[26ea27485ce122263514ab7e8ac65de6]
@startuml 06 - PagarBoletoViaInternetBanking

title Pagar Boleto via Internet Banking

start

:Seleciona opção pagar boleto;
repeat :Escolhe como inserir boleto;
fork
    :Digita código de barras;
fork again
    :Faz leitura do código de barras;
end fork
repeat while (Código de barras válido ?) is (não)
-> Sim;
:Confirma saldo em conta;
if (Saldo disponivel ?) then (sim)
    :Confirma pagamento;
else (não)
    :Retorna mensagem: Saldo insuficiente;
    end
endif

stop

@enduml

PlantUML version 1.2022.7(Mon Aug 22 14:01:30 BRT 2022)
(GPL source distribution)
Java Runtime: OpenJDK Runtime Environment
JVM: OpenJDK 64-Bit Server VM
Default Encoding: Cp1252
Language: pt
Country: BR
--></g></svg>