<?xml version="1.0" encoding="UTF-8" standalone="no"?><svg xmlns="http://www.w3.org/2000/svg" xmlns:xlink="http://www.w3.org/1999/xlink" contentStyleType="text/css" height="483px" preserveAspectRatio="none" style="width:247px;height:483px;background:#FFFFFF;" version="1.1" viewBox="0 0 247 483" width="247px" zoomAndPan="magnify"><defs/><g><rect fill="none" height="27.6094" id="_title" style="stroke:none;stroke-width:1.0;" width="214" x="15" y="15"/><text fill="#000000" font-family="sans-serif" font-size="14" font-weight="bold" lengthAdjust="spacing" textLength="204" x="20" y="34.5332">Tirar Extrato Caixa Eletrônico</text><ellipse cx="123.5" cy="58.6094" fill="#222222" rx="10" ry="10" style="stroke:#222222;stroke-width:1.0;"/><rect fill="#F1F1F1" height="35.0938" rx="12.5" ry="12.5" style="stroke:#181818;stroke-width:0.5;" width="92" x="77.5" y="88.6094"/><text fill="#000000" font-family="sans-serif" font-size="12" lengthAdjust="spacing" textLength="72" x="87.5" y="111.0664">Insere cartão</text><rect fill="#F1F1F1" height="35.0938" rx="12.5" ry="12.5" style="stroke:#181818;stroke-width:0.5;" width="90" x="78.5" y="143.7031"/><text fill="#000000" font-family="sans-serif" font-size="12" lengthAdjust="spacing" textLength="70" x="88.5" y="166.1602">Digita senha</text><polygon fill="#F1F1F1" points="84.5,218.7969,162.5,218.7969,174.5,230.7969,162.5,242.7969,84.5,242.7969,72.5,230.7969,84.5,218.7969" style="stroke:#181818;stroke-width:0.5;"/><text fill="#000000" font-family="sans-serif" font-size="11" lengthAdjust="spacing" textLength="78" x="84.5" y="235.2979">Senha correta ?</text><text fill="#000000" font-family="sans-serif" font-size="11" lengthAdjust="spacing" textLength="18" x="174.5" y="228.3799">não</text><rect fill="#F1F1F1" height="35.0938" rx="12.5" ry="12.5" style="stroke:#181818;stroke-width:0.5;" width="94" x="76.5" y="285.0498"/><text fill="#000000" font-family="sans-serif" font-size="12" lengthAdjust="spacing" textLength="74" x="86.5" y="307.5068">Acessa conta</text><rect fill="#F1F1F1" height="35.0938" rx="12.5" ry="12.5" style="stroke:#181818;stroke-width:0.5;" width="202" x="22.5" y="340.1436"/><text fill="#000000" font-family="sans-serif" font-size="12" lengthAdjust="spacing" textLength="182" x="32.5" y="362.6006">Seleciona opção extrato bancário</text><rect fill="#F1F1F1" height="35.0938" rx="12.5" ry="12.5" style="stroke:#181818;stroke-width:0.5;" width="105" x="71" y="395.2373"/><text fill="#000000" font-family="sans-serif" font-size="12" lengthAdjust="spacing" textLength="85" x="81" y="417.6943">Imprime extrato</text><ellipse cx="123.5" cy="461.3311" fill="none" rx="11" ry="11" style="stroke:#222222;stroke-width:1.0;"/><ellipse cx="123.5" cy="461.3311" fill="#222222" rx="6" ry="6" style="stroke:#111111;stroke-width:1.0;"/><line style="stroke:#181818;stroke-width:1.0;" x1="123.5" x2="123.5" y1="68.6094" y2="88.6094"/><polygon fill="#181818" points="119.5,78.6094,123.5,88.6094,127.5,78.6094,123.5,82.6094" style="stroke:#181818;stroke-width:1.0;"/><line style="stroke:#181818;stroke-width:1.0;" x1="123.5" x2="123.5" y1="178.7969" y2="218.7969"/><polygon fill="#181818" points="119.5,208.7969,123.5,218.7969,127.5,208.7969,123.5,212.7969" style="stroke:#181818;stroke-width:1.0;"/><line style="stroke:#181818;stroke-width:1.0;" x1="174.5" x2="186.5" y1="230.7969" y2="230.7969"/><polygon fill="#181818" points="182.5,198.7969,186.5,188.7969,190.5,198.7969,186.5,194.7969" style="stroke:#181818;stroke-width:1.0;"/><line style="stroke:#181818;stroke-width:1.0;" x1="186.5" x2="186.5" y1="161.25" y2="230.7969"/><line style="stroke:#181818;stroke-width:1.0;" x1="186.5" x2="168.5" y1="161.25" y2="161.25"/><polygon fill="#181818" points="178.5,157.25,168.5,161.25,178.5,165.25,174.5,161.25" style="stroke:#181818;stroke-width:1.0;"/><line style="stroke:#181818;stroke-width:1.0;" x1="123.5" x2="123.5" y1="123.7031" y2="143.7031"/><polygon fill="#181818" points="119.5,133.7031,123.5,143.7031,127.5,133.7031,123.5,137.7031" style="stroke:#181818;stroke-width:1.0;"/><line style="stroke:#181818;stroke-width:1.0;" x1="123.5" x2="123.5" y1="242.7969" y2="285.0498"/><polygon fill="#181818" points="119.5,275.0498,123.5,285.0498,127.5,275.0498,123.5,279.0498" style="stroke:#181818;stroke-width:1.0;"/><text fill="#000000" font-family="sans-serif" font-size="11" lengthAdjust="spacing" textLength="17" x="127.5" y="265.1328">Sim</text><line style="stroke:#181818;stroke-width:1.0;" x1="123.5" x2="123.5" y1="320.1436" y2="340.1436"/><polygon fill="#181818" points="119.5,330.1436,123.5,340.1436,127.5,330.1436,123.5,334.1436" style="stroke:#181818;stroke-width:1.0;"/><line style="stroke:#181818;stroke-width:1.0;" x1="123.5" x2="123.5" y1="375.2373" y2="395.2373"/><polygon fill="#181818" points="119.5,385.2373,123.5,395.2373,127.5,385.2373,123.5,389.2373" style="stroke:#181818;stroke-width:1.0;"/><line style="stroke:#181818;stroke-width:1.0;" x1="123.5" x2="123.5" y1="430.3311" y2="450.3311"/><polygon fill="#181818" points="119.5,440.3311,123.5,450.3311,127.5,440.3311,123.5,444.3311" style="stroke:#181818;stroke-width:1.0;"/><!--MD5=[9d034088d8757226b8d72d77768ddc71]
@startuml 07 - TirarExtratoCaixaEletronico

title Tirar Extrato Caixa Eletrônico

start

:Insere cartão;
repeat :Digita senha;
repeat while (Senha correta ?) is (não)
-> Sim;
:Acessa conta;
:Seleciona opção extrato bancário;
:Imprime extrato;
stop

@enduml

PlantUML version 1.2022.7(Mon Aug 22 14:01:30 BRT 2022)
(GPL source distribution)
Java Runtime: OpenJDK Runtime Environment
JVM: OpenJDK 64-Bit Server VM
Default Encoding: Cp1252
Language: pt
Country: BR
--></g></svg>