<?xml version="1.0" encoding="UTF-8" standalone="no"?><svg xmlns="http://www.w3.org/2000/svg" xmlns:xlink="http://www.w3.org/1999/xlink" contentStyleType="text/css" height="931px" preserveAspectRatio="none" style="width:823px;height:931px;background:#FFFFFF;" version="1.1" viewBox="0 0 823 931" width="823px" zoomAndPan="magnify"><defs/><g><rect fill="none" height="27.6094" id="_title" style="stroke:none;stroke-width:1.0;" width="198" x="311.4688" y="15"/><text fill="#000000" font-family="sans-serif" font-size="14" font-weight="bold" lengthAdjust="spacing" textLength="188" x="316.4688" y="34.5332">Comprar no Mercado Livre</text><ellipse cx="567.4375" cy="58.6094" fill="#222222" rx="10" ry="10" style="stroke:#222222;stroke-width:1.0;"/><rect fill="#F1F1F1" height="35.0938" rx="12.5" ry="12.5" style="stroke:#181818;stroke-width:0.5;" width="120" x="507.4375" y="88.6094"/><text fill="#000000" font-family="sans-serif" font-size="12" lengthAdjust="spacing" textLength="100" x="517.4375" y="111.0664">Seleciona produto</text><rect fill="#F1F1F1" height="35.0938" rx="12.5" ry="12.5" style="stroke:#181818;stroke-width:0.5;" width="140" x="497.4375" y="143.7031"/><text fill="#000000" font-family="sans-serif" font-size="12" lengthAdjust="spacing" textLength="120" x="507.4375" y="166.1602">Seleciona quantidade</text><polygon fill="#F1F1F1" points="509.9375,198.7969,624.9375,198.7969,636.9375,210.7969,624.9375,222.7969,509.9375,222.7969,497.9375,210.7969,509.9375,198.7969" style="stroke:#181818;stroke-width:0.5;"/><text fill="#000000" font-family="sans-serif" font-size="11" lengthAdjust="spacing" textLength="115" x="509.9375" y="215.2979">Quantidade disponivel ?</text><text fill="#000000" font-family="sans-serif" font-size="11" lengthAdjust="spacing" textLength="16" x="481.9375" y="208.3799">sim</text><text fill="#000000" font-family="sans-serif" font-size="11" lengthAdjust="spacing" textLength="18" x="636.9375" y="208.3799">não</text><rect fill="#F1F1F1" height="35.0938" rx="12.5" ry="12.5" style="stroke:#181818;stroke-width:0.5;" width="132" x="390.9375" y="232.7969"/><text fill="#000000" font-family="sans-serif" font-size="12" lengthAdjust="spacing" textLength="112" x="400.9375" y="255.2539">Adiciona ao carrinho</text><rect fill="#F1F1F1" height="35.0938" rx="12.5" ry="12.5" style="stroke:#181818;stroke-width:0.5;" width="270" x="542.9375" y="232.7969"/><text fill="#000000" font-family="sans-serif" font-size="12" lengthAdjust="spacing" textLength="250" x="552.9375" y="255.2539">Retorna mensagem: Quantidade indisponivel</text><ellipse cx="677.9375" cy="297.8906" fill="none" rx="10" ry="10" style="stroke:#222222;stroke-width:1.5;"/><line style="stroke:#222222;stroke-width:2.5;" x1="671.7503" x2="684.1247" y1="291.7034" y2="304.0778"/><line style="stroke:#222222;stroke-width:2.5;" x1="684.1247" x2="671.7503" y1="291.7034" y2="304.0778"/><rect fill="#F1F1F1" height="35.0938" rx="12.5" ry="12.5" style="stroke:#181818;stroke-width:0.5;" width="192" x="471.4375" y="327.8906"/><text fill="#000000" font-family="sans-serif" font-size="12" lengthAdjust="spacing" textLength="172" x="481.4375" y="350.3477">Seleciona endereço de entrega</text><polygon fill="#F1F1F1" points="510.9375,382.9844,623.9375,382.9844,635.9375,394.9844,623.9375,406.9844,510.9375,406.9844,498.9375,394.9844,510.9375,382.9844" style="stroke:#181818;stroke-width:0.5;"/><text fill="#000000" font-family="sans-serif" font-size="11" lengthAdjust="spacing" textLength="113" x="510.9375" y="399.4854">Endereço cadastrado ?</text><text fill="#000000" font-family="sans-serif" font-size="11" lengthAdjust="spacing" textLength="16" x="482.9375" y="392.5674">sim</text><text fill="#000000" font-family="sans-serif" font-size="11" lengthAdjust="spacing" textLength="18" x="635.9375" y="392.5674">não</text><rect fill="#F1F1F1" height="35.0938" rx="12.5" ry="12.5" style="stroke:#181818;stroke-width:0.5;" width="126" x="425.9375" y="416.9844"/><text fill="#000000" font-family="sans-serif" font-size="12" lengthAdjust="spacing" textLength="106" x="435.9375" y="439.4414">Confirma endereço</text><rect fill="#F1F1F1" height="35.0938" rx="12.5" ry="12.5" style="stroke:#181818;stroke-width:0.5;" width="126" x="582.9375" y="416.9844"/><text fill="#000000" font-family="sans-serif" font-size="12" lengthAdjust="spacing" textLength="106" x="592.9375" y="439.4414">Cadastra endereço</text><polygon fill="#F1F1F1" points="567.4375,458.0781,579.4375,470.0781,567.4375,482.0781,555.4375,470.0781,567.4375,458.0781" style="stroke:#181818;stroke-width:0.5;"/><rect fill="#F1F1F1" height="35.0938" rx="12.5" ry="12.5" style="stroke:#181818;stroke-width:0.5;" width="193" x="470.9375" y="502.0781"/><text fill="#000000" font-family="sans-serif" font-size="12" lengthAdjust="spacing" textLength="173" x="480.9375" y="524.5352">Seleciona forma de pagamento</text><polygon fill="#F1F1F1" points="521.4375,557.1719,613.4375,557.1719,625.4375,569.1719,613.4375,581.1719,521.4375,581.1719,509.4375,569.1719,521.4375,557.1719" style="stroke:#181818;stroke-width:0.5;"/><text fill="#000000" font-family="sans-serif" font-size="11" lengthAdjust="spacing" textLength="92" x="521.4375" y="573.6729">Cartão de crédito ?</text><text fill="#000000" font-family="sans-serif" font-size="11" lengthAdjust="spacing" textLength="16" x="493.4375" y="566.7549">sim</text><text fill="#000000" font-family="sans-serif" font-size="11" lengthAdjust="spacing" textLength="18" x="625.4375" y="566.7549">não</text><rect fill="#F1F1F1" height="35.0938" rx="12.5" ry="12.5" style="stroke:#181818;stroke-width:0.5;" width="144" x="302.875" y="591.1719"/><text fill="#000000" font-family="sans-serif" font-size="12" lengthAdjust="spacing" textLength="124" x="312.875" y="613.6289">Digita dados do cartão</text><polygon fill="#F1F1F1" points="332.875,646.2656,416.875,646.2656,428.875,658.2656,416.875,670.2656,332.875,670.2656,320.875,658.2656,332.875,646.2656" style="stroke:#181818;stroke-width:0.5;"/><text fill="#000000" font-family="sans-serif" font-size="11" lengthAdjust="spacing" textLength="84" x="332.875" y="662.7666">Dados corretos ?</text><text fill="#000000" font-family="sans-serif" font-size="11" lengthAdjust="spacing" textLength="16" x="304.875" y="655.8486">sim</text><text fill="#000000" font-family="sans-serif" font-size="11" lengthAdjust="spacing" textLength="18" x="428.875" y="655.8486">não</text><rect fill="#F1F1F1" height="35.0938" rx="12.5" ry="12.5" style="stroke:#181818;stroke-width:0.5;" width="137" x="109.25" y="680.2656"/><text fill="#000000" font-family="sans-serif" font-size="12" lengthAdjust="spacing" textLength="117" x="119.25" y="702.7227">Confirma pagamento</text><polygon fill="#F1F1F1" points="122.25,735.3594,233.25,735.3594,245.25,747.3594,233.25,759.3594,122.25,759.3594,110.25,747.3594,122.25,735.3594" style="stroke:#181818;stroke-width:0.5;"/><text fill="#000000" font-family="sans-serif" font-size="11" lengthAdjust="spacing" textLength="111" x="122.25" y="751.8604">Pagamento aprovado ?</text><text fill="#000000" font-family="sans-serif" font-size="11" lengthAdjust="spacing" textLength="16" x="94.25" y="744.9424">sim</text><text fill="#000000" font-family="sans-serif" font-size="11" lengthAdjust="spacing" textLength="18" x="245.25" y="744.9424">não</text><rect fill="#F1F1F1" height="35.0938" rx="12.5" ry="12.5" style="stroke:#181818;stroke-width:0.5;" width="116" x="11" y="769.3594"/><text fill="#000000" font-family="sans-serif" font-size="12" lengthAdjust="spacing" textLength="96" x="21" y="791.8164">Confirma compra</text><rect fill="#F1F1F1" height="35.0938" rx="12.5" ry="12.5" style="stroke:#181818;stroke-width:0.5;" width="279" x="147" y="769.3594"/><text fill="#000000" font-family="sans-serif" font-size="12" lengthAdjust="spacing" textLength="259" x="157" y="791.8164">Retorna mensagem: Pagamento não aprovado</text><ellipse cx="286.5" cy="834.4531" fill="none" rx="10" ry="10" style="stroke:#222222;stroke-width:1.5;"/><line style="stroke:#222222;stroke-width:2.5;" x1="280.3128" x2="292.6872" y1="828.2659" y2="840.6403"/><line style="stroke:#222222;stroke-width:2.5;" x1="292.6872" x2="280.3128" y1="828.2659" y2="840.6403"/><rect fill="#F1F1F1" height="35.0938" rx="12.5" ry="12.5" style="stroke:#181818;stroke-width:0.5;" width="232" x="456" y="680.2656"/><text fill="#000000" font-family="sans-serif" font-size="12" lengthAdjust="spacing" textLength="212" x="466" y="702.7227">Retorna mensagem: Dados incorretos</text><ellipse cx="572" cy="745.3594" fill="none" rx="10" ry="10" style="stroke:#222222;stroke-width:1.5;"/><line style="stroke:#222222;stroke-width:2.5;" x1="565.8128" x2="578.1872" y1="739.1722" y2="751.5466"/><line style="stroke:#222222;stroke-width:2.5;" x1="578.1872" x2="565.8128" y1="739.1722" y2="751.5466"/><rect fill="#F1F1F1" height="35.0938" rx="12.5" ry="12.5" style="stroke:#181818;stroke-width:0.5;" width="84" x="718" y="591.1719"/><text fill="#000000" font-family="sans-serif" font-size="12" lengthAdjust="spacing" textLength="64" x="728" y="613.6289">Gera boleto</text><polygon fill="#F1F1F1" points="567.4375,854.4531,579.4375,866.4531,567.4375,878.4531,555.4375,866.4531,567.4375,854.4531" style="stroke:#181818;stroke-width:0.5;"/><ellipse cx="567.4375" cy="909.4531" fill="none" rx="11" ry="11" style="stroke:#222222;stroke-width:1.0;"/><ellipse cx="567.4375" cy="909.4531" fill="#222222" rx="6" ry="6" style="stroke:#111111;stroke-width:1.0;"/><line style="stroke:#181818;stroke-width:1.0;" x1="567.4375" x2="567.4375" y1="68.6094" y2="88.6094"/><polygon fill="#181818" points="563.4375,78.6094,567.4375,88.6094,571.4375,78.6094,567.4375,82.6094" style="stroke:#181818;stroke-width:1.0;"/><line style="stroke:#181818;stroke-width:1.0;" x1="567.4375" x2="567.4375" y1="123.7031" y2="143.7031"/><polygon fill="#181818" points="563.4375,133.7031,567.4375,143.7031,571.4375,133.7031,567.4375,137.7031" style="stroke:#181818;stroke-width:1.0;"/><line style="stroke:#181818;stroke-width:1.0;" x1="677.9375" x2="677.9375" y1="267.8906" y2="287.8906"/><polygon fill="#181818" points="673.9375,277.8906,677.9375,287.8906,681.9375,277.8906,677.9375,281.8906" style="stroke:#181818;stroke-width:1.0;"/><line style="stroke:#181818;stroke-width:1.0;" x1="497.9375" x2="456.9375" y1="210.7969" y2="210.7969"/><line style="stroke:#181818;stroke-width:1.0;" x1="456.9375" x2="456.9375" y1="210.7969" y2="232.7969"/><polygon fill="#181818" points="452.9375,222.7969,456.9375,232.7969,460.9375,222.7969,456.9375,226.7969" style="stroke:#181818;stroke-width:1.0;"/><line style="stroke:#181818;stroke-width:1.0;" x1="636.9375" x2="677.9375" y1="210.7969" y2="210.7969"/><line style="stroke:#181818;stroke-width:1.0;" x1="677.9375" x2="677.9375" y1="210.7969" y2="232.7969"/><polygon fill="#181818" points="673.9375,222.7969,677.9375,232.7969,681.9375,222.7969,677.9375,226.7969" style="stroke:#181818;stroke-width:1.0;"/><line style="stroke:#181818;stroke-width:1.0;" x1="456.9375" x2="456.9375" y1="267.8906" y2="312.8906"/><line style="stroke:#181818;stroke-width:1.0;" x1="456.9375" x2="567.4375" y1="312.8906" y2="312.8906"/><line style="stroke:#181818;stroke-width:1.0;" x1="567.4375" x2="567.4375" y1="312.8906" y2="327.8906"/><polygon fill="#181818" points="563.4375,317.8906,567.4375,327.8906,571.4375,317.8906,567.4375,321.8906" style="stroke:#181818;stroke-width:1.0;"/><line style="stroke:#181818;stroke-width:1.0;" x1="567.4375" x2="567.4375" y1="178.7969" y2="198.7969"/><polygon fill="#181818" points="563.4375,188.7969,567.4375,198.7969,571.4375,188.7969,567.4375,192.7969" style="stroke:#181818;stroke-width:1.0;"/><line style="stroke:#181818;stroke-width:1.0;" x1="498.9375" x2="488.9375" y1="394.9844" y2="394.9844"/><line style="stroke:#181818;stroke-width:1.0;" x1="488.9375" x2="488.9375" y1="394.9844" y2="416.9844"/><polygon fill="#181818" points="484.9375,406.9844,488.9375,416.9844,492.9375,406.9844,488.9375,410.9844" style="stroke:#181818;stroke-width:1.0;"/><line style="stroke:#181818;stroke-width:1.0;" x1="635.9375" x2="645.9375" y1="394.9844" y2="394.9844"/><line style="stroke:#181818;stroke-width:1.0;" x1="645.9375" x2="645.9375" y1="394.9844" y2="416.9844"/><polygon fill="#181818" points="641.9375,406.9844,645.9375,416.9844,649.9375,406.9844,645.9375,410.9844" style="stroke:#181818;stroke-width:1.0;"/><line style="stroke:#181818;stroke-width:1.0;" x1="488.9375" x2="488.9375" y1="452.0781" y2="470.0781"/><line style="stroke:#181818;stroke-width:1.0;" x1="488.9375" x2="555.4375" y1="470.0781" y2="470.0781"/><polygon fill="#181818" points="545.4375,466.0781,555.4375,470.0781,545.4375,474.0781,549.4375,470.0781" style="stroke:#181818;stroke-width:1.0;"/><line style="stroke:#181818;stroke-width:1.0;" x1="645.9375" x2="645.9375" y1="452.0781" y2="470.0781"/><line style="stroke:#181818;stroke-width:1.0;" x1="645.9375" x2="579.4375" y1="470.0781" y2="470.0781"/><polygon fill="#181818" points="589.4375,466.0781,579.4375,470.0781,589.4375,474.0781,585.4375,470.0781" style="stroke:#181818;stroke-width:1.0;"/><line style="stroke:#181818;stroke-width:1.0;" x1="567.4375" x2="567.4375" y1="362.9844" y2="382.9844"/><polygon fill="#181818" points="563.4375,372.9844,567.4375,382.9844,571.4375,372.9844,567.4375,376.9844" style="stroke:#181818;stroke-width:1.0;"/><line style="stroke:#181818;stroke-width:1.0;" x1="567.4375" x2="567.4375" y1="482.0781" y2="502.0781"/><polygon fill="#181818" points="563.4375,492.0781,567.4375,502.0781,571.4375,492.0781,567.4375,496.0781" style="stroke:#181818;stroke-width:1.0;"/><line style="stroke:#181818;stroke-width:1.0;" x1="286.5" x2="286.5" y1="804.4531" y2="824.4531"/><polygon fill="#181818" points="282.5,814.4531,286.5,824.4531,290.5,814.4531,286.5,818.4531" style="stroke:#181818;stroke-width:1.0;"/><line style="stroke:#181818;stroke-width:1.0;" x1="110.25" x2="69" y1="747.3594" y2="747.3594"/><line style="stroke:#181818;stroke-width:1.0;" x1="69" x2="69" y1="747.3594" y2="769.3594"/><polygon fill="#181818" points="65,759.3594,69,769.3594,73,759.3594,69,763.3594" style="stroke:#181818;stroke-width:1.0;"/><line style="stroke:#181818;stroke-width:1.0;" x1="245.25" x2="286.5" y1="747.3594" y2="747.3594"/><line style="stroke:#181818;stroke-width:1.0;" x1="286.5" x2="286.5" y1="747.3594" y2="769.3594"/><polygon fill="#181818" points="282.5,759.3594,286.5,769.3594,290.5,759.3594,286.5,763.3594" style="stroke:#181818;stroke-width:1.0;"/><line style="stroke:#181818;stroke-width:1.0;" x1="69" x2="69" y1="804.4531" y2="866.4531"/><line style="stroke:#181818;stroke-width:1.0;" x1="69" x2="555.4375" y1="866.4531" y2="866.4531"/><polygon fill="#181818" points="545.4375,862.4531,555.4375,866.4531,545.4375,870.4531,549.4375,866.4531" style="stroke:#181818;stroke-width:1.0;"/><line style="stroke:#181818;stroke-width:1.0;" x1="177.75" x2="177.75" y1="715.3594" y2="735.3594"/><polygon fill="#181818" points="173.75,725.3594,177.75,735.3594,181.75,725.3594,177.75,729.3594" style="stroke:#181818;stroke-width:1.0;"/><line style="stroke:#181818;stroke-width:1.0;" x1="572" x2="572" y1="715.3594" y2="735.3594"/><polygon fill="#181818" points="568,725.3594,572,735.3594,576,725.3594,572,729.3594" style="stroke:#181818;stroke-width:1.0;"/><line style="stroke:#181818;stroke-width:1.0;" x1="320.875" x2="177.75" y1="658.2656" y2="658.2656"/><line style="stroke:#181818;stroke-width:1.0;" x1="177.75" x2="177.75" y1="658.2656" y2="680.2656"/><polygon fill="#181818" points="173.75,670.2656,177.75,680.2656,181.75,670.2656,177.75,674.2656" style="stroke:#181818;stroke-width:1.0;"/><line style="stroke:#181818;stroke-width:1.0;" x1="428.875" x2="572" y1="658.2656" y2="658.2656"/><line style="stroke:#181818;stroke-width:1.0;" x1="572" x2="572" y1="658.2656" y2="680.2656"/><polygon fill="#181818" points="568,670.2656,572,680.2656,576,670.2656,572,674.2656" style="stroke:#181818;stroke-width:1.0;"/><line style="stroke:#181818;stroke-width:1.0;" x1="374.875" x2="374.875" y1="626.2656" y2="646.2656"/><polygon fill="#181818" points="370.875,636.2656,374.875,646.2656,378.875,636.2656,374.875,640.2656" style="stroke:#181818;stroke-width:1.0;"/><line style="stroke:#181818;stroke-width:1.0;" x1="509.4375" x2="374.875" y1="569.1719" y2="569.1719"/><line style="stroke:#181818;stroke-width:1.0;" x1="374.875" x2="374.875" y1="569.1719" y2="591.1719"/><polygon fill="#181818" points="370.875,581.1719,374.875,591.1719,378.875,581.1719,374.875,585.1719" style="stroke:#181818;stroke-width:1.0;"/><line style="stroke:#181818;stroke-width:1.0;" x1="625.4375" x2="760" y1="569.1719" y2="569.1719"/><line style="stroke:#181818;stroke-width:1.0;" x1="760" x2="760" y1="569.1719" y2="591.1719"/><polygon fill="#181818" points="756,581.1719,760,591.1719,764,581.1719,760,585.1719" style="stroke:#181818;stroke-width:1.0;"/><line style="stroke:#181818;stroke-width:1.0;" x1="760" x2="760" y1="626.2656" y2="866.4531"/><line style="stroke:#181818;stroke-width:1.0;" x1="760" x2="579.4375" y1="866.4531" y2="866.4531"/><polygon fill="#181818" points="589.4375,862.4531,579.4375,866.4531,589.4375,870.4531,585.4375,866.4531" style="stroke:#181818;stroke-width:1.0;"/><line style="stroke:#181818;stroke-width:1.0;" x1="567.4375" x2="567.4375" y1="537.1719" y2="557.1719"/><polygon fill="#181818" points="563.4375,547.1719,567.4375,557.1719,571.4375,547.1719,567.4375,551.1719" style="stroke:#181818;stroke-width:1.0;"/><line style="stroke:#181818;stroke-width:1.0;" x1="567.4375" x2="567.4375" y1="878.4531" y2="898.4531"/><polygon fill="#181818" points="563.4375,888.4531,567.4375,898.4531,571.4375,888.4531,567.4375,892.4531" style="stroke:#181818;stroke-width:1.0;"/><!--MD5=[be79566ef180c9baff0d44ff8b08e3fe]
@startuml 08 - ComprarNoMercadoLivre

title Comprar no Mercado Livre

start

:Seleciona produto;
:Seleciona quantidade;
if (Quantidade disponivel ?) then (sim)
    :Adiciona ao carrinho;
else (não)
    :Retorna mensagem: Quantidade indisponivel;
    end
endif
:Seleciona endereço de entrega;
if (Endereço cadastrado ?) then (sim)
    :Confirma endereço;
else (não)
    :Cadastra endereço;
endif
:Seleciona forma de pagamento;
if (Cartão de crédito ?) then (sim)
    :Digita dados do cartão;
    if (Dados corretos ?) then (sim)
        :Confirma pagamento;
        if (Pagamento aprovado ?) then (sim)
            :Confirma compra;
        else (não)
            :Retorna mensagem: Pagamento não aprovado;
            end
        endif
    else (não)
        :Retorna mensagem: Dados incorretos;
        end
    endif
else (não)
    :Gera boleto;
endif

stop

@enduml

PlantUML version 1.2022.7(Mon Aug 22 14:01:30 BRT 2022)
(GPL source distribution)
Java Runtime: OpenJDK Runtime Environment
JVM: OpenJDK 64-Bit Server VM
Default Encoding: Cp1252
Language: pt
Country: BR
--></g></svg>