<?xml version="1.0" encoding="UTF-8" standalone="no"?><svg xmlns="http://www.w3.org/2000/svg" xmlns:xlink="http://www.w3.org/1999/xlink" contentStyleType="text/css" height="449px" preserveAspectRatio="none" style="width:402px;height:449px;background:#FFFFFF;" version="1.1" viewBox="0 0 402 449" width="402px" zoomAndPan="magnify"><defs/><g><rect fill="none" height="27.6094" id="_title" style="stroke:none;stroke-width:1.0;" width="195" x="102" y="10"/><text fill="#000000" font-family="sans-serif" font-size="14" font-weight="bold" lengthAdjust="spacing" textLength="185" x="107" y="29.5332">Agendamento de Consulta</text><line style="stroke:#181818;stroke-width:0.5;stroke-dasharray:5.0,5.0;" x1="39" x2="39" y1="107.2188" y2="370.0313"/><line style="stroke:#181818;stroke-width:0.5;stroke-dasharray:5.0,5.0;" x1="207" x2="207" y1="107.2188" y2="370.0313"/><line style="stroke:#181818;stroke-width:0.5;stroke-dasharray:5.0,5.0;" x1="367" x2="367" y1="107.2188" y2="370.0313"/><rect fill="#E2E2F0" height="31.6094" rx="2.5" ry="2.5" style="stroke:#181818;stroke-width:0.5;" width="69" x="5" y="74.6094"/><text fill="#000000" font-family="sans-serif" font-size="14" lengthAdjust="spacing" textLength="55" x="12" y="96.1426">Paciente</text><rect fill="#E2E2F0" height="31.6094" rx="2.5" ry="2.5" style="stroke:#181818;stroke-width:0.5;" width="69" x="5" y="369.0313"/><text fill="#000000" font-family="sans-serif" font-size="14" lengthAdjust="spacing" textLength="55" x="12" y="390.5645">Paciente</text><rect fill="#E2E2F0" height="31.6094" rx="2.5" ry="2.5" style="stroke:#181818;stroke-width:0.5;" width="79" x="168" y="74.6094"/><text fill="#000000" font-family="sans-serif" font-size="14" lengthAdjust="spacing" textLength="65" x="175" y="96.1426">Atendente</text><rect fill="#E2E2F0" height="31.6094" rx="2.5" ry="2.5" style="stroke:#181818;stroke-width:0.5;" width="79" x="168" y="369.0313"/><text fill="#000000" font-family="sans-serif" font-size="14" lengthAdjust="spacing" textLength="65" x="175" y="390.5645">Atendente</text><text fill="#000000" font-family="sans-serif" font-size="14" lengthAdjust="spacing" textLength="49" x="340" y="104.1426">Agenda</text><path d="M349.5,53.6094 C349.5,43.6094 367.5,43.6094 367.5,43.6094 C367.5,43.6094 385.5,43.6094 385.5,53.6094 L385.5,79.6094 C385.5,89.6094 367.5,89.6094 367.5,89.6094 C367.5,89.6094 349.5,89.6094 349.5,79.6094 L349.5,53.6094 " fill="#E2E2F0" style="stroke:#181818;stroke-width:1.5;"/><path d="M349.5,53.6094 C349.5,63.6094 367.5,63.6094 367.5,63.6094 C367.5,63.6094 385.5,63.6094 385.5,53.6094 " fill="none" style="stroke:#181818;stroke-width:1.5;"/><text fill="#000000" font-family="sans-serif" font-size="14" lengthAdjust="spacing" textLength="49" x="340" y="383.5645">Agenda</text><path d="M349.5,396.6406 C349.5,386.6406 367.5,386.6406 367.5,386.6406 C367.5,386.6406 385.5,386.6406 385.5,396.6406 L385.5,422.6406 C385.5,432.6406 367.5,432.6406 367.5,432.6406 C367.5,432.6406 349.5,432.6406 349.5,422.6406 L349.5,396.6406 " fill="#E2E2F0" style="stroke:#181818;stroke-width:1.5;"/><path d="M349.5,396.6406 C349.5,406.6406 367.5,406.6406 367.5,406.6406 C367.5,406.6406 385.5,406.6406 385.5,396.6406 " fill="none" style="stroke:#181818;stroke-width:1.5;"/><polygon fill="#181818" points="195.5,135.5703,205.5,139.5703,195.5,143.5703,199.5,139.5703" style="stroke:#181818;stroke-width:1.0;"/><line style="stroke:#181818;stroke-width:1.0;" x1="39.5" x2="201.5" y1="139.5703" y2="139.5703"/><text fill="#000000" font-family="sans-serif" font-size="13" font-weight="bold" lengthAdjust="spacing" textLength="7" x="46.5" y="134.7139">1</text><text fill="#000000" font-family="sans-serif" font-size="13" lengthAdjust="spacing" textLength="125" x="57.5" y="134.7139">Solicita agendamento</text><polygon fill="#181818" points="355.5,165.9219,365.5,169.9219,355.5,173.9219,359.5,169.9219" style="stroke:#181818;stroke-width:1.0;"/><line style="stroke:#181818;stroke-width:1.0;" x1="207.5" x2="361.5" y1="169.9219" y2="169.9219"/><text fill="#000000" font-family="sans-serif" font-size="13" font-weight="bold" lengthAdjust="spacing" textLength="7" x="214.5" y="165.0654">2</text><text fill="#000000" font-family="sans-serif" font-size="13" lengthAdjust="spacing" textLength="87" x="225.5" y="165.0654">Consulta datas</text><polygon fill="#181818" points="218.5,196.2734,208.5,200.2734,218.5,204.2734,214.5,200.2734" style="stroke:#181818;stroke-width:1.0;"/><line style="stroke:#181818;stroke-width:1.0;stroke-dasharray:2.0,2.0;" x1="212.5" x2="366.5" y1="200.2734" y2="200.2734"/><text fill="#000000" font-family="sans-serif" font-size="13" font-weight="bold" lengthAdjust="spacing" textLength="7" x="224.5" y="195.417">3</text><text fill="#000000" font-family="sans-serif" font-size="13" lengthAdjust="spacing" textLength="4" x="235.5" y="195.417"> </text><polygon fill="#181818" points="50.5,226.625,40.5,230.625,50.5,234.625,46.5,230.625" style="stroke:#181818;stroke-width:1.0;"/><line style="stroke:#181818;stroke-width:1.0;stroke-dasharray:2.0,2.0;" x1="44.5" x2="206.5" y1="230.625" y2="230.625"/><text fill="#000000" font-family="sans-serif" font-size="13" font-weight="bold" lengthAdjust="spacing" textLength="7" x="56.5" y="225.7686">4</text><text fill="#000000" font-family="sans-serif" font-size="13" lengthAdjust="spacing" textLength="95" x="67.5" y="225.7686">Apresenta datas</text><polygon fill="#181818" points="195.5,256.9766,205.5,260.9766,195.5,264.9766,199.5,260.9766" style="stroke:#181818;stroke-width:1.0;"/><line style="stroke:#181818;stroke-width:1.0;" x1="39.5" x2="201.5" y1="260.9766" y2="260.9766"/><text fill="#000000" font-family="sans-serif" font-size="13" font-weight="bold" lengthAdjust="spacing" textLength="7" x="46.5" y="256.1201">5</text><text fill="#000000" font-family="sans-serif" font-size="13" lengthAdjust="spacing" textLength="76" x="57.5" y="256.1201">Escolhe data</text><polygon fill="#181818" points="355.5,287.3281,365.5,291.3281,355.5,295.3281,359.5,291.3281" style="stroke:#181818;stroke-width:1.0;"/><line style="stroke:#181818;stroke-width:1.0;" x1="207.5" x2="361.5" y1="291.3281" y2="291.3281"/><text fill="#000000" font-family="sans-serif" font-size="13" font-weight="bold" lengthAdjust="spacing" textLength="7" x="214.5" y="286.4717">6</text><text fill="#000000" font-family="sans-serif" font-size="13" lengthAdjust="spacing" textLength="125" x="225.5" y="286.4717">Realiza agendamento</text><polygon fill="#181818" points="218.5,317.6797,208.5,321.6797,218.5,325.6797,214.5,321.6797" style="stroke:#181818;stroke-width:1.0;"/><line style="stroke:#181818;stroke-width:1.0;stroke-dasharray:2.0,2.0;" x1="212.5" x2="366.5" y1="321.6797" y2="321.6797"/><text fill="#000000" font-family="sans-serif" font-size="13" font-weight="bold" lengthAdjust="spacing" textLength="7" x="224.5" y="316.8232">7</text><text fill="#000000" font-family="sans-serif" font-size="13" lengthAdjust="spacing" textLength="4" x="235.5" y="316.8232"> </text><polygon fill="#181818" points="50.5,348.0313,40.5,352.0313,50.5,356.0313,46.5,352.0313" style="stroke:#181818;stroke-width:1.0;"/><line style="stroke:#181818;stroke-width:1.0;stroke-dasharray:2.0,2.0;" x1="44.5" x2="206.5" y1="352.0313" y2="352.0313"/><text fill="#000000" font-family="sans-serif" font-size="13" font-weight="bold" lengthAdjust="spacing" textLength="7" x="56.5" y="347.1748">8</text><text fill="#000000" font-family="sans-serif" font-size="13" lengthAdjust="spacing" textLength="133" x="67.5" y="347.1748">Confirma agendamento</text><!--MD5=[a6f1e8e40c7338662fdbe90fd0ba6b93]
@startuml 01 - Agendamento de Consulta

title Agendamento de Consulta

participant Paciente
participant Atendente
database Agenda

autonumber
Paciente -> Atendente: Solicita agendamento
Atendente -> Agenda: Consulta datas
Agenda - -> Atendente: 
Atendente - -> Paciente: Apresenta datas
Paciente -> Atendente: Escolhe data
Atendente -> Agenda: Realiza agendamento
Agenda - -> Atendente: 
Atendente - -> Paciente: Confirma agendamento

@enduml

PlantUML version 1.2022.7(Mon Aug 22 14:01:30 BRT 2022)
(GPL source distribution)
Java Runtime: OpenJDK Runtime Environment
JVM: OpenJDK 64-Bit Server VM
Default Encoding: Cp1252
Language: pt
Country: BR
--></g></svg>