<?xml version="1.0" encoding="UTF-8" standalone="no"?><svg xmlns="http://www.w3.org/2000/svg" xmlns:xlink="http://www.w3.org/1999/xlink" contentStyleType="text/css" height="388px" preserveAspectRatio="none" style="width:433px;height:388px;background:#FFFFFF;" version="1.1" viewBox="0 0 433 388" width="433px" zoomAndPan="magnify"><defs/><g><rect fill="none" height="27.6094" id="_title" style="stroke:none;stroke-width:1.0;" width="164" x="130.5" y="10"/><text fill="#000000" font-family="sans-serif" font-size="14" font-weight="bold" lengthAdjust="spacing" textLength="154" x="135.5" y="29.5332">Totem Consulta Preço</text><line style="stroke:#181818;stroke-width:0.5;stroke-dasharray:5.0,5.0;" x1="34" x2="34" y1="107.2188" y2="309.3281"/><line style="stroke:#181818;stroke-width:0.5;stroke-dasharray:5.0,5.0;" x1="165" x2="165" y1="107.2188" y2="309.3281"/><line style="stroke:#181818;stroke-width:0.5;stroke-dasharray:5.0,5.0;" x1="279" x2="279" y1="107.2188" y2="309.3281"/><line style="stroke:#181818;stroke-width:0.5;stroke-dasharray:5.0,5.0;" x1="398" x2="398" y1="107.2188" y2="309.3281"/><rect fill="#E2E2F0" height="31.6094" rx="2.5" ry="2.5" style="stroke:#181818;stroke-width:0.5;" width="58" x="5" y="74.6094"/><text fill="#000000" font-family="sans-serif" font-size="14" lengthAdjust="spacing" textLength="44" x="12" y="96.1426">Cliente</text><rect fill="#E2E2F0" height="31.6094" rx="2.5" ry="2.5" style="stroke:#181818;stroke-width:0.5;" width="58" x="5" y="308.3281"/><text fill="#000000" font-family="sans-serif" font-size="14" lengthAdjust="spacing" textLength="44" x="12" y="329.8613">Cliente</text><rect fill="#E2E2F0" height="31.6094" rx="2.5" ry="2.5" style="stroke:#181818;stroke-width:0.5;" width="54" x="138" y="74.6094"/><text fill="#000000" font-family="sans-serif" font-size="14" lengthAdjust="spacing" textLength="40" x="145" y="96.1426">Totem</text><rect fill="#E2E2F0" height="31.6094" rx="2.5" ry="2.5" style="stroke:#181818;stroke-width:0.5;" width="54" x="138" y="308.3281"/><text fill="#000000" font-family="sans-serif" font-size="14" lengthAdjust="spacing" textLength="40" x="145" y="329.8613">Totem</text><text fill="#000000" font-family="sans-serif" font-size="14" lengthAdjust="spacing" textLength="50" x="251" y="104.1426">Sistema</text><path d="M261,53.6094 C261,43.6094 279,43.6094 279,43.6094 C279,43.6094 297,43.6094 297,53.6094 L297,79.6094 C297,89.6094 279,89.6094 279,89.6094 C279,89.6094 261,89.6094 261,79.6094 L261,53.6094 " fill="#E2E2F0" style="stroke:#181818;stroke-width:1.5;"/><path d="M261,53.6094 C261,63.6094 279,63.6094 279,63.6094 C279,63.6094 297,63.6094 297,53.6094 " fill="none" style="stroke:#181818;stroke-width:1.5;"/><text fill="#000000" font-family="sans-serif" font-size="14" lengthAdjust="spacing" textLength="50" x="251" y="322.8613">Sistema</text><path d="M261,335.9375 C261,325.9375 279,325.9375 279,325.9375 C279,325.9375 297,325.9375 297,335.9375 L297,361.9375 C297,371.9375 279,371.9375 279,371.9375 C279,371.9375 261,371.9375 261,361.9375 L261,335.9375 " fill="#E2E2F0" style="stroke:#181818;stroke-width:1.5;"/><path d="M261,335.9375 C261,345.9375 279,345.9375 279,345.9375 C279,345.9375 297,345.9375 297,335.9375 " fill="none" style="stroke:#181818;stroke-width:1.5;"/><text fill="#000000" font-family="sans-serif" font-size="14" lengthAdjust="spacing" textLength="40" x="375" y="104.1426">Banco</text><path d="M380,53.6094 C380,43.6094 398,43.6094 398,43.6094 C398,43.6094 416,43.6094 416,53.6094 L416,79.6094 C416,89.6094 398,89.6094 398,89.6094 C398,89.6094 380,89.6094 380,79.6094 L380,53.6094 " fill="#E2E2F0" style="stroke:#181818;stroke-width:1.5;"/><path d="M380,53.6094 C380,63.6094 398,63.6094 398,63.6094 C398,63.6094 416,63.6094 416,53.6094 " fill="none" style="stroke:#181818;stroke-width:1.5;"/><text fill="#000000" font-family="sans-serif" font-size="14" lengthAdjust="spacing" textLength="40" x="375" y="322.8613">Banco</text><path d="M380,335.9375 C380,325.9375 398,325.9375 398,325.9375 C398,325.9375 416,325.9375 416,335.9375 L416,361.9375 C416,371.9375 398,371.9375 398,371.9375 C398,371.9375 380,371.9375 380,361.9375 L380,335.9375 " fill="#E2E2F0" style="stroke:#181818;stroke-width:1.5;"/><path d="M380,335.9375 C380,345.9375 398,345.9375 398,345.9375 C398,345.9375 416,345.9375 416,335.9375 " fill="none" style="stroke:#181818;stroke-width:1.5;"/><polygon fill="#181818" points="153,135.5703,163,139.5703,153,143.5703,157,139.5703" style="stroke:#181818;stroke-width:1.0;"/><line style="stroke:#181818;stroke-width:1.0;" x1="34" x2="159" y1="139.5703" y2="139.5703"/><text fill="#000000" font-family="sans-serif" font-size="13" font-weight="bold" lengthAdjust="spacing" textLength="7" x="41" y="134.7139">1</text><text fill="#000000" font-family="sans-serif" font-size="13" lengthAdjust="spacing" textLength="96" x="52" y="134.7139">Escaneia código</text><polygon fill="#181818" points="267,165.9219,277,169.9219,267,173.9219,271,169.9219" style="stroke:#181818;stroke-width:1.0;"/><line style="stroke:#181818;stroke-width:1.0;" x1="165" x2="273" y1="169.9219" y2="169.9219"/><text fill="#000000" font-family="sans-serif" font-size="13" font-weight="bold" lengthAdjust="spacing" textLength="7" x="172" y="165.0654">2</text><text fill="#000000" font-family="sans-serif" font-size="13" lengthAdjust="spacing" textLength="79" x="183" y="165.0654">Passa código</text><polygon fill="#181818" points="386,196.2734,396,200.2734,386,204.2734,390,200.2734" style="stroke:#181818;stroke-width:1.0;"/><line style="stroke:#181818;stroke-width:1.0;" x1="279" x2="392" y1="200.2734" y2="200.2734"/><text fill="#000000" font-family="sans-serif" font-size="13" font-weight="bold" lengthAdjust="spacing" textLength="7" x="286" y="195.417">3</text><text fill="#000000" font-family="sans-serif" font-size="13" lengthAdjust="spacing" textLength="78" x="297" y="195.417">Valida código</text><polygon fill="#181818" points="290,226.625,280,230.625,290,234.625,286,230.625" style="stroke:#181818;stroke-width:1.0;"/><line style="stroke:#181818;stroke-width:1.0;stroke-dasharray:2.0,2.0;" x1="284" x2="397" y1="230.625" y2="230.625"/><text fill="#000000" font-family="sans-serif" font-size="13" font-weight="bold" lengthAdjust="spacing" textLength="7" x="296" y="225.7686">4</text><text fill="#000000" font-family="sans-serif" font-size="13" lengthAdjust="spacing" textLength="84" x="307" y="225.7686">Retorna dados</text><polygon fill="#181818" points="176,256.9766,166,260.9766,176,264.9766,172,260.9766" style="stroke:#181818;stroke-width:1.0;"/><line style="stroke:#181818;stroke-width:1.0;stroke-dasharray:2.0,2.0;" x1="170" x2="278" y1="260.9766" y2="260.9766"/><text fill="#000000" font-family="sans-serif" font-size="13" font-weight="bold" lengthAdjust="spacing" textLength="7" x="182" y="256.1201">5</text><text fill="#000000" font-family="sans-serif" font-size="13" lengthAdjust="spacing" textLength="70" x="193" y="256.1201">Envia dados</text><polygon fill="#181818" points="45,287.3281,35,291.3281,45,295.3281,41,291.3281" style="stroke:#181818;stroke-width:1.0;"/><line style="stroke:#181818;stroke-width:1.0;stroke-dasharray:2.0,2.0;" x1="39" x2="164" y1="291.3281" y2="291.3281"/><text fill="#000000" font-family="sans-serif" font-size="13" font-weight="bold" lengthAdjust="spacing" textLength="7" x="51" y="286.4717">6</text><text fill="#000000" font-family="sans-serif" font-size="13" lengthAdjust="spacing" textLength="72" x="62" y="286.4717">Exibe dados</text><!--MD5=[96208151a957a0cd2ce3886c70e0f507]
@startuml 02 - Totem Consulta Preço

title Totem Consulta Preço

participant Cliente
participant Totem
database Sistema
database Banco

autonumber
Cliente -> Totem: Escaneia código
Totem -> Sistema: Passa código
Sistema -> Banco: Valida código
Banco - -> Sistema: Retorna dados
Sistema - -> Totem: Envia dados
Totem - -> Cliente: Exibe dados

@enduml

PlantUML version 1.2022.7(Mon Aug 22 14:01:30 BRT 2022)
(GPL source distribution)
Java Runtime: OpenJDK Runtime Environment
JVM: OpenJDK 64-Bit Server VM
Default Encoding: Cp1252
Language: pt
Country: BR
--></g></svg>