<?xml version="1.0" encoding="UTF-8" standalone="no"?><svg xmlns="http://www.w3.org/2000/svg" xmlns:xlink="http://www.w3.org/1999/xlink" contentStyleType="text/css" height="728px" preserveAspectRatio="none" style="width:470px;height:728px;background:#FFFFFF;" version="1.1" viewBox="0 0 470 728" width="470px" zoomAndPan="magnify"><defs/><g><rect fill="none" height="27.6094" id="_title" style="stroke:none;stroke-width:1.0;" width="138" x="167" y="10"/><text fill="#000000" font-family="sans-serif" font-size="14" font-weight="bold" lengthAdjust="spacing" textLength="128" x="172" y="29.5332">Criar Conta Netflix</text><rect fill="none" height="446.5938" style="stroke:#000000;stroke-width:1.5;" width="453" x="10" y="184.9219"/><rect fill="none" height="277" style="stroke:#000000;stroke-width:1.5;" width="433" x="20" y="347.5156"/><line style="stroke:#181818;stroke-width:0.5;stroke-dasharray:5.0,5.0;" x1="61" x2="61" y1="107.2188" y2="648.5156"/><line style="stroke:#181818;stroke-width:0.5;stroke-dasharray:5.0,5.0;" x1="294" x2="294" y1="107.2188" y2="648.5156"/><line style="stroke:#181818;stroke-width:0.5;stroke-dasharray:5.0,5.0;" x1="420" x2="420" y1="107.2188" y2="648.5156"/><rect fill="#E2E2F0" height="31.6094" rx="2.5" ry="2.5" style="stroke:#181818;stroke-width:0.5;" width="62" x="30" y="74.6094"/><text fill="#000000" font-family="sans-serif" font-size="14" lengthAdjust="spacing" textLength="48" x="37" y="96.1426">Usuário</text><rect fill="#E2E2F0" height="31.6094" rx="2.5" ry="2.5" style="stroke:#181818;stroke-width:0.5;" width="62" x="30" y="647.5156"/><text fill="#000000" font-family="sans-serif" font-size="14" lengthAdjust="spacing" textLength="48" x="37" y="669.0488">Usuário</text><text fill="#000000" font-family="sans-serif" font-size="14" lengthAdjust="spacing" textLength="50" x="266" y="104.1426">Sistema</text><path d="M276,53.6094 C276,43.6094 294,43.6094 294,43.6094 C294,43.6094 312,43.6094 312,53.6094 L312,79.6094 C312,89.6094 294,89.6094 294,89.6094 C294,89.6094 276,89.6094 276,79.6094 L276,53.6094 " fill="#E2E2F0" style="stroke:#181818;stroke-width:1.5;"/><path d="M276,53.6094 C276,63.6094 294,63.6094 294,63.6094 C294,63.6094 312,63.6094 312,53.6094 " fill="none" style="stroke:#181818;stroke-width:1.5;"/><text fill="#000000" font-family="sans-serif" font-size="14" lengthAdjust="spacing" textLength="50" x="266" y="662.0488">Sistema</text><path d="M276,675.125 C276,665.125 294,665.125 294,665.125 C294,665.125 312,665.125 312,675.125 L312,701.125 C312,711.125 294,711.125 294,711.125 C294,711.125 276,711.125 276,701.125 L276,675.125 " fill="#E2E2F0" style="stroke:#181818;stroke-width:1.5;"/><path d="M276,675.125 C276,685.125 294,685.125 294,685.125 C294,685.125 312,685.125 312,675.125 " fill="none" style="stroke:#181818;stroke-width:1.5;"/><text fill="#000000" font-family="sans-serif" font-size="14" lengthAdjust="spacing" textLength="40" x="397" y="104.1426">Banco</text><path d="M402,53.6094 C402,43.6094 420,43.6094 420,43.6094 C420,43.6094 438,43.6094 438,53.6094 L438,79.6094 C438,89.6094 420,89.6094 420,89.6094 C420,89.6094 402,89.6094 402,79.6094 L402,53.6094 " fill="#E2E2F0" style="stroke:#181818;stroke-width:1.5;"/><path d="M402,53.6094 C402,63.6094 420,63.6094 420,63.6094 C420,63.6094 438,63.6094 438,53.6094 " fill="none" style="stroke:#181818;stroke-width:1.5;"/><text fill="#000000" font-family="sans-serif" font-size="14" lengthAdjust="spacing" textLength="40" x="397" y="662.0488">Banco</text><path d="M402,675.125 C402,665.125 420,665.125 420,665.125 C420,665.125 438,665.125 438,675.125 L438,701.125 C438,711.125 420,711.125 420,711.125 C420,711.125 402,711.125 402,701.125 L402,675.125 " fill="#E2E2F0" style="stroke:#181818;stroke-width:1.5;"/><path d="M402,675.125 C402,685.125 420,685.125 420,685.125 C420,685.125 438,685.125 438,675.125 " fill="none" style="stroke:#181818;stroke-width:1.5;"/><polygon fill="#181818" points="282,135.5703,292,139.5703,282,143.5703,286,139.5703" style="stroke:#181818;stroke-width:1.0;"/><line style="stroke:#181818;stroke-width:1.0;" x1="61" x2="288" y1="139.5703" y2="139.5703"/><text fill="#000000" font-family="sans-serif" font-size="13" font-weight="bold" lengthAdjust="spacing" textLength="7" x="68" y="134.7139">1</text><text fill="#000000" font-family="sans-serif" font-size="13" lengthAdjust="spacing" textLength="74" x="79" y="134.7139">Insere e-mail</text><polygon fill="#181818" points="408,165.9219,418,169.9219,408,173.9219,412,169.9219" style="stroke:#181818;stroke-width:1.0;"/><line style="stroke:#181818;stroke-width:1.0;" x1="294" x2="414" y1="169.9219" y2="169.9219"/><text fill="#000000" font-family="sans-serif" font-size="13" font-weight="bold" lengthAdjust="spacing" textLength="7" x="301" y="165.0654">2</text><text fill="#000000" font-family="sans-serif" font-size="13" lengthAdjust="spacing" textLength="90" x="312" y="165.0654">Consulta e-mail</text><path d="M10,184.9219 L71,184.9219 L71,193.2734 L61,203.2734 L10,203.2734 L10,184.9219 " fill="#EEEEEE" style="stroke:#000000;stroke-width:1.5;"/><rect fill="none" height="446.5938" style="stroke:#000000;stroke-width:1.5;" width="453" x="10" y="184.9219"/><text fill="#000000" font-family="sans-serif" font-size="13" font-weight="bold" lengthAdjust="spacing" textLength="16" x="25" y="199.417">alt</text><text fill="#000000" font-family="sans-serif" font-size="11" font-weight="bold" lengthAdjust="spacing" textLength="87" x="86" y="198.3408">[email ja existe]</text><polygon fill="#181818" points="305,221.625,295,225.625,305,229.625,301,225.625" style="stroke:#181818;stroke-width:1.0;"/><line style="stroke:#181818;stroke-width:1.0;stroke-dasharray:2.0,2.0;" x1="299" x2="419" y1="225.625" y2="225.625"/><text fill="#000000" font-family="sans-serif" font-size="13" font-weight="bold" lengthAdjust="spacing" textLength="7" x="311" y="220.7686">3</text><text fill="#000000" font-family="sans-serif" font-size="13" lengthAdjust="spacing" textLength="84" x="322" y="220.7686">Retorna dados</text><polygon fill="#181818" points="72,251.9766,62,255.9766,72,259.9766,68,255.9766" style="stroke:#181818;stroke-width:1.0;"/><line style="stroke:#181818;stroke-width:1.0;stroke-dasharray:2.0,2.0;" x1="66" x2="293" y1="255.9766" y2="255.9766"/><text fill="#000000" font-family="sans-serif" font-size="13" font-weight="bold" lengthAdjust="spacing" textLength="7" x="78" y="251.1201">4</text><text fill="#000000" font-family="sans-serif" font-size="13" lengthAdjust="spacing" textLength="198" x="89" y="251.1201">Exibe mensagem recuperar senha</text><line style="stroke:#000000;stroke-width:1.0;stroke-dasharray:2.0,2.0;" x1="10" x2="463" y1="264.9766" y2="264.9766"/><text fill="#000000" font-family="sans-serif" font-size="11" font-weight="bold" lengthAdjust="spacing" textLength="98" x="15" y="276.3955">[email não existe]</text><polygon fill="#181818" points="305,298.1641,295,302.1641,305,306.1641,301,302.1641" style="stroke:#181818;stroke-width:1.0;"/><line style="stroke:#181818;stroke-width:1.0;stroke-dasharray:2.0,2.0;" x1="299" x2="419" y1="302.1641" y2="302.1641"/><text fill="#000000" font-family="sans-serif" font-size="13" font-weight="bold" lengthAdjust="spacing" textLength="7" x="311" y="297.3076">5</text><text fill="#000000" font-family="sans-serif" font-size="13" lengthAdjust="spacing" textLength="84" x="322" y="297.3076">Retorna dados</text><polygon fill="#181818" points="72,328.5156,62,332.5156,72,336.5156,68,332.5156" style="stroke:#181818;stroke-width:1.0;"/><line style="stroke:#181818;stroke-width:1.0;stroke-dasharray:2.0,2.0;" x1="66" x2="293" y1="332.5156" y2="332.5156"/><text fill="#000000" font-family="sans-serif" font-size="13" font-weight="bold" lengthAdjust="spacing" textLength="7" x="78" y="327.6592">6</text><text fill="#000000" font-family="sans-serif" font-size="13" lengthAdjust="spacing" textLength="99" x="89" y="327.6592">Exibe solicitação</text><path d="M20,347.5156 L81,347.5156 L81,355.8672 L71,365.8672 L20,365.8672 L20,347.5156 " fill="#EEEEEE" style="stroke:#000000;stroke-width:1.5;"/><rect fill="none" height="277" style="stroke:#000000;stroke-width:1.5;" width="433" x="20" y="347.5156"/><text fill="#000000" font-family="sans-serif" font-size="13" font-weight="bold" lengthAdjust="spacing" textLength="16" x="35" y="362.0107">alt</text><text fill="#000000" font-family="sans-serif" font-size="11" font-weight="bold" lengthAdjust="spacing" textLength="94" x="96" y="360.9346">[dados inválidos]</text><polygon fill="#181818" points="282,384.2188,292,388.2188,282,392.2188,286,388.2188" style="stroke:#181818;stroke-width:1.0;"/><line style="stroke:#181818;stroke-width:1.0;" x1="61" x2="288" y1="388.2188" y2="388.2188"/><text fill="#000000" font-family="sans-serif" font-size="13" font-weight="bold" lengthAdjust="spacing" textLength="7" x="68" y="383.3623">7</text><text fill="#000000" font-family="sans-serif" font-size="13" lengthAdjust="spacing" textLength="74" x="79" y="383.3623">Insere dados</text><polygon fill="#181818" points="408,414.5703,418,418.5703,408,422.5703,412,418.5703" style="stroke:#181818;stroke-width:1.0;"/><line style="stroke:#181818;stroke-width:1.0;" x1="294" x2="414" y1="418.5703" y2="418.5703"/><text fill="#000000" font-family="sans-serif" font-size="13" font-weight="bold" lengthAdjust="spacing" textLength="7" x="301" y="413.7139">8</text><text fill="#000000" font-family="sans-serif" font-size="13" lengthAdjust="spacing" textLength="75" x="312" y="413.7139">Valida dados</text><polygon fill="#181818" points="305,444.9219,295,448.9219,305,452.9219,301,448.9219" style="stroke:#181818;stroke-width:1.0;"/><line style="stroke:#181818;stroke-width:1.0;stroke-dasharray:2.0,2.0;" x1="299" x2="419" y1="448.9219" y2="448.9219"/><text fill="#000000" font-family="sans-serif" font-size="13" font-weight="bold" lengthAdjust="spacing" textLength="7" x="311" y="444.0654">9</text><text fill="#000000" font-family="sans-serif" font-size="13" lengthAdjust="spacing" textLength="84" x="322" y="444.0654">Retorna dados</text><polygon fill="#181818" points="72,475.2734,62,479.2734,72,483.2734,68,479.2734" style="stroke:#181818;stroke-width:1.0;"/><line style="stroke:#181818;stroke-width:1.0;stroke-dasharray:2.0,2.0;" x1="66" x2="293" y1="479.2734" y2="479.2734"/><text fill="#000000" font-family="sans-serif" font-size="13" font-weight="bold" lengthAdjust="spacing" textLength="14" x="78" y="474.417">10</text><text fill="#000000" font-family="sans-serif" font-size="13" lengthAdjust="spacing" textLength="145" x="96" y="474.417">Exibe mensagem de erro</text><line style="stroke:#000000;stroke-width:1.0;stroke-dasharray:2.0,2.0;" x1="20" x2="453" y1="488.2734" y2="488.2734"/><text fill="#000000" font-family="sans-serif" font-size="11" font-weight="bold" lengthAdjust="spacing" textLength="84" x="25" y="499.6924">[dados válidos]</text><polygon fill="#181818" points="282,521.4609,292,525.4609,282,529.4609,286,525.4609" style="stroke:#181818;stroke-width:1.0;"/><line style="stroke:#181818;stroke-width:1.0;" x1="61" x2="288" y1="525.4609" y2="525.4609"/><text fill="#000000" font-family="sans-serif" font-size="13" font-weight="bold" lengthAdjust="spacing" textLength="14" x="68" y="520.6045">11</text><text fill="#000000" font-family="sans-serif" font-size="13" lengthAdjust="spacing" textLength="74" x="86" y="520.6045">Insere dados</text><polygon fill="#181818" points="408,551.8125,418,555.8125,408,559.8125,412,555.8125" style="stroke:#181818;stroke-width:1.0;"/><line style="stroke:#181818;stroke-width:1.0;" x1="294" x2="414" y1="555.8125" y2="555.8125"/><text fill="#000000" font-family="sans-serif" font-size="13" font-weight="bold" lengthAdjust="spacing" textLength="14" x="301" y="550.9561">12</text><text fill="#000000" font-family="sans-serif" font-size="13" lengthAdjust="spacing" textLength="75" x="319" y="550.9561">Valida dados</text><polygon fill="#181818" points="305,582.1641,295,586.1641,305,590.1641,301,586.1641" style="stroke:#181818;stroke-width:1.0;"/><line style="stroke:#181818;stroke-width:1.0;stroke-dasharray:2.0,2.0;" x1="299" x2="419" y1="586.1641" y2="586.1641"/><text fill="#000000" font-family="sans-serif" font-size="13" font-weight="bold" lengthAdjust="spacing" textLength="14" x="311" y="581.3076">13</text><text fill="#000000" font-family="sans-serif" font-size="13" lengthAdjust="spacing" textLength="84" x="329" y="581.3076">Retorna dados</text><polygon fill="#181818" points="72,612.5156,62,616.5156,72,620.5156,68,616.5156" style="stroke:#181818;stroke-width:1.0;"/><line style="stroke:#181818;stroke-width:1.0;stroke-dasharray:2.0,2.0;" x1="66" x2="293" y1="616.5156" y2="616.5156"/><text fill="#000000" font-family="sans-serif" font-size="13" font-weight="bold" lengthAdjust="spacing" textLength="14" x="78" y="611.6592">14</text><text fill="#000000" font-family="sans-serif" font-size="13" lengthAdjust="spacing" textLength="178" x="96" y="611.6592">Exibe mensagem de concluído</text><!--MD5=[23fd53f7495ed4cb4db50f0dfd1a2e2e]
@startuml 03 - Criar Conta Netflix

title Criar Conta Netflix

participant Usuário
database Sistema
database Banco

autonumber
Usuário -> Sistema: Insere e-mail
Sistema -> Banco: Consulta e-mail
alt email ja existe
    Banco - -> Sistema: Retorna dados
    Sistema - -> Usuário: Exibe mensagem recuperar senha
else email não existe
    Banco - -> Sistema: Retorna dados
    Sistema - -> Usuário: Exibe solicitação
alt dados inválidos
    Usuário -> Sistema: Insere dados
    Sistema -> Banco: Valida dados
    Banco - -> Sistema: Retorna dados
    Sistema - -> Usuário: Exibe mensagem de erro
else dados válidos
    Usuário -> Sistema: Insere dados
    Sistema -> Banco: Valida dados
    Banco - -> Sistema: Retorna dados
    Sistema - -> Usuário: Exibe mensagem de concluído
end
end

@enduml

PlantUML version 1.2022.7(Mon Aug 22 14:01:30 BRT 2022)
(GPL source distribution)
Java Runtime: OpenJDK Runtime Environment
JVM: OpenJDK 64-Bit Server VM
Default Encoding: Cp1252
Language: pt
Country: BR
--></g></svg>