<?xml version="1.0" encoding="UTF-8" standalone="no"?><svg xmlns="http://www.w3.org/2000/svg" xmlns:xlink="http://www.w3.org/1999/xlink" contentStyleType="text/css" height="497px" preserveAspectRatio="none" style="width:384px;height:497px;background:#FFFFFF;" version="1.1" viewBox="0 0 384 497" width="384px" zoomAndPan="magnify"><defs/><g><rect fill="none" height="27.6094" id="_title" style="stroke:none;stroke-width:1.0;" width="100" x="141" y="10"/><text fill="#000000" font-family="sans-serif" font-size="14" font-weight="bold" lengthAdjust="spacing" textLength="90" x="146" y="29.5332">Comprar Pão</text><rect fill="none" height="125.2422" style="stroke:#000000;stroke-width:1.5;" width="252.5" x="10" y="275.9766"/><line style="stroke:#181818;stroke-width:0.5;stroke-dasharray:5.0,5.0;" x1="49" x2="49" y1="107.2188" y2="418.2188"/><line style="stroke:#181818;stroke-width:0.5;stroke-dasharray:5.0,5.0;" x1="212.5" x2="212.5" y1="107.2188" y2="418.2188"/><line style="stroke:#181818;stroke-width:0.5;stroke-dasharray:5.0,5.0;" x1="349" x2="349" y1="107.2188" y2="418.2188"/><rect fill="#E2E2F0" height="31.6094" rx="2.5" ry="2.5" style="stroke:#181818;stroke-width:0.5;" width="58" x="20" y="74.6094"/><text fill="#000000" font-family="sans-serif" font-size="14" lengthAdjust="spacing" textLength="44" x="27" y="96.1426">Cliente</text><rect fill="#E2E2F0" height="31.6094" rx="2.5" ry="2.5" style="stroke:#181818;stroke-width:0.5;" width="58" x="20" y="417.2188"/><text fill="#000000" font-family="sans-serif" font-size="14" lengthAdjust="spacing" textLength="44" x="27" y="438.752">Cliente</text><rect fill="#E2E2F0" height="31.6094" rx="2.5" ry="2.5" style="stroke:#181818;stroke-width:0.5;" width="79" x="173.5" y="74.6094"/><text fill="#000000" font-family="sans-serif" font-size="14" lengthAdjust="spacing" textLength="65" x="180.5" y="96.1426">Atendente</text><rect fill="#E2E2F0" height="31.6094" rx="2.5" ry="2.5" style="stroke:#181818;stroke-width:0.5;" width="79" x="173.5" y="417.2188"/><text fill="#000000" font-family="sans-serif" font-size="14" lengthAdjust="spacing" textLength="65" x="180.5" y="438.752">Atendente</text><text fill="#000000" font-family="sans-serif" font-size="14" lengthAdjust="spacing" textLength="52" x="320" y="104.1426">Estoque</text><path d="M331,53.6094 C331,43.6094 349,43.6094 349,43.6094 C349,43.6094 367,43.6094 367,53.6094 L367,79.6094 C367,89.6094 349,89.6094 349,89.6094 C349,89.6094 331,89.6094 331,79.6094 L331,53.6094 " fill="#E2E2F0" style="stroke:#181818;stroke-width:1.5;"/><path d="M331,53.6094 C331,63.6094 349,63.6094 349,63.6094 C349,63.6094 367,63.6094 367,53.6094 " fill="none" style="stroke:#181818;stroke-width:1.5;"/><text fill="#000000" font-family="sans-serif" font-size="14" lengthAdjust="spacing" textLength="52" x="320" y="431.752">Estoque</text><path d="M331,444.8281 C331,434.8281 349,434.8281 349,434.8281 C349,434.8281 367,434.8281 367,444.8281 L367,470.8281 C367,480.8281 349,480.8281 349,480.8281 C349,480.8281 331,480.8281 331,470.8281 L331,444.8281 " fill="#E2E2F0" style="stroke:#181818;stroke-width:1.5;"/><path d="M331,444.8281 C331,454.8281 349,454.8281 349,454.8281 C349,454.8281 367,454.8281 367,444.8281 " fill="none" style="stroke:#181818;stroke-width:1.5;"/><polygon fill="#181818" points="201,135.5703,211,139.5703,201,143.5703,205,139.5703" style="stroke:#181818;stroke-width:1.0;"/><line style="stroke:#181818;stroke-width:1.0;" x1="49" x2="207" y1="139.5703" y2="139.5703"/><text fill="#000000" font-family="sans-serif" font-size="13" font-weight="bold" lengthAdjust="spacing" textLength="7" x="56" y="134.7139">1</text><text fill="#000000" font-family="sans-serif" font-size="13" lengthAdjust="spacing" textLength="68" x="67" y="134.7139">Solicita pão</text><polygon fill="#181818" points="337,165.9219,347,169.9219,337,173.9219,341,169.9219" style="stroke:#181818;stroke-width:1.0;"/><line style="stroke:#181818;stroke-width:1.0;" x1="213" x2="343" y1="169.9219" y2="169.9219"/><text fill="#000000" font-family="sans-serif" font-size="13" font-weight="bold" lengthAdjust="spacing" textLength="7" x="220" y="165.0654">2</text><text fill="#000000" font-family="sans-serif" font-size="13" lengthAdjust="spacing" textLength="101" x="231" y="165.0654">Consulta estoque</text><polygon fill="#181818" points="224,196.2734,214,200.2734,224,204.2734,220,200.2734" style="stroke:#181818;stroke-width:1.0;"/><line style="stroke:#181818;stroke-width:1.0;stroke-dasharray:2.0,2.0;" x1="218" x2="348" y1="200.2734" y2="200.2734"/><text fill="#000000" font-family="sans-serif" font-size="13" font-weight="bold" lengthAdjust="spacing" textLength="7" x="230" y="195.417">3</text><text fill="#000000" font-family="sans-serif" font-size="13" lengthAdjust="spacing" textLength="4" x="241" y="195.417"> </text><polygon fill="#181818" points="60,226.625,50,230.625,60,234.625,56,230.625" style="stroke:#181818;stroke-width:1.0;"/><line style="stroke:#181818;stroke-width:1.0;stroke-dasharray:2.0,2.0;" x1="54" x2="212" y1="230.625" y2="230.625"/><text fill="#000000" font-family="sans-serif" font-size="13" font-weight="bold" lengthAdjust="spacing" textLength="7" x="66" y="225.7686">4</text><text fill="#000000" font-family="sans-serif" font-size="13" lengthAdjust="spacing" textLength="129" x="77" y="225.7686">Informa se tem ou não</text><polygon fill="#181818" points="201,256.9766,211,260.9766,201,264.9766,205,260.9766" style="stroke:#181818;stroke-width:1.0;"/><line style="stroke:#181818;stroke-width:1.0;" x1="49" x2="207" y1="260.9766" y2="260.9766"/><text fill="#000000" font-family="sans-serif" font-size="13" font-weight="bold" lengthAdjust="spacing" textLength="7" x="56" y="256.1201">5</text><text fill="#000000" font-family="sans-serif" font-size="13" lengthAdjust="spacing" textLength="105" x="67" y="256.1201">Decide se compra</text><path d="M10,275.9766 L71,275.9766 L71,284.3281 L61,294.3281 L10,294.3281 L10,275.9766 " fill="#EEEEEE" style="stroke:#000000;stroke-width:1.5;"/><rect fill="none" height="125.2422" style="stroke:#000000;stroke-width:1.5;" width="252.5" x="10" y="275.9766"/><text fill="#000000" font-family="sans-serif" font-size="13" font-weight="bold" lengthAdjust="spacing" textLength="16" x="25" y="290.4717">alt</text><text fill="#000000" font-family="sans-serif" font-size="11" font-weight="bold" lengthAdjust="spacing" textLength="50" x="86" y="289.3955">[compra]</text><polygon fill="#181818" points="60,312.6797,50,316.6797,60,320.6797,56,316.6797" style="stroke:#181818;stroke-width:1.0;"/><line style="stroke:#181818;stroke-width:1.0;" x1="54" x2="212" y1="316.6797" y2="316.6797"/><text fill="#000000" font-family="sans-serif" font-size="13" font-weight="bold" lengthAdjust="spacing" textLength="7" x="66" y="311.8232">6</text><text fill="#000000" font-family="sans-serif" font-size="13" lengthAdjust="spacing" textLength="80" x="77" y="311.8232">Realiza venda</text><polygon fill="#181818" points="201,343.0313,211,347.0313,201,351.0313,205,347.0313" style="stroke:#181818;stroke-width:1.0;"/><line style="stroke:#181818;stroke-width:1.0;" x1="49" x2="207" y1="347.0313" y2="347.0313"/><text fill="#000000" font-family="sans-serif" font-size="13" font-weight="bold" lengthAdjust="spacing" textLength="7" x="56" y="342.1748">7</text><text fill="#000000" font-family="sans-serif" font-size="13" lengthAdjust="spacing" textLength="30" x="67" y="342.1748">Paga</text><line style="stroke:#000000;stroke-width:1.0;stroke-dasharray:2.0,2.0;" x1="10" x2="262.5" y1="356.0313" y2="356.0313"/><text fill="#000000" font-family="sans-serif" font-size="11" font-weight="bold" lengthAdjust="spacing" textLength="73" x="15" y="367.4502">[não compra]</text><polygon fill="#181818" points="60,389.2188,50,393.2188,60,397.2188,56,393.2188" style="stroke:#181818;stroke-width:1.0;"/><line style="stroke:#181818;stroke-width:1.0;stroke-dasharray:2.0,2.0;" x1="54" x2="212" y1="393.2188" y2="393.2188"/><text fill="#000000" font-family="sans-serif" font-size="13" font-weight="bold" lengthAdjust="spacing" textLength="7" x="66" y="388.3623">8</text><text fill="#000000" font-family="sans-serif" font-size="13" lengthAdjust="spacing" textLength="4" x="77" y="388.3623"> </text><!--MD5=[1749399d75ebc97557c37b88f790e22f]
@startuml 04 - Comprar Pão

title Comprar Pão

participant Cliente
participant Atendente
database Estoque

autonumber
Cliente -> Atendente: Solicita pão
Atendente -> Estoque: Consulta estoque
Estoque - -> Atendente:
Atendente - -> Cliente: Informa se tem ou não
Cliente -> Atendente: Decide se compra
alt compra
    Atendente -> Cliente: Realiza venda
    Cliente -> Atendente: Paga
else não compra
    Atendente - -> Cliente: 
end

@enduml

PlantUML version 1.2022.7(Mon Aug 22 14:01:30 BRT 2022)
(GPL source distribution)
Java Runtime: OpenJDK Runtime Environment
JVM: OpenJDK 64-Bit Server VM
Default Encoding: Cp1252
Language: pt
Country: BR
--></g></svg>