<?xml version="1.0" encoding="UTF-8" standalone="no"?><svg xmlns="http://www.w3.org/2000/svg" xmlns:xlink="http://www.w3.org/1999/xlink" contentStyleType="text/css" height="541px" preserveAspectRatio="none" style="width:303px;height:541px;background:#FFFFFF;" version="1.1" viewBox="0 0 303 541" width="303px" zoomAndPan="magnify"><defs/><g><rect fill="none" height="27.6094" id="_title" style="stroke:none;stroke-width:1.0;" width="164" x="70.5" y="10"/><text fill="#000000" font-family="sans-serif" font-size="14" font-weight="bold" lengthAdjust="spacing" textLength="154" x="75.5" y="29.5332">Postar Foto Instagram</text><rect fill="none" height="290" style="stroke:#000000;stroke-width:1.5;" width="286" x="10" y="154.5703"/><line style="stroke:#181818;stroke-width:0.5;stroke-dasharray:5.0,5.0;" x1="51" x2="51" y1="107.2188" y2="461.5703"/><line style="stroke:#181818;stroke-width:0.5;stroke-dasharray:5.0,5.0;" x1="158" x2="158" y1="107.2188" y2="461.5703"/><line style="stroke:#181818;stroke-width:0.5;stroke-dasharray:5.0,5.0;" x1="263" x2="263" y1="107.2188" y2="461.5703"/><rect fill="#E2E2F0" height="31.6094" rx="2.5" ry="2.5" style="stroke:#181818;stroke-width:0.5;" width="62" x="20" y="74.6094"/><text fill="#000000" font-family="sans-serif" font-size="14" lengthAdjust="spacing" textLength="48" x="27" y="96.1426">Usuário</text><rect fill="#E2E2F0" height="31.6094" rx="2.5" ry="2.5" style="stroke:#181818;stroke-width:0.5;" width="62" x="20" y="460.5703"/><text fill="#000000" font-family="sans-serif" font-size="14" lengthAdjust="spacing" textLength="48" x="27" y="482.1035">Usuário</text><rect fill="#E2E2F0" height="31.6094" rx="2.5" ry="2.5" style="stroke:#181818;stroke-width:0.5;" width="64" x="126" y="74.6094"/><text fill="#000000" font-family="sans-serif" font-size="14" lengthAdjust="spacing" textLength="50" x="133" y="96.1426">Sistema</text><rect fill="#E2E2F0" height="31.6094" rx="2.5" ry="2.5" style="stroke:#181818;stroke-width:0.5;" width="64" x="126" y="460.5703"/><text fill="#000000" font-family="sans-serif" font-size="14" lengthAdjust="spacing" textLength="50" x="133" y="482.1035">Sistema</text><text fill="#000000" font-family="sans-serif" font-size="14" lengthAdjust="spacing" textLength="40" x="240" y="104.1426">Banco</text><path d="M245,53.6094 C245,43.6094 263,43.6094 263,43.6094 C263,43.6094 281,43.6094 281,53.6094 L281,79.6094 C281,89.6094 263,89.6094 263,89.6094 C263,89.6094 245,89.6094 245,79.6094 L245,53.6094 " fill="#E2E2F0" style="stroke:#181818;stroke-width:1.5;"/><path d="M245,53.6094 C245,63.6094 263,63.6094 263,63.6094 C263,63.6094 281,63.6094 281,53.6094 " fill="none" style="stroke:#181818;stroke-width:1.5;"/><text fill="#000000" font-family="sans-serif" font-size="14" lengthAdjust="spacing" textLength="40" x="240" y="475.1035">Banco</text><path d="M245,488.1797 C245,478.1797 263,478.1797 263,478.1797 C263,478.1797 281,478.1797 281,488.1797 L281,514.1797 C281,524.1797 263,524.1797 263,524.1797 C263,524.1797 245,524.1797 245,514.1797 L245,488.1797 " fill="#E2E2F0" style="stroke:#181818;stroke-width:1.5;"/><path d="M245,488.1797 C245,498.1797 263,498.1797 263,498.1797 C263,498.1797 281,498.1797 281,488.1797 " fill="none" style="stroke:#181818;stroke-width:1.5;"/><polygon fill="#181818" points="146,135.5703,156,139.5703,146,143.5703,150,139.5703" style="stroke:#181818;stroke-width:1.0;"/><line style="stroke:#181818;stroke-width:1.0;" x1="51" x2="152" y1="139.5703" y2="139.5703"/><text fill="#000000" font-family="sans-serif" font-size="13" font-weight="bold" lengthAdjust="spacing" textLength="7" x="58" y="134.7139">1</text><text fill="#000000" font-family="sans-serif" font-size="13" lengthAdjust="spacing" textLength="72" x="69" y="134.7139">Escolhe foto</text><path d="M10,154.5703 L71,154.5703 L71,162.9219 L61,172.9219 L10,172.9219 L10,154.5703 " fill="#EEEEEE" style="stroke:#000000;stroke-width:1.5;"/><rect fill="none" height="290" style="stroke:#000000;stroke-width:1.5;" width="286" x="10" y="154.5703"/><text fill="#000000" font-family="sans-serif" font-size="13" font-weight="bold" lengthAdjust="spacing" textLength="16" x="25" y="169.0654">alt</text><text fill="#000000" font-family="sans-serif" font-size="11" font-weight="bold" lengthAdjust="spacing" textLength="85" x="86" y="167.9893">[foto existente]</text><polygon fill="#181818" points="251,191.2734,261,195.2734,251,199.2734,255,195.2734" style="stroke:#181818;stroke-width:1.0;"/><line style="stroke:#181818;stroke-width:1.0;" x1="158" x2="257" y1="195.2734" y2="195.2734"/><text fill="#000000" font-family="sans-serif" font-size="13" font-weight="bold" lengthAdjust="spacing" textLength="7" x="165" y="190.417">2</text><text fill="#000000" font-family="sans-serif" font-size="13" lengthAdjust="spacing" textLength="61" x="176" y="190.417">Valida foto</text><polygon fill="#181818" points="169,221.625,159,225.625,169,229.625,165,225.625" style="stroke:#181818;stroke-width:1.0;"/><line style="stroke:#181818;stroke-width:1.0;stroke-dasharray:2.0,2.0;" x1="163" x2="262" y1="225.625" y2="225.625"/><text fill="#000000" font-family="sans-serif" font-size="13" font-weight="bold" lengthAdjust="spacing" textLength="7" x="175" y="220.7686">3</text><text fill="#000000" font-family="sans-serif" font-size="13" lengthAdjust="spacing" textLength="70" x="186" y="220.7686">Retorna foto</text><polygon fill="#181818" points="62,251.9766,52,255.9766,62,259.9766,58,255.9766" style="stroke:#181818;stroke-width:1.0;"/><line style="stroke:#181818;stroke-width:1.0;stroke-dasharray:2.0,2.0;" x1="56" x2="157" y1="255.9766" y2="255.9766"/><text fill="#000000" font-family="sans-serif" font-size="13" font-weight="bold" lengthAdjust="spacing" textLength="7" x="68" y="251.1201">4</text><text fill="#000000" font-family="sans-serif" font-size="13" lengthAdjust="spacing" textLength="58" x="79" y="251.1201">Exibe foto</text><line style="stroke:#000000;stroke-width:1.0;stroke-dasharray:2.0,2.0;" x1="10" x2="296" y1="264.9766" y2="264.9766"/><text fill="#000000" font-family="sans-serif" font-size="11" font-weight="bold" lengthAdjust="spacing" textLength="59" x="15" y="276.3955">[foto nova]</text><line style="stroke:#181818;stroke-width:1.0;" x1="51" x2="93" y1="302.1641" y2="302.1641"/><line style="stroke:#181818;stroke-width:1.0;" x1="93" x2="93" y1="302.1641" y2="315.1641"/><line style="stroke:#181818;stroke-width:1.0;" x1="52" x2="93" y1="315.1641" y2="315.1641"/><polygon fill="#181818" points="62,311.1641,52,315.1641,62,319.1641,58,315.1641" style="stroke:#181818;stroke-width:1.0;"/><text fill="#000000" font-family="sans-serif" font-size="13" font-weight="bold" lengthAdjust="spacing" textLength="7" x="58" y="297.3076">5</text><text fill="#000000" font-family="sans-serif" font-size="13" lengthAdjust="spacing" textLength="50" x="69" y="297.3076">Tirar foto</text><polygon fill="#181818" points="146,341.5156,156,345.5156,146,349.5156,150,345.5156" style="stroke:#181818;stroke-width:1.0;"/><line style="stroke:#181818;stroke-width:1.0;" x1="51" x2="152" y1="345.5156" y2="345.5156"/><text fill="#000000" font-family="sans-serif" font-size="13" font-weight="bold" lengthAdjust="spacing" textLength="7" x="58" y="340.6592">6</text><text fill="#000000" font-family="sans-serif" font-size="13" lengthAdjust="spacing" textLength="60" x="69" y="340.6592">Enviar foto</text><polygon fill="#181818" points="251,371.8672,261,375.8672,251,379.8672,255,375.8672" style="stroke:#181818;stroke-width:1.0;"/><line style="stroke:#181818;stroke-width:1.0;" x1="158" x2="257" y1="375.8672" y2="375.8672"/><text fill="#000000" font-family="sans-serif" font-size="13" font-weight="bold" lengthAdjust="spacing" textLength="7" x="165" y="371.0107">7</text><text fill="#000000" font-family="sans-serif" font-size="13" lengthAdjust="spacing" textLength="61" x="176" y="371.0107">Valida foto</text><polygon fill="#181818" points="169,402.2188,159,406.2188,169,410.2188,165,406.2188" style="stroke:#181818;stroke-width:1.0;"/><line style="stroke:#181818;stroke-width:1.0;stroke-dasharray:2.0,2.0;" x1="163" x2="262" y1="406.2188" y2="406.2188"/><text fill="#000000" font-family="sans-serif" font-size="13" font-weight="bold" lengthAdjust="spacing" textLength="7" x="175" y="401.3623">8</text><text fill="#000000" font-family="sans-serif" font-size="13" lengthAdjust="spacing" textLength="70" x="186" y="401.3623">Retorna foto</text><polygon fill="#181818" points="62,432.5703,52,436.5703,62,440.5703,58,436.5703" style="stroke:#181818;stroke-width:1.0;"/><line style="stroke:#181818;stroke-width:1.0;stroke-dasharray:2.0,2.0;" x1="56" x2="157" y1="436.5703" y2="436.5703"/><text fill="#000000" font-family="sans-serif" font-size="13" font-weight="bold" lengthAdjust="spacing" textLength="7" x="68" y="431.7139">9</text><text fill="#000000" font-family="sans-serif" font-size="13" lengthAdjust="spacing" textLength="58" x="79" y="431.7139">Exibe foto</text><!--MD5=[a371dce98003ec07107522ed514c7b05]
@startuml 05 - Postar Foto Instagram

title Postar Foto Instagram

participant Usuário
participant Sistema
database Banco

autonumber
Usuário -> Sistema: Escolhe foto
alt foto existente
    Sistema -> Banco: Valida foto
    Banco - -> Sistema: Retorna foto
    Sistema - -> Usuário: Exibe foto
else foto nova
    Usuário -> Usuário: Tirar foto
    Usuário -> Sistema: Enviar foto
    Sistema -> Banco: Valida foto
    Banco - -> Sistema: Retorna foto
    Sistema - -> Usuário: Exibe foto
end

@enduml

PlantUML version 1.2022.7(Mon Aug 22 14:01:30 BRT 2022)
(GPL source distribution)
Java Runtime: OpenJDK Runtime Environment
JVM: OpenJDK 64-Bit Server VM
Default Encoding: Cp1252
Language: pt
Country: BR
--></g></svg>