<?xml version="1.0" encoding="UTF-8" standalone="no"?><svg xmlns="http://www.w3.org/2000/svg" xmlns:xlink="http://www.w3.org/1999/xlink" contentStyleType="text/css" height="492px" preserveAspectRatio="none" style="width:517px;height:492px;background:#FFFFFF;" version="1.1" viewBox="0 0 517 492" width="517px" zoomAndPan="magnify"><defs/><g><rect fill="none" height="27.6094" id="_title" style="stroke:none;stroke-width:1.0;" width="209" x="150" y="10"/><text fill="#000000" font-family="sans-serif" font-size="14" font-weight="bold" lengthAdjust="spacing" textLength="199" x="155" y="29.5332">Enviar Mensagem Whatsapp</text><line style="stroke:#181818;stroke-width:0.5;stroke-dasharray:5.0,5.0;" x1="36" x2="36" y1="107.2188" y2="413.3828"/><line style="stroke:#181818;stroke-width:0.5;stroke-dasharray:5.0,5.0;" x1="172" x2="172" y1="107.2188" y2="413.3828"/><line style="stroke:#181818;stroke-width:0.5;stroke-dasharray:5.0,5.0;" x1="319.5" x2="319.5" y1="107.2188" y2="413.3828"/><line style="stroke:#181818;stroke-width:0.5;stroke-dasharray:5.0,5.0;" x1="482" x2="482" y1="107.2188" y2="413.3828"/><rect fill="#E2E2F0" height="31.6094" rx="2.5" ry="2.5" style="stroke:#181818;stroke-width:0.5;" width="62" x="5" y="74.6094"/><text fill="#000000" font-family="sans-serif" font-size="14" lengthAdjust="spacing" textLength="48" x="12" y="96.1426">Usuário</text><rect fill="#E2E2F0" height="31.6094" rx="2.5" ry="2.5" style="stroke:#181818;stroke-width:0.5;" width="62" x="5" y="412.3828"/><text fill="#000000" font-family="sans-serif" font-size="14" lengthAdjust="spacing" textLength="48" x="12" y="433.916">Usuário</text><rect fill="#E2E2F0" height="31.6094" rx="2.5" ry="2.5" style="stroke:#181818;stroke-width:0.5;" width="64" x="140" y="74.6094"/><text fill="#000000" font-family="sans-serif" font-size="14" lengthAdjust="spacing" textLength="50" x="147" y="96.1426">Sistema</text><rect fill="#E2E2F0" height="31.6094" rx="2.5" ry="2.5" style="stroke:#181818;stroke-width:0.5;" width="64" x="140" y="412.3828"/><text fill="#000000" font-family="sans-serif" font-size="14" lengthAdjust="spacing" textLength="50" x="147" y="433.916">Sistema</text><rect fill="#E2E2F0" height="31.6094" rx="2.5" ry="2.5" style="stroke:#181818;stroke-width:0.5;" width="67" x="286.5" y="74.6094"/><text fill="#000000" font-family="sans-serif" font-size="14" lengthAdjust="spacing" textLength="53" x="293.5" y="96.1426">Servidor</text><rect fill="#E2E2F0" height="31.6094" rx="2.5" ry="2.5" style="stroke:#181818;stroke-width:0.5;" width="67" x="286.5" y="412.3828"/><text fill="#000000" font-family="sans-serif" font-size="14" lengthAdjust="spacing" textLength="53" x="293.5" y="433.916">Servidor</text><text fill="#000000" font-family="sans-serif" font-size="14" lengthAdjust="spacing" textLength="40" x="459" y="104.1426">Banco</text><path d="M464,53.6094 C464,43.6094 482,43.6094 482,43.6094 C482,43.6094 500,43.6094 500,53.6094 L500,79.6094 C500,89.6094 482,89.6094 482,89.6094 C482,89.6094 464,89.6094 464,79.6094 L464,53.6094 " fill="#E2E2F0" style="stroke:#181818;stroke-width:1.5;"/><path d="M464,53.6094 C464,63.6094 482,63.6094 482,63.6094 C482,63.6094 500,63.6094 500,53.6094 " fill="none" style="stroke:#181818;stroke-width:1.5;"/><text fill="#000000" font-family="sans-serif" font-size="14" lengthAdjust="spacing" textLength="40" x="459" y="426.916">Banco</text><path d="M464,439.9922 C464,429.9922 482,429.9922 482,429.9922 C482,429.9922 500,429.9922 500,439.9922 L500,465.9922 C500,475.9922 482,475.9922 482,475.9922 C482,475.9922 464,475.9922 464,465.9922 L464,439.9922 " fill="#E2E2F0" style="stroke:#181818;stroke-width:1.5;"/><path d="M464,439.9922 C464,449.9922 482,449.9922 482,449.9922 C482,449.9922 500,449.9922 500,439.9922 " fill="none" style="stroke:#181818;stroke-width:1.5;"/><polygon fill="#181818" points="160,135.5703,170,139.5703,160,143.5703,164,139.5703" style="stroke:#181818;stroke-width:1.0;"/><line style="stroke:#181818;stroke-width:1.0;" x1="36" x2="166" y1="139.5703" y2="139.5703"/><text fill="#000000" font-family="sans-serif" font-size="13" font-weight="bold" lengthAdjust="spacing" textLength="7" x="43" y="134.7139">1</text><text fill="#000000" font-family="sans-serif" font-size="13" lengthAdjust="spacing" textLength="94" x="54" y="134.7139">Escolhe contato</text><polygon fill="#181818" points="160,165.9219,170,169.9219,160,173.9219,164,169.9219" style="stroke:#181818;stroke-width:1.0;"/><line style="stroke:#181818;stroke-width:1.0;" x1="36" x2="166" y1="169.9219" y2="169.9219"/><text fill="#000000" font-family="sans-serif" font-size="13" font-weight="bold" lengthAdjust="spacing" textLength="7" x="43" y="165.0654">2</text><text fill="#000000" font-family="sans-serif" font-size="13" lengthAdjust="spacing" textLength="101" x="54" y="165.0654">Digita mensagem</text><polygon fill="#181818" points="160,196.2734,170,200.2734,160,204.2734,164,200.2734" style="stroke:#181818;stroke-width:1.0;"/><line style="stroke:#181818;stroke-width:1.0;" x1="36" x2="166" y1="200.2734" y2="200.2734"/><text fill="#000000" font-family="sans-serif" font-size="13" font-weight="bold" lengthAdjust="spacing" textLength="7" x="43" y="195.417">3</text><text fill="#000000" font-family="sans-serif" font-size="13" lengthAdjust="spacing" textLength="99" x="54" y="195.417">Envia mensagem</text><line style="stroke:#181818;stroke-width:1.0;" x1="172" x2="214" y1="230.625" y2="230.625"/><line style="stroke:#181818;stroke-width:1.0;" x1="214" x2="214" y1="230.625" y2="243.625"/><line style="stroke:#181818;stroke-width:1.0;" x1="173" x2="214" y1="243.625" y2="243.625"/><polygon fill="#181818" points="183,239.625,173,243.625,183,247.625,179,243.625" style="stroke:#181818;stroke-width:1.0;"/><text fill="#000000" font-family="sans-serif" font-size="13" font-weight="bold" lengthAdjust="spacing" textLength="7" x="179" y="225.7686">4</text><text fill="#000000" font-family="sans-serif" font-size="13" lengthAdjust="spacing" textLength="104" x="190" y="225.7686">Valida mensagem</text><polygon fill="#181818" points="308,269.9766,318,273.9766,308,277.9766,312,273.9766" style="stroke:#181818;stroke-width:1.0;"/><line style="stroke:#181818;stroke-width:1.0;" x1="172" x2="314" y1="273.9766" y2="273.9766"/><text fill="#000000" font-family="sans-serif" font-size="13" font-weight="bold" lengthAdjust="spacing" textLength="7" x="179" y="269.1201">5</text><text fill="#000000" font-family="sans-serif" font-size="13" lengthAdjust="spacing" textLength="99" x="190" y="269.1201">Envia mensagem</text><polygon fill="#181818" points="470,300.3281,480,304.3281,470,308.3281,474,304.3281" style="stroke:#181818;stroke-width:1.0;"/><line style="stroke:#181818;stroke-width:1.0;" x1="320" x2="476" y1="304.3281" y2="304.3281"/><text fill="#000000" font-family="sans-serif" font-size="13" font-weight="bold" lengthAdjust="spacing" textLength="7" x="327" y="299.4717">6</text><text fill="#000000" font-family="sans-serif" font-size="13" lengthAdjust="spacing" textLength="127" x="338" y="299.4717">Armazena mensagem</text><polygon fill="#181818" points="331,330.6797,321,334.6797,331,338.6797,327,334.6797" style="stroke:#181818;stroke-width:1.0;"/><line style="stroke:#181818;stroke-width:1.0;stroke-dasharray:2.0,2.0;" x1="325" x2="481" y1="334.6797" y2="334.6797"/><text fill="#000000" font-family="sans-serif" font-size="13" font-weight="bold" lengthAdjust="spacing" textLength="7" x="337" y="329.8232">7</text><text fill="#000000" font-family="sans-serif" font-size="13" lengthAdjust="spacing" textLength="4" x="348" y="329.8232"> </text><polygon fill="#181818" points="183,361.0313,173,365.0313,183,369.0313,179,365.0313" style="stroke:#181818;stroke-width:1.0;"/><line style="stroke:#181818;stroke-width:1.0;stroke-dasharray:2.0,2.0;" x1="177" x2="319" y1="365.0313" y2="365.0313"/><text fill="#000000" font-family="sans-serif" font-size="13" font-weight="bold" lengthAdjust="spacing" textLength="7" x="189" y="360.1748">8</text><text fill="#000000" font-family="sans-serif" font-size="13" lengthAdjust="spacing" textLength="113" x="200" y="360.1748">Retorna mensagem</text><polygon fill="#181818" points="47,391.3828,37,395.3828,47,399.3828,43,395.3828" style="stroke:#181818;stroke-width:1.0;"/><line style="stroke:#181818;stroke-width:1.0;stroke-dasharray:2.0,2.0;" x1="41" x2="171" y1="395.3828" y2="395.3828"/><text fill="#000000" font-family="sans-serif" font-size="13" font-weight="bold" lengthAdjust="spacing" textLength="7" x="53" y="390.5264">9</text><text fill="#000000" font-family="sans-serif" font-size="13" lengthAdjust="spacing" textLength="101" x="64" y="390.5264">Exibe mensagem</text><!--MD5=[c8bcb43518f843c37114fe7089c48aa6]
@startuml 06 - Enviar Mensagem Whatsapp

title Enviar Mensagem Whatsapp

participant Usuário
participant Sistema
participant Servidor
database Banco

autonumber
Usuário -> Sistema: Escolhe contato
Usuário -> Sistema: Digita mensagem
Usuário -> Sistema: Envia mensagem
Sistema -> Sistema: Valida mensagem
Sistema -> Servidor: Envia mensagem
Servidor -> Banco: Armazena mensagem
Banco - -> Servidor:
Servidor - -> Sistema: Retorna mensagem
Sistema - -> Usuário: Exibe mensagem

@enduml

PlantUML version 1.2022.7(Mon Aug 22 14:01:30 BRT 2022)
(GPL source distribution)
Java Runtime: OpenJDK Runtime Environment
JVM: OpenJDK 64-Bit Server VM
Default Encoding: Cp1252
Language: pt
Country: BR
--></g></svg>