<?xml version="1.0" encoding="UTF-8" standalone="no"?><svg xmlns="http://www.w3.org/2000/svg" xmlns:xlink="http://www.w3.org/1999/xlink" contentStyleType="text/css" height="680px" preserveAspectRatio="none" style="width:593px;height:680px;background:#FFFFFF;" version="1.1" viewBox="0 0 593 680" width="593px" zoomAndPan="magnify"><defs/><g><rect fill="none" height="27.6094" id="_title" style="stroke:none;stroke-width:1.0;" width="193" x="201" y="10"/><text fill="#000000" font-family="sans-serif" font-size="14" font-weight="bold" lengthAdjust="spacing" textLength="183" x="206" y="29.5332">Realizar Transferência PIX</text><rect fill="none" height="398.8906" style="stroke:#000000;stroke-width:1.5;" width="576" x="10" y="184.9219"/><rect fill="none" height="198.9453" style="stroke:#000000;stroke-width:1.5;" width="556" x="20" y="377.8672"/><line style="stroke:#181818;stroke-width:0.5;stroke-dasharray:5.0,5.0;" x1="61" x2="61" y1="107.2188" y2="600.8125"/><line style="stroke:#181818;stroke-width:0.5;stroke-dasharray:5.0,5.0;" x1="296" x2="296" y1="107.2188" y2="600.8125"/><line style="stroke:#181818;stroke-width:0.5;stroke-dasharray:5.0,5.0;" x1="543" x2="543" y1="107.2188" y2="600.8125"/><rect fill="#E2E2F0" height="31.6094" rx="2.5" ry="2.5" style="stroke:#181818;stroke-width:0.5;" width="62" x="30" y="74.6094"/><text fill="#000000" font-family="sans-serif" font-size="14" lengthAdjust="spacing" textLength="48" x="37" y="96.1426">Usuário</text><rect fill="#E2E2F0" height="31.6094" rx="2.5" ry="2.5" style="stroke:#181818;stroke-width:0.5;" width="62" x="30" y="599.8125"/><text fill="#000000" font-family="sans-serif" font-size="14" lengthAdjust="spacing" textLength="48" x="37" y="621.3457">Usuário</text><rect fill="#E2E2F0" height="31.6094" rx="2.5" ry="2.5" style="stroke:#181818;stroke-width:0.5;" width="64" x="264" y="74.6094"/><text fill="#000000" font-family="sans-serif" font-size="14" lengthAdjust="spacing" textLength="50" x="271" y="96.1426">Sistema</text><rect fill="#E2E2F0" height="31.6094" rx="2.5" ry="2.5" style="stroke:#181818;stroke-width:0.5;" width="64" x="264" y="599.8125"/><text fill="#000000" font-family="sans-serif" font-size="14" lengthAdjust="spacing" textLength="50" x="271" y="621.3457">Sistema</text><text fill="#000000" font-family="sans-serif" font-size="14" lengthAdjust="spacing" textLength="40" x="520" y="104.1426">Banco</text><path d="M525,53.6094 C525,43.6094 543,43.6094 543,43.6094 C543,43.6094 561,43.6094 561,53.6094 L561,79.6094 C561,89.6094 543,89.6094 543,89.6094 C543,89.6094 525,89.6094 525,79.6094 L525,53.6094 " fill="#E2E2F0" style="stroke:#181818;stroke-width:1.5;"/><path d="M525,53.6094 C525,63.6094 543,63.6094 543,63.6094 C543,63.6094 561,63.6094 561,53.6094 " fill="none" style="stroke:#181818;stroke-width:1.5;"/><text fill="#000000" font-family="sans-serif" font-size="14" lengthAdjust="spacing" textLength="40" x="520" y="614.3457">Banco</text><path d="M525,627.4219 C525,617.4219 543,617.4219 543,617.4219 C543,617.4219 561,617.4219 561,627.4219 L561,653.4219 C561,663.4219 543,663.4219 543,663.4219 C543,663.4219 525,663.4219 525,653.4219 L525,627.4219 " fill="#E2E2F0" style="stroke:#181818;stroke-width:1.5;"/><path d="M525,627.4219 C525,637.4219 543,637.4219 543,637.4219 C543,637.4219 561,637.4219 561,627.4219 " fill="none" style="stroke:#181818;stroke-width:1.5;"/><polygon fill="#181818" points="284,135.5703,294,139.5703,284,143.5703,288,139.5703" style="stroke:#181818;stroke-width:1.0;"/><line style="stroke:#181818;stroke-width:1.0;" x1="61" x2="290" y1="139.5703" y2="139.5703"/><text fill="#000000" font-family="sans-serif" font-size="13" font-weight="bold" lengthAdjust="spacing" textLength="7" x="68" y="134.7139">1</text><text fill="#000000" font-family="sans-serif" font-size="13" lengthAdjust="spacing" textLength="70" x="79" y="134.7139">Digita chave</text><polygon fill="#181818" points="531,165.9219,541,169.9219,531,173.9219,535,169.9219" style="stroke:#181818;stroke-width:1.0;"/><line style="stroke:#181818;stroke-width:1.0;" x1="296" x2="537" y1="169.9219" y2="169.9219"/><text fill="#000000" font-family="sans-serif" font-size="13" font-weight="bold" lengthAdjust="spacing" textLength="7" x="303" y="165.0654">2</text><text fill="#000000" font-family="sans-serif" font-size="13" lengthAdjust="spacing" textLength="73" x="314" y="165.0654">Valida chave</text><path d="M10,184.9219 L71,184.9219 L71,193.2734 L61,203.2734 L10,203.2734 L10,184.9219 " fill="#EEEEEE" style="stroke:#000000;stroke-width:1.5;"/><rect fill="none" height="398.8906" style="stroke:#000000;stroke-width:1.5;" width="576" x="10" y="184.9219"/><text fill="#000000" font-family="sans-serif" font-size="13" font-weight="bold" lengthAdjust="spacing" textLength="16" x="25" y="199.417">alt</text><text fill="#000000" font-family="sans-serif" font-size="11" font-weight="bold" lengthAdjust="spacing" textLength="84" x="86" y="198.3408">[chave inválida]</text><polygon fill="#181818" points="307,221.625,297,225.625,307,229.625,303,225.625" style="stroke:#181818;stroke-width:1.0;"/><line style="stroke:#181818;stroke-width:1.0;stroke-dasharray:2.0,2.0;" x1="301" x2="542" y1="225.625" y2="225.625"/><text fill="#000000" font-family="sans-serif" font-size="13" font-weight="bold" lengthAdjust="spacing" textLength="7" x="313" y="220.7686">3</text><text fill="#000000" font-family="sans-serif" font-size="13" lengthAdjust="spacing" textLength="157" x="324" y="220.7686">Retorna mensagem de erro</text><polygon fill="#181818" points="72,251.9766,62,255.9766,72,259.9766,68,255.9766" style="stroke:#181818;stroke-width:1.0;"/><line style="stroke:#181818;stroke-width:1.0;stroke-dasharray:2.0,2.0;" x1="66" x2="295" y1="255.9766" y2="255.9766"/><text fill="#000000" font-family="sans-serif" font-size="13" font-weight="bold" lengthAdjust="spacing" textLength="7" x="78" y="251.1201">4</text><text fill="#000000" font-family="sans-serif" font-size="13" lengthAdjust="spacing" textLength="145" x="89" y="251.1201">Exibe mensagem de erro</text><line style="stroke:#000000;stroke-width:1.0;stroke-dasharray:2.0,2.0;" x1="10" x2="586" y1="264.9766" y2="264.9766"/><text fill="#000000" font-family="sans-serif" font-size="11" font-weight="bold" lengthAdjust="spacing" textLength="74" x="15" y="276.3955">[chave válida]</text><polygon fill="#181818" points="307,298.1641,297,302.1641,307,306.1641,303,302.1641" style="stroke:#181818;stroke-width:1.0;"/><line style="stroke:#181818;stroke-width:1.0;stroke-dasharray:2.0,2.0;" x1="301" x2="542" y1="302.1641" y2="302.1641"/><text fill="#000000" font-family="sans-serif" font-size="13" font-weight="bold" lengthAdjust="spacing" textLength="7" x="313" y="297.3076">5</text><text fill="#000000" font-family="sans-serif" font-size="13" lengthAdjust="spacing" textLength="84" x="324" y="297.3076">Retorna dados</text><polygon fill="#181818" points="72,328.5156,62,332.5156,72,336.5156,68,332.5156" style="stroke:#181818;stroke-width:1.0;"/><line style="stroke:#181818;stroke-width:1.0;stroke-dasharray:2.0,2.0;" x1="66" x2="295" y1="332.5156" y2="332.5156"/><text fill="#000000" font-family="sans-serif" font-size="13" font-weight="bold" lengthAdjust="spacing" textLength="7" x="78" y="327.6592">6</text><text fill="#000000" font-family="sans-serif" font-size="13" lengthAdjust="spacing" textLength="72" x="89" y="327.6592">Exibe dados</text><polygon fill="#181818" points="284,358.8672,294,362.8672,284,366.8672,288,362.8672" style="stroke:#181818;stroke-width:1.0;"/><line style="stroke:#181818;stroke-width:1.0;" x1="61" x2="290" y1="362.8672" y2="362.8672"/><text fill="#000000" font-family="sans-serif" font-size="13" font-weight="bold" lengthAdjust="spacing" textLength="7" x="68" y="358.0107">7</text><text fill="#000000" font-family="sans-serif" font-size="13" lengthAdjust="spacing" textLength="63" x="79" y="358.0107">Digita valor</text><path d="M20,377.8672 L81,377.8672 L81,386.2188 L71,396.2188 L20,396.2188 L20,377.8672 " fill="#EEEEEE" style="stroke:#000000;stroke-width:1.5;"/><rect fill="none" height="198.9453" style="stroke:#000000;stroke-width:1.5;" width="556" x="20" y="377.8672"/><text fill="#000000" font-family="sans-serif" font-size="13" font-weight="bold" lengthAdjust="spacing" textLength="16" x="35" y="392.3623">alt</text><text fill="#000000" font-family="sans-serif" font-size="11" font-weight="bold" lengthAdjust="spacing" textLength="83" x="96" y="391.2861">[saldo inválido]</text><line style="stroke:#181818;stroke-width:1.0;" x1="296" x2="338" y1="418.5703" y2="418.5703"/><line style="stroke:#181818;stroke-width:1.0;" x1="338" x2="338" y1="418.5703" y2="431.5703"/><line style="stroke:#181818;stroke-width:1.0;" x1="297" x2="338" y1="431.5703" y2="431.5703"/><polygon fill="#181818" points="307,427.5703,297,431.5703,307,435.5703,303,431.5703" style="stroke:#181818;stroke-width:1.0;"/><text fill="#000000" font-family="sans-serif" font-size="13" font-weight="bold" lengthAdjust="spacing" textLength="7" x="303" y="413.7139">8</text><text fill="#000000" font-family="sans-serif" font-size="13" lengthAdjust="spacing" textLength="71" x="314" y="413.7139">Valida saldo</text><polygon fill="#181818" points="72,457.9219,62,461.9219,72,465.9219,68,461.9219" style="stroke:#181818;stroke-width:1.0;"/><line style="stroke:#181818;stroke-width:1.0;stroke-dasharray:2.0,2.0;" x1="66" x2="295" y1="461.9219" y2="461.9219"/><text fill="#000000" font-family="sans-serif" font-size="13" font-weight="bold" lengthAdjust="spacing" textLength="7" x="78" y="457.0654">9</text><text fill="#000000" font-family="sans-serif" font-size="13" lengthAdjust="spacing" textLength="145" x="89" y="457.0654">Exibe mensagem de erro</text><line style="stroke:#000000;stroke-width:1.0;stroke-dasharray:2.0,2.0;" x1="20" x2="576" y1="470.9219" y2="470.9219"/><text fill="#000000" font-family="sans-serif" font-size="11" font-weight="bold" lengthAdjust="spacing" textLength="73" x="25" y="482.3408">[saldo válido]</text><polygon fill="#181818" points="531,504.1094,541,508.1094,531,512.1094,535,508.1094" style="stroke:#181818;stroke-width:1.0;"/><line style="stroke:#181818;stroke-width:1.0;" x1="296" x2="537" y1="508.1094" y2="508.1094"/><text fill="#000000" font-family="sans-serif" font-size="13" font-weight="bold" lengthAdjust="spacing" textLength="14" x="303" y="503.2529">10</text><text fill="#000000" font-family="sans-serif" font-size="13" lengthAdjust="spacing" textLength="121" x="321" y="503.2529">Realiza transferência</text><polygon fill="#181818" points="307,534.4609,297,538.4609,307,542.4609,303,538.4609" style="stroke:#181818;stroke-width:1.0;"/><line style="stroke:#181818;stroke-width:1.0;stroke-dasharray:2.0,2.0;" x1="301" x2="542" y1="538.4609" y2="538.4609"/><text fill="#000000" font-family="sans-serif" font-size="13" font-weight="bold" lengthAdjust="spacing" textLength="14" x="313" y="533.6045">11</text><text fill="#000000" font-family="sans-serif" font-size="13" lengthAdjust="spacing" textLength="205" x="331" y="533.6045">Retorna mensagem de confirmação</text><polygon fill="#181818" points="72,564.8125,62,568.8125,72,572.8125,68,568.8125" style="stroke:#181818;stroke-width:1.0;"/><line style="stroke:#181818;stroke-width:1.0;stroke-dasharray:2.0,2.0;" x1="66" x2="295" y1="568.8125" y2="568.8125"/><text fill="#000000" font-family="sans-serif" font-size="13" font-weight="bold" lengthAdjust="spacing" textLength="14" x="78" y="563.9561">12</text><text fill="#000000" font-family="sans-serif" font-size="13" lengthAdjust="spacing" textLength="193" x="96" y="563.9561">Exibe mensagem de confirmação</text><!--MD5=[bbd40bd8df8751832d236ea8f96f89dd]
@startuml 07 - Realizar Transferência PIX

title Realizar Transferência PIX

participant Usuário
participant Sistema
database Banco

autonumber
Usuário -> Sistema: Digita chave
Sistema -> Banco: Valida chave
alt chave inválida
    Banco - -> Sistema: Retorna mensagem de erro
    Sistema - -> Usuário: Exibe mensagem de erro
else chave válida
    Banco - -> Sistema: Retorna dados
    Sistema - -> Usuário: Exibe dados
    Usuário -> Sistema: Digita valor
alt saldo inválido
    Sistema -> Sistema: Valida saldo
    Sistema - -> Usuário: Exibe mensagem de erro
else saldo válido
    Sistema -> Banco: Realiza transferência
    Banco - -> Sistema: Retorna mensagem de confirmação
    Sistema - -> Usuário: Exibe mensagem de confirmação
end
end

@enduml

PlantUML version 1.2022.7(Mon Aug 22 14:01:30 BRT 2022)
(GPL source distribution)
Java Runtime: OpenJDK Runtime Environment
JVM: OpenJDK 64-Bit Server VM
Default Encoding: Cp1252
Language: pt
Country: BR
--></g></svg>