<?xml version="1.0" encoding="UTF-8" standalone="no"?><svg xmlns="http://www.w3.org/2000/svg" xmlns:xlink="http://www.w3.org/1999/xlink" contentStyleType="text/css" height="432px" preserveAspectRatio="none" style="width:409px;height:432px;background:#FFFFFF;" version="1.1" viewBox="0 0 409 432" width="409px" zoomAndPan="magnify"><defs/><g><rect fill="none" height="27.6094" id="_title" style="stroke:none;stroke-width:1.0;" width="170" x="115.5" y="10"/><text fill="#000000" font-family="sans-serif" font-size="14" font-weight="bold" lengthAdjust="spacing" textLength="160" x="120.5" y="29.5332">Assistir Vídeo Youtube</text><line style="stroke:#181818;stroke-width:0.5;stroke-dasharray:5.0,5.0;" x1="36" x2="36" y1="107.2188" y2="352.6797"/><line style="stroke:#181818;stroke-width:0.5;stroke-dasharray:5.0,5.0;" x1="191" x2="191" y1="107.2188" y2="352.6797"/><line style="stroke:#181818;stroke-width:0.5;stroke-dasharray:5.0,5.0;" x1="374" x2="374" y1="107.2188" y2="352.6797"/><rect fill="#E2E2F0" height="31.6094" rx="2.5" ry="2.5" style="stroke:#181818;stroke-width:0.5;" width="62" x="5" y="74.6094"/><text fill="#000000" font-family="sans-serif" font-size="14" lengthAdjust="spacing" textLength="48" x="12" y="96.1426">Usuário</text><rect fill="#E2E2F0" height="31.6094" rx="2.5" ry="2.5" style="stroke:#181818;stroke-width:0.5;" width="62" x="5" y="351.6797"/><text fill="#000000" font-family="sans-serif" font-size="14" lengthAdjust="spacing" textLength="48" x="12" y="373.2129">Usuário</text><rect fill="#E2E2F0" height="31.6094" rx="2.5" ry="2.5" style="stroke:#181818;stroke-width:0.5;" width="64" x="159" y="74.6094"/><text fill="#000000" font-family="sans-serif" font-size="14" lengthAdjust="spacing" textLength="50" x="166" y="96.1426">Sistema</text><rect fill="#E2E2F0" height="31.6094" rx="2.5" ry="2.5" style="stroke:#181818;stroke-width:0.5;" width="64" x="159" y="351.6797"/><text fill="#000000" font-family="sans-serif" font-size="14" lengthAdjust="spacing" textLength="50" x="166" y="373.2129">Sistema</text><text fill="#000000" font-family="sans-serif" font-size="14" lengthAdjust="spacing" textLength="40" x="351" y="104.1426">Banco</text><path d="M356,53.6094 C356,43.6094 374,43.6094 374,43.6094 C374,43.6094 392,43.6094 392,53.6094 L392,79.6094 C392,89.6094 374,89.6094 374,89.6094 C374,89.6094 356,89.6094 356,79.6094 L356,53.6094 " fill="#E2E2F0" style="stroke:#181818;stroke-width:1.5;"/><path d="M356,53.6094 C356,63.6094 374,63.6094 374,63.6094 C374,63.6094 392,63.6094 392,53.6094 " fill="none" style="stroke:#181818;stroke-width:1.5;"/><text fill="#000000" font-family="sans-serif" font-size="14" lengthAdjust="spacing" textLength="40" x="351" y="366.2129">Banco</text><path d="M356,379.2891 C356,369.2891 374,369.2891 374,369.2891 C374,369.2891 392,369.2891 392,379.2891 L392,405.2891 C392,415.2891 374,415.2891 374,415.2891 C374,415.2891 356,415.2891 356,405.2891 L356,379.2891 " fill="#E2E2F0" style="stroke:#181818;stroke-width:1.5;"/><path d="M356,379.2891 C356,389.2891 374,389.2891 374,389.2891 C374,389.2891 392,389.2891 392,379.2891 " fill="none" style="stroke:#181818;stroke-width:1.5;"/><polygon fill="#181818" points="179,135.5703,189,139.5703,179,143.5703,183,139.5703" style="stroke:#181818;stroke-width:1.0;"/><line style="stroke:#181818;stroke-width:1.0;" x1="36" x2="185" y1="139.5703" y2="139.5703"/><text fill="#000000" font-family="sans-serif" font-size="13" font-weight="bold" lengthAdjust="spacing" textLength="7" x="43" y="134.7139">1</text><text fill="#000000" font-family="sans-serif" font-size="13" lengthAdjust="spacing" textLength="80" x="54" y="134.7139">Escolhe vídeo</text><polygon fill="#181818" points="362,165.9219,372,169.9219,362,173.9219,366,169.9219" style="stroke:#181818;stroke-width:1.0;"/><line style="stroke:#181818;stroke-width:1.0;" x1="191" x2="368" y1="169.9219" y2="169.9219"/><text fill="#000000" font-family="sans-serif" font-size="13" font-weight="bold" lengthAdjust="spacing" textLength="7" x="198" y="165.0654">2</text><text fill="#000000" font-family="sans-serif" font-size="13" lengthAdjust="spacing" textLength="70" x="209" y="165.0654">Busca vídeo</text><polygon fill="#181818" points="202,196.2734,192,200.2734,202,204.2734,198,200.2734" style="stroke:#181818;stroke-width:1.0;"/><line style="stroke:#181818;stroke-width:1.0;stroke-dasharray:2.0,2.0;" x1="196" x2="373" y1="200.2734" y2="200.2734"/><text fill="#000000" font-family="sans-serif" font-size="13" font-weight="bold" lengthAdjust="spacing" textLength="7" x="208" y="195.417">3</text><text fill="#000000" font-family="sans-serif" font-size="13" lengthAdjust="spacing" textLength="78" x="219" y="195.417">Retorna vídeo</text><polygon fill="#181818" points="47,226.625,37,230.625,47,234.625,43,230.625" style="stroke:#181818;stroke-width:1.0;"/><line style="stroke:#181818;stroke-width:1.0;stroke-dasharray:2.0,2.0;" x1="41" x2="190" y1="230.625" y2="230.625"/><text fill="#000000" font-family="sans-serif" font-size="13" font-weight="bold" lengthAdjust="spacing" textLength="7" x="53" y="225.7686">4</text><text fill="#000000" font-family="sans-serif" font-size="13" lengthAdjust="spacing" textLength="66" x="64" y="225.7686">Exibe vídeo</text><line style="stroke:#181818;stroke-width:1.0;" x1="36" x2="78" y1="260.9766" y2="260.9766"/><line style="stroke:#181818;stroke-width:1.0;" x1="78" x2="78" y1="260.9766" y2="273.9766"/><line style="stroke:#181818;stroke-width:1.0;" x1="37" x2="78" y1="273.9766" y2="273.9766"/><polygon fill="#181818" points="47,269.9766,37,273.9766,47,277.9766,43,273.9766" style="stroke:#181818;stroke-width:1.0;"/><text fill="#000000" font-family="sans-serif" font-size="13" font-weight="bold" lengthAdjust="spacing" textLength="7" x="43" y="256.1201">5</text><text fill="#000000" font-family="sans-serif" font-size="13" lengthAdjust="spacing" textLength="77" x="54" y="256.1201">Assiste vídeo</text><polygon fill="#181818" points="179,300.3281,189,304.3281,179,308.3281,183,304.3281" style="stroke:#181818;stroke-width:1.0;"/><line style="stroke:#181818;stroke-width:1.0;" x1="36" x2="185" y1="304.3281" y2="304.3281"/><text fill="#000000" font-family="sans-serif" font-size="13" font-weight="bold" lengthAdjust="spacing" textLength="7" x="43" y="299.4717">6</text><text fill="#000000" font-family="sans-serif" font-size="13" lengthAdjust="spacing" textLength="120" x="54" y="299.4717">Envia vídeo assistido</text><polygon fill="#181818" points="362,330.6797,372,334.6797,362,338.6797,366,334.6797" style="stroke:#181818;stroke-width:1.0;"/><line style="stroke:#181818;stroke-width:1.0;" x1="191" x2="368" y1="334.6797" y2="334.6797"/><text fill="#000000" font-family="sans-serif" font-size="13" font-weight="bold" lengthAdjust="spacing" textLength="7" x="198" y="329.8232">7</text><text fill="#000000" font-family="sans-serif" font-size="13" lengthAdjust="spacing" textLength="148" x="209" y="329.8232">Armazena vídeo assistido</text><!--MD5=[1a5c089943ac66c8161fd3cc597a7f1d]
@startuml 08 - Assistir Vídeo Youtube

title Assistir Vídeo Youtube

participant Usuário
participant Sistema
database Banco

autonumber
Usuário -> Sistema: Escolhe vídeo
Sistema -> Banco: Busca vídeo
Banco - -> Sistema: Retorna vídeo
Sistema - -> Usuário: Exibe vídeo
Usuário -> Usuário: Assiste vídeo
Usuário -> Sistema: Envia vídeo assistido
Sistema -> Banco: Armazena vídeo assistido

@enduml

PlantUML version 1.2022.7(Mon Aug 22 14:01:30 BRT 2022)
(GPL source distribution)
Java Runtime: OpenJDK Runtime Environment
JVM: OpenJDK 64-Bit Server VM
Default Encoding: Cp1252
Language: pt
Country: BR
--></g></svg>