<?xml version="1.0" encoding="UTF-8" standalone="no"?><svg xmlns="http://www.w3.org/2000/svg" xmlns:xlink="http://www.w3.org/1999/xlink" contentStyleType="text/css" height="584px" preserveAspectRatio="none" style="width:381px;height:584px;background:#FFFFFF;" version="1.1" viewBox="0 0 381 584" width="381px" zoomAndPan="magnify"><defs/><g><rect fill="none" height="27.6094" id="_title" style="stroke:none;stroke-width:1.0;" width="159" x="112" y="10"/><text fill="#000000" font-family="sans-serif" font-size="14" font-weight="bold" lengthAdjust="spacing" textLength="149" x="117" y="29.5332">Curtir Foto Instagram</text><rect fill="none" height="303" style="stroke:#000000;stroke-width:1.5;" width="364" x="10" y="184.9219"/><line style="stroke:#181818;stroke-width:0.5;stroke-dasharray:5.0,5.0;" x1="51" x2="51" y1="107.2188" y2="504.9219"/><line style="stroke:#181818;stroke-width:0.5;stroke-dasharray:5.0,5.0;" x1="183" x2="183" y1="107.2188" y2="504.9219"/><line style="stroke:#181818;stroke-width:0.5;stroke-dasharray:5.0,5.0;" x1="341" x2="341" y1="107.2188" y2="504.9219"/><rect fill="#E2E2F0" height="31.6094" rx="2.5" ry="2.5" style="stroke:#181818;stroke-width:0.5;" width="62" x="20" y="74.6094"/><text fill="#000000" font-family="sans-serif" font-size="14" lengthAdjust="spacing" textLength="48" x="27" y="96.1426">Usuário</text><rect fill="#E2E2F0" height="31.6094" rx="2.5" ry="2.5" style="stroke:#181818;stroke-width:0.5;" width="62" x="20" y="503.9219"/><text fill="#000000" font-family="sans-serif" font-size="14" lengthAdjust="spacing" textLength="48" x="27" y="525.4551">Usuário</text><rect fill="#E2E2F0" height="31.6094" rx="2.5" ry="2.5" style="stroke:#181818;stroke-width:0.5;" width="64" x="151" y="74.6094"/><text fill="#000000" font-family="sans-serif" font-size="14" lengthAdjust="spacing" textLength="50" x="158" y="96.1426">Sistema</text><rect fill="#E2E2F0" height="31.6094" rx="2.5" ry="2.5" style="stroke:#181818;stroke-width:0.5;" width="64" x="151" y="503.9219"/><text fill="#000000" font-family="sans-serif" font-size="14" lengthAdjust="spacing" textLength="50" x="158" y="525.4551">Sistema</text><text fill="#000000" font-family="sans-serif" font-size="14" lengthAdjust="spacing" textLength="40" x="318" y="104.1426">Banco</text><path d="M323,53.6094 C323,43.6094 341,43.6094 341,43.6094 C341,43.6094 359,43.6094 359,53.6094 L359,79.6094 C359,89.6094 341,89.6094 341,89.6094 C341,89.6094 323,89.6094 323,79.6094 L323,53.6094 " fill="#E2E2F0" style="stroke:#181818;stroke-width:1.5;"/><path d="M323,53.6094 C323,63.6094 341,63.6094 341,63.6094 C341,63.6094 359,63.6094 359,53.6094 " fill="none" style="stroke:#181818;stroke-width:1.5;"/><text fill="#000000" font-family="sans-serif" font-size="14" lengthAdjust="spacing" textLength="40" x="318" y="518.4551">Banco</text><path d="M323,531.5313 C323,521.5313 341,521.5313 341,521.5313 C341,521.5313 359,521.5313 359,531.5313 L359,557.5313 C359,567.5313 341,567.5313 341,567.5313 C341,567.5313 323,567.5313 323,557.5313 L323,531.5313 " fill="#E2E2F0" style="stroke:#181818;stroke-width:1.5;"/><path d="M323,531.5313 C323,541.5313 341,541.5313 341,541.5313 C341,541.5313 359,541.5313 359,531.5313 " fill="none" style="stroke:#181818;stroke-width:1.5;"/><polygon fill="#181818" points="171,135.5703,181,139.5703,171,143.5703,175,139.5703" style="stroke:#181818;stroke-width:1.0;"/><line style="stroke:#181818;stroke-width:1.0;" x1="51" x2="177" y1="139.5703" y2="139.5703"/><text fill="#000000" font-family="sans-serif" font-size="13" font-weight="bold" lengthAdjust="spacing" textLength="7" x="58" y="134.7139">1</text><text fill="#000000" font-family="sans-serif" font-size="13" lengthAdjust="spacing" textLength="72" x="69" y="134.7139">Escolhe foto</text><polygon fill="#181818" points="171,165.9219,181,169.9219,171,173.9219,175,169.9219" style="stroke:#181818;stroke-width:1.0;"/><line style="stroke:#181818;stroke-width:1.0;" x1="51" x2="177" y1="169.9219" y2="169.9219"/><text fill="#000000" font-family="sans-serif" font-size="13" font-weight="bold" lengthAdjust="spacing" textLength="7" x="58" y="165.0654">2</text><text fill="#000000" font-family="sans-serif" font-size="13" lengthAdjust="spacing" textLength="56" x="69" y="165.0654">Curtir foto</text><path d="M10,184.9219 L71,184.9219 L71,193.2734 L61,203.2734 L10,203.2734 L10,184.9219 " fill="#EEEEEE" style="stroke:#000000;stroke-width:1.5;"/><rect fill="none" height="303" style="stroke:#000000;stroke-width:1.5;" width="364" x="10" y="184.9219"/><text fill="#000000" font-family="sans-serif" font-size="13" font-weight="bold" lengthAdjust="spacing" textLength="16" x="25" y="199.417">alt</text><text fill="#000000" font-family="sans-serif" font-size="11" font-weight="bold" lengthAdjust="spacing" textLength="52" x="86" y="198.3408">[já curtiu]</text><line style="stroke:#181818;stroke-width:1.0;" x1="183" x2="225" y1="225.625" y2="225.625"/><line style="stroke:#181818;stroke-width:1.0;" x1="225" x2="225" y1="225.625" y2="238.625"/><line style="stroke:#181818;stroke-width:1.0;" x1="184" x2="225" y1="238.625" y2="238.625"/><polygon fill="#181818" points="194,234.625,184,238.625,194,242.625,190,238.625" style="stroke:#181818;stroke-width:1.0;"/><text fill="#000000" font-family="sans-serif" font-size="13" font-weight="bold" lengthAdjust="spacing" textLength="7" x="190" y="220.7686">3</text><text fill="#000000" font-family="sans-serif" font-size="13" lengthAdjust="spacing" textLength="77" x="201" y="220.7686">Descurtir foto</text><polygon fill="#181818" points="329,264.9766,339,268.9766,329,272.9766,333,268.9766" style="stroke:#181818;stroke-width:1.0;"/><line style="stroke:#181818;stroke-width:1.0;" x1="183" x2="335" y1="268.9766" y2="268.9766"/><text fill="#000000" font-family="sans-serif" font-size="13" font-weight="bold" lengthAdjust="spacing" textLength="7" x="190" y="264.1201">4</text><text fill="#000000" font-family="sans-serif" font-size="13" lengthAdjust="spacing" textLength="123" x="201" y="264.1201">Armazena descurtida</text><polygon fill="#181818" points="194,295.3281,184,299.3281,194,303.3281,190,299.3281" style="stroke:#181818;stroke-width:1.0;"/><line style="stroke:#181818;stroke-width:1.0;stroke-dasharray:2.0,2.0;" x1="188" x2="340" y1="299.3281" y2="299.3281"/><text fill="#000000" font-family="sans-serif" font-size="13" font-weight="bold" lengthAdjust="spacing" textLength="7" x="200" y="294.4717">5</text><text fill="#000000" font-family="sans-serif" font-size="13" lengthAdjust="spacing" textLength="4" x="211" y="294.4717"> </text><polygon fill="#181818" points="62,325.6797,52,329.6797,62,333.6797,58,329.6797" style="stroke:#181818;stroke-width:1.0;"/><line style="stroke:#181818;stroke-width:1.0;stroke-dasharray:2.0,2.0;" x1="56" x2="182" y1="329.6797" y2="329.6797"/><text fill="#000000" font-family="sans-serif" font-size="13" font-weight="bold" lengthAdjust="spacing" textLength="7" x="68" y="324.8232">6</text><text fill="#000000" font-family="sans-serif" font-size="13" lengthAdjust="spacing" textLength="97" x="79" y="324.8232">Exibe descurtida</text><line style="stroke:#000000;stroke-width:1.0;stroke-dasharray:2.0,2.0;" x1="10" x2="374" y1="338.6797" y2="338.6797"/><text fill="#000000" font-family="sans-serif" font-size="11" font-weight="bold" lengthAdjust="spacing" textLength="63" x="15" y="350.0986">[não curtiu]</text><line style="stroke:#181818;stroke-width:1.0;" x1="183" x2="225" y1="375.8672" y2="375.8672"/><line style="stroke:#181818;stroke-width:1.0;" x1="225" x2="225" y1="375.8672" y2="388.8672"/><line style="stroke:#181818;stroke-width:1.0;" x1="184" x2="225" y1="388.8672" y2="388.8672"/><polygon fill="#181818" points="194,384.8672,184,388.8672,194,392.8672,190,388.8672" style="stroke:#181818;stroke-width:1.0;"/><text fill="#000000" font-family="sans-serif" font-size="13" font-weight="bold" lengthAdjust="spacing" textLength="7" x="190" y="371.0107">7</text><text fill="#000000" font-family="sans-serif" font-size="13" lengthAdjust="spacing" textLength="56" x="201" y="371.0107">Curtir foto</text><polygon fill="#181818" points="329,415.2188,339,419.2188,329,423.2188,333,419.2188" style="stroke:#181818;stroke-width:1.0;"/><line style="stroke:#181818;stroke-width:1.0;" x1="183" x2="335" y1="419.2188" y2="419.2188"/><text fill="#000000" font-family="sans-serif" font-size="13" font-weight="bold" lengthAdjust="spacing" textLength="7" x="190" y="414.3623">8</text><text fill="#000000" font-family="sans-serif" font-size="13" lengthAdjust="spacing" textLength="102" x="201" y="414.3623">Armazena curtida</text><polygon fill="#181818" points="194,445.5703,184,449.5703,194,453.5703,190,449.5703" style="stroke:#181818;stroke-width:1.0;"/><line style="stroke:#181818;stroke-width:1.0;stroke-dasharray:2.0,2.0;" x1="188" x2="340" y1="449.5703" y2="449.5703"/><text fill="#000000" font-family="sans-serif" font-size="13" font-weight="bold" lengthAdjust="spacing" textLength="7" x="200" y="444.7139">9</text><text fill="#000000" font-family="sans-serif" font-size="13" lengthAdjust="spacing" textLength="4" x="211" y="444.7139"> </text><polygon fill="#181818" points="62,475.9219,52,479.9219,62,483.9219,58,479.9219" style="stroke:#181818;stroke-width:1.0;"/><line style="stroke:#181818;stroke-width:1.0;stroke-dasharray:2.0,2.0;" x1="56" x2="182" y1="479.9219" y2="479.9219"/><text fill="#000000" font-family="sans-serif" font-size="13" font-weight="bold" lengthAdjust="spacing" textLength="14" x="68" y="475.0654">10</text><text fill="#000000" font-family="sans-serif" font-size="13" lengthAdjust="spacing" textLength="76" x="86" y="475.0654">Exibe curtida</text><!--MD5=[3bdff76f614d329fdaca5ff7490eb97c]
@startuml 09 - Curtir Foto Instagram

title Curtir Foto Instagram

participant Usuário
participant Sistema
database Banco

autonumber
Usuário -> Sistema: Escolhe foto
Usuário -> Sistema: Curtir foto
alt já curtiu
    Sistema -> Sistema: Descurtir foto
    Sistema -> Banco: Armazena descurtida
    Banco - -> Sistema:
    Sistema - -> Usuário: Exibe descurtida
else não curtiu
    Sistema -> Sistema: Curtir foto
    Sistema -> Banco: Armazena curtida
    Banco - -> Sistema:
    Sistema - -> Usuário: Exibe curtida
end

@enduml

PlantUML version 1.2022.7(Mon Aug 22 14:01:30 BRT 2022)
(GPL source distribution)
Java Runtime: OpenJDK Runtime Environment
JVM: OpenJDK 64-Bit Server VM
Default Encoding: Cp1252
Language: pt
Country: BR
--></g></svg>