<?xml version="1.0" encoding="UTF-8" standalone="no"?><svg xmlns="http://www.w3.org/2000/svg" xmlns:xlink="http://www.w3.org/1999/xlink" contentStyleType="text/css" height="515px" preserveAspectRatio="none" style="width:549px;height:515px;background:#FFFFFF;" version="1.1" viewBox="0 0 549 515" width="549px" zoomAndPan="magnify"><defs/><g><line style="stroke:#181818;stroke-width:0.5;stroke-dasharray:5.0,5.0;" x1="36" x2="36" y1="68.6094" y2="435.4766"/><line style="stroke:#181818;stroke-width:0.5;stroke-dasharray:5.0,5.0;" x1="185" x2="185" y1="68.6094" y2="435.4766"/><line style="stroke:#181818;stroke-width:0.5;stroke-dasharray:5.0,5.0;" x1="345.5" x2="345.5" y1="68.6094" y2="435.4766"/><line style="stroke:#181818;stroke-width:0.5;stroke-dasharray:5.0,5.0;" x1="514" x2="514" y1="68.6094" y2="435.4766"/><rect fill="#E2E2F0" height="31.6094" rx="2.5" ry="2.5" style="stroke:#181818;stroke-width:0.5;" width="62" x="5" y="36"/><text fill="#000000" font-family="sans-serif" font-size="14" lengthAdjust="spacing" textLength="48" x="12" y="57.5332">Usuário</text><rect fill="#E2E2F0" height="31.6094" rx="2.5" ry="2.5" style="stroke:#181818;stroke-width:0.5;" width="62" x="5" y="434.4766"/><text fill="#000000" font-family="sans-serif" font-size="14" lengthAdjust="spacing" textLength="48" x="12" y="456.0098">Usuário</text><rect fill="#E2E2F0" height="31.6094" rx="2.5" ry="2.5" style="stroke:#181818;stroke-width:0.5;" width="64" x="153" y="36"/><text fill="#000000" font-family="sans-serif" font-size="14" lengthAdjust="spacing" textLength="50" x="160" y="57.5332">Sistema</text><rect fill="#E2E2F0" height="31.6094" rx="2.5" ry="2.5" style="stroke:#181818;stroke-width:0.5;" width="64" x="153" y="434.4766"/><text fill="#000000" font-family="sans-serif" font-size="14" lengthAdjust="spacing" textLength="50" x="160" y="456.0098">Sistema</text><rect fill="#E2E2F0" height="31.6094" rx="2.5" ry="2.5" style="stroke:#181818;stroke-width:0.5;" width="67" x="312.5" y="36"/><text fill="#000000" font-family="sans-serif" font-size="14" lengthAdjust="spacing" textLength="53" x="319.5" y="57.5332">Servidor</text><rect fill="#E2E2F0" height="31.6094" rx="2.5" ry="2.5" style="stroke:#181818;stroke-width:0.5;" width="67" x="312.5" y="434.4766"/><text fill="#000000" font-family="sans-serif" font-size="14" lengthAdjust="spacing" textLength="53" x="319.5" y="456.0098">Servidor</text><text fill="#000000" font-family="sans-serif" font-size="14" lengthAdjust="spacing" textLength="40" x="491" y="65.5332">Banco</text><path d="M496,15 C496,5 514,5 514,5 C514,5 532,5 532,15 L532,41 C532,51 514,51 514,51 C514,51 496,51 496,41 L496,15 " fill="#E2E2F0" style="stroke:#181818;stroke-width:1.5;"/><path d="M496,15 C496,25 514,25 514,25 C514,25 532,25 532,15 " fill="none" style="stroke:#181818;stroke-width:1.5;"/><text fill="#000000" font-family="sans-serif" font-size="14" lengthAdjust="spacing" textLength="40" x="491" y="449.0098">Banco</text><path d="M496,462.0859 C496,452.0859 514,452.0859 514,452.0859 C514,452.0859 532,452.0859 532,462.0859 L532,488.0859 C532,498.0859 514,498.0859 514,498.0859 C514,498.0859 496,498.0859 496,488.0859 L496,462.0859 " fill="#E2E2F0" style="stroke:#181818;stroke-width:1.5;"/><path d="M496,462.0859 C496,472.0859 514,472.0859 514,472.0859 C514,472.0859 532,472.0859 532,462.0859 " fill="none" style="stroke:#181818;stroke-width:1.5;"/><polygon fill="#181818" points="173,96.9609,183,100.9609,173,104.9609,177,100.9609" style="stroke:#181818;stroke-width:1.0;"/><line style="stroke:#181818;stroke-width:1.0;" x1="36" x2="179" y1="100.9609" y2="100.9609"/><text fill="#000000" font-family="sans-serif" font-size="13" font-weight="bold" lengthAdjust="spacing" textLength="7" x="43" y="96.1045">1</text><text fill="#000000" font-family="sans-serif" font-size="13" lengthAdjust="spacing" textLength="93" x="54" y="96.1045">Escolhe reunião</text><polygon fill="#181818" points="502,127.3125,512,131.3125,502,135.3125,506,131.3125" style="stroke:#181818;stroke-width:1.0;"/><line style="stroke:#181818;stroke-width:1.0;" x1="185" x2="508" y1="131.3125" y2="131.3125"/><text fill="#000000" font-family="sans-serif" font-size="13" font-weight="bold" lengthAdjust="spacing" textLength="7" x="192" y="126.4561">2</text><text fill="#000000" font-family="sans-serif" font-size="13" lengthAdjust="spacing" textLength="83" x="203" y="126.4561">Busca reunião</text><polygon fill="#181818" points="196,157.6641,186,161.6641,196,165.6641,192,161.6641" style="stroke:#181818;stroke-width:1.0;"/><line style="stroke:#181818;stroke-width:1.0;stroke-dasharray:2.0,2.0;" x1="190" x2="513" y1="161.6641" y2="161.6641"/><text fill="#000000" font-family="sans-serif" font-size="13" font-weight="bold" lengthAdjust="spacing" textLength="7" x="202" y="156.8076">3</text><text fill="#000000" font-family="sans-serif" font-size="13" lengthAdjust="spacing" textLength="91" x="213" y="156.8076">Retorna reunião</text><polygon fill="#181818" points="47,188.0156,37,192.0156,47,196.0156,43,192.0156" style="stroke:#181818;stroke-width:1.0;"/><line style="stroke:#181818;stroke-width:1.0;stroke-dasharray:2.0,2.0;" x1="41" x2="184" y1="192.0156" y2="192.0156"/><text fill="#000000" font-family="sans-serif" font-size="13" font-weight="bold" lengthAdjust="spacing" textLength="7" x="53" y="187.1592">4</text><text fill="#000000" font-family="sans-serif" font-size="13" lengthAdjust="spacing" textLength="79" x="64" y="187.1592">Exibe reunião</text><line style="stroke:#181818;stroke-width:1.0;" x1="36" x2="78" y1="222.3672" y2="222.3672"/><line style="stroke:#181818;stroke-width:1.0;" x1="78" x2="78" y1="222.3672" y2="235.3672"/><line style="stroke:#181818;stroke-width:1.0;" x1="37" x2="78" y1="235.3672" y2="235.3672"/><polygon fill="#181818" points="47,231.3672,37,235.3672,47,239.3672,43,235.3672" style="stroke:#181818;stroke-width:1.0;"/><text fill="#000000" font-family="sans-serif" font-size="13" font-weight="bold" lengthAdjust="spacing" textLength="7" x="43" y="217.5107">5</text><text fill="#000000" font-family="sans-serif" font-size="13" lengthAdjust="spacing" textLength="95" x="54" y="217.5107">Entra na reunião</text><polygon fill="#181818" points="173,261.7188,183,265.7188,173,269.7188,177,265.7188" style="stroke:#181818;stroke-width:1.0;"/><line style="stroke:#181818;stroke-width:1.0;" x1="36" x2="179" y1="265.7188" y2="265.7188"/><text fill="#000000" font-family="sans-serif" font-size="13" font-weight="bold" lengthAdjust="spacing" textLength="7" x="43" y="260.8623">6</text><text fill="#000000" font-family="sans-serif" font-size="13" lengthAdjust="spacing" textLength="105" x="54" y="260.8623">Envia confirmação</text><polygon fill="#181818" points="334,292.0703,344,296.0703,334,300.0703,338,296.0703" style="stroke:#181818;stroke-width:1.0;"/><line style="stroke:#181818;stroke-width:1.0;" x1="185" x2="340" y1="296.0703" y2="296.0703"/><text fill="#000000" font-family="sans-serif" font-size="13" font-weight="bold" lengthAdjust="spacing" textLength="7" x="192" y="291.2139">7</text><text fill="#000000" font-family="sans-serif" font-size="13" lengthAdjust="spacing" textLength="105" x="203" y="291.2139">Envia confirmação</text><polygon fill="#181818" points="502,322.4219,512,326.4219,502,330.4219,506,326.4219" style="stroke:#181818;stroke-width:1.0;"/><line style="stroke:#181818;stroke-width:1.0;" x1="346" x2="508" y1="326.4219" y2="326.4219"/><text fill="#000000" font-family="sans-serif" font-size="13" font-weight="bold" lengthAdjust="spacing" textLength="7" x="353" y="321.5654">8</text><text fill="#000000" font-family="sans-serif" font-size="13" lengthAdjust="spacing" textLength="133" x="364" y="321.5654">Armazena confirmação</text><polygon fill="#181818" points="357,352.7734,347,356.7734,357,360.7734,353,356.7734" style="stroke:#181818;stroke-width:1.0;"/><line style="stroke:#181818;stroke-width:1.0;stroke-dasharray:2.0,2.0;" x1="351" x2="513" y1="356.7734" y2="356.7734"/><text fill="#000000" font-family="sans-serif" font-size="13" font-weight="bold" lengthAdjust="spacing" textLength="7" x="363" y="351.917">9</text><text fill="#000000" font-family="sans-serif" font-size="13" lengthAdjust="spacing" textLength="4" x="374" y="351.917"> </text><polygon fill="#181818" points="196,383.125,186,387.125,196,391.125,192,387.125" style="stroke:#181818;stroke-width:1.0;"/><line style="stroke:#181818;stroke-width:1.0;stroke-dasharray:2.0,2.0;" x1="190" x2="345" y1="387.125" y2="387.125"/><text fill="#000000" font-family="sans-serif" font-size="13" font-weight="bold" lengthAdjust="spacing" textLength="14" x="202" y="382.2686">10</text><text fill="#000000" font-family="sans-serif" font-size="13" lengthAdjust="spacing" textLength="119" x="220" y="382.2686">Retorna confirmação</text><polygon fill="#181818" points="47,413.4766,37,417.4766,47,421.4766,43,417.4766" style="stroke:#181818;stroke-width:1.0;"/><line style="stroke:#181818;stroke-width:1.0;stroke-dasharray:2.0,2.0;" x1="41" x2="184" y1="417.4766" y2="417.4766"/><text fill="#000000" font-family="sans-serif" font-size="13" font-weight="bold" lengthAdjust="spacing" textLength="14" x="53" y="412.6201">11</text><text fill="#000000" font-family="sans-serif" font-size="13" lengthAdjust="spacing" textLength="107" x="71" y="412.6201">Exibe confirmação</text><!--MD5=[3760cfde44243d6eaeca15f90beb18ec]
@startuml 10 - Entrar na Reunião do Teams

participant Usuário
participant Sistema
participant Servidor
database Banco

autonumber
Usuário -> Sistema: Escolhe reunião
Sistema -> Banco: Busca reunião
Banco - -> Sistema: Retorna reunião
Sistema - -> Usuário: Exibe reunião
Usuário -> Usuário: Entra na reunião
Usuário -> Sistema: Envia confirmação
Sistema -> Servidor: Envia confirmação
Servidor -> Banco: Armazena confirmação
Banco - -> Servidor:
Servidor - -> Sistema: Retorna confirmação
Sistema - -> Usuário: Exibe confirmação

@enduml

PlantUML version 1.2022.7(Mon Aug 22 14:01:30 BRT 2022)
(GPL source distribution)
Java Runtime: OpenJDK Runtime Environment
JVM: OpenJDK 64-Bit Server VM
Default Encoding: Cp1252
Language: pt
Country: BR
--></g></svg>