<?xml version="1.0" encoding="UTF-8" standalone="no"?><svg xmlns="http://www.w3.org/2000/svg" xmlns:xlink="http://www.w3.org/1999/xlink" contentStyleType="text/css" height="425px" preserveAspectRatio="none" style="width:345px;height:425px;background:#FFFFFF;" version="1.1" viewBox="0 0 345 425" width="345px" zoomAndPan="magnify"><defs/><g><rect fill="none" height="27.6094" id="_title" style="stroke:none;stroke-width:1.0;" width="189" x="76.5" y="15"/><text fill="#000000" font-family="sans-serif" font-size="14" font-weight="bold" lengthAdjust="spacing" textLength="179" x="81.5" y="34.5332">Agendamento Veterinario</text><ellipse cx="172.5" cy="58.6094" fill="#222222" rx="10" ry="10" style="stroke:#222222;stroke-width:1.0;"/><rect fill="#555555" height="6" rx="2.5" ry="2.5" style="stroke:#555555;stroke-width:1.0;" width="323" x="11" y="88.6094"/><rect fill="#F1F1F1" height="35.0938" rx="12.5" ry="12.5" style="stroke:#181818;stroke-width:0.5;" width="126" x="23" y="114.6094"/><text fill="#000000" font-family="sans-serif" font-size="12" lengthAdjust="spacing" textLength="106" x="33" y="137.0664">Seleciona o animal</text><rect fill="#F1F1F1" height="35.0938" rx="12.5" ry="12.5" style="stroke:#181818;stroke-width:0.5;" width="145" x="177" y="114.6094"/><text fill="#000000" font-family="sans-serif" font-size="12" lengthAdjust="spacing" textLength="125" x="187" y="137.0664">Seleciona o veterinario</text><rect fill="#555555" height="6" rx="2.5" ry="2.5" style="stroke:#555555;stroke-width:1.0;" width="323" x="11" y="169.7031"/><rect fill="#F1F1F1" height="35.0938" rx="12.5" ry="12.5" style="stroke:#181818;stroke-width:0.5;" width="164" x="90.5" y="195.7031"/><text fill="#000000" font-family="sans-serif" font-size="12" lengthAdjust="spacing" textLength="144" x="100.5" y="218.1602">Seleciona a data e horario</text><polygon fill="#F1F1F1" points="108.5,270.7969,236.5,270.7969,248.5,282.7969,236.5,294.7969,108.5,294.7969,96.5,282.7969,108.5,270.7969" style="stroke:#181818;stroke-width:0.5;"/><text fill="#000000" font-family="sans-serif" font-size="11" lengthAdjust="spacing" textLength="128" x="108.5" y="287.2979">Data e horario disponivel ?</text><text fill="#000000" font-family="sans-serif" font-size="11" lengthAdjust="spacing" textLength="18" x="248.5" y="280.3799">não</text><rect fill="#F1F1F1" height="35.0938" rx="12.5" ry="12.5" style="stroke:#181818;stroke-width:0.5;" width="151" x="97" y="337.0498"/><text fill="#000000" font-family="sans-serif" font-size="12" lengthAdjust="spacing" textLength="131" x="107" y="359.5068">Confirma agendamento</text><ellipse cx="172.5" cy="403.1436" fill="none" rx="11" ry="11" style="stroke:#222222;stroke-width:1.0;"/><ellipse cx="172.5" cy="403.1436" fill="#222222" rx="6" ry="6" style="stroke:#111111;stroke-width:1.0;"/><line style="stroke:#181818;stroke-width:1.0;" x1="86" x2="86" y1="94.6094" y2="114.6094"/><polygon fill="#181818" points="82,104.6094,86,114.6094,90,104.6094,86,108.6094" style="stroke:#181818;stroke-width:1.0;"/><line style="stroke:#181818;stroke-width:1.0;" x1="249.5" x2="249.5" y1="94.6094" y2="114.6094"/><polygon fill="#181818" points="245.5,104.6094,249.5,114.6094,253.5,104.6094,249.5,108.6094" style="stroke:#181818;stroke-width:1.0;"/><line style="stroke:#181818;stroke-width:1.0;" x1="86" x2="86" y1="149.7031" y2="169.7031"/><polygon fill="#181818" points="82,159.7031,86,169.7031,90,159.7031,86,163.7031" style="stroke:#181818;stroke-width:1.0;"/><line style="stroke:#181818;stroke-width:1.0;" x1="249.5" x2="249.5" y1="149.7031" y2="169.7031"/><polygon fill="#181818" points="245.5,159.7031,249.5,169.7031,253.5,159.7031,249.5,163.7031" style="stroke:#181818;stroke-width:1.0;"/><line style="stroke:#181818;stroke-width:1.0;" x1="172.5" x2="172.5" y1="68.6094" y2="88.6094"/><polygon fill="#181818" points="168.5,78.6094,172.5,88.6094,176.5,78.6094,172.5,82.6094" style="stroke:#181818;stroke-width:1.0;"/><line style="stroke:#181818;stroke-width:1.0;" x1="172.5" x2="172.5" y1="230.7969" y2="270.7969"/><polygon fill="#181818" points="168.5,260.7969,172.5,270.7969,176.5,260.7969,172.5,264.7969" style="stroke:#181818;stroke-width:1.0;"/><line style="stroke:#181818;stroke-width:1.0;" x1="248.5" x2="266.5" y1="282.7969" y2="282.7969"/><polygon fill="#181818" points="262.5,250.7969,266.5,240.7969,270.5,250.7969,266.5,246.7969" style="stroke:#181818;stroke-width:1.0;"/><line style="stroke:#181818;stroke-width:1.0;" x1="266.5" x2="266.5" y1="213.25" y2="282.7969"/><line style="stroke:#181818;stroke-width:1.0;" x1="266.5" x2="254.5" y1="213.25" y2="213.25"/><polygon fill="#181818" points="264.5,209.25,254.5,213.25,264.5,217.25,260.5,213.25" style="stroke:#181818;stroke-width:1.0;"/><line style="stroke:#181818;stroke-width:1.0;" x1="172.5" x2="172.5" y1="175.7031" y2="195.7031"/><polygon fill="#181818" points="168.5,185.7031,172.5,195.7031,176.5,185.7031,172.5,189.7031" style="stroke:#181818;stroke-width:1.0;"/><line style="stroke:#181818;stroke-width:1.0;" x1="172.5" x2="172.5" y1="294.7969" y2="337.0498"/><polygon fill="#181818" points="168.5,327.0498,172.5,337.0498,176.5,327.0498,172.5,331.0498" style="stroke:#181818;stroke-width:1.0;"/><text fill="#000000" font-family="sans-serif" font-size="11" lengthAdjust="spacing" textLength="17" x="176.5" y="317.1328">Sim</text><line style="stroke:#181818;stroke-width:1.0;" x1="172.5" x2="172.5" y1="372.1436" y2="392.1436"/><polygon fill="#181818" points="168.5,382.1436,172.5,392.1436,176.5,382.1436,172.5,386.1436" style="stroke:#181818;stroke-width:1.0;"/><!--MD5=[f3fe9df86ddf910218297c72a81480aa]
@startuml AgendamentoVeterinario

title Agendamento Veterinario

start

fork
    :Seleciona o animal;
fork again
    :Seleciona o veterinario;
end fork
repeat :Seleciona a data e horario;
repeat while (Data e horario disponivel ?) is (não)
-> Sim;
:Confirma agendamento;
stop

@enduml

PlantUML version 1.2022.7(Mon Aug 22 14:01:30 BRT 2022)
(GPL source distribution)
Java Runtime: OpenJDK Runtime Environment
JVM: OpenJDK 64-Bit Server VM
Default Encoding: Cp1252
Language: pt
Country: BR
--></g></svg>