<?xml version="1.0" encoding="UTF-8" standalone="no"?><svg xmlns="http://www.w3.org/2000/svg" xmlns:xlink="http://www.w3.org/1999/xlink" contentStyleType="text/css" height="701px" preserveAspectRatio="none" style="width:588px;height:701px;background:#FFFFFF;" version="1.1" viewBox="0 0 588 701" width="588px" zoomAndPan="magnify"><defs/><g><rect fill="none" height="27.6094" id="_title" style="stroke:none;stroke-width:1.0;" width="149" x="218" y="15"/><text fill="#000000" font-family="sans-serif" font-size="14" font-weight="bold" lengthAdjust="spacing" textLength="139" x="223" y="34.5332">Cadastro de Cliente</text><ellipse cx="292.5" cy="58.6094" fill="#222222" rx="10" ry="10" style="stroke:#222222;stroke-width:1.0;"/><rect fill="#F1F1F1" height="35.0938" rx="12.5" ry="12.5" style="stroke:#181818;stroke-width:0.5;" width="143" x="221" y="88.6094"/><text fill="#000000" font-family="sans-serif" font-size="12" lengthAdjust="spacing" textLength="120" x="234" y="111.0664">Usuário insere dados</text><rect fill="#F1F1F1" height="35.0938" rx="12.5" ry="12.5" style="stroke:#181818;stroke-width:0.5;" width="170" x="207.5" y="143.7031"/><text fill="#000000" font-family="sans-serif" font-size="12" lengthAdjust="spacing" textLength="147" x="220.5" y="166.1602">Sistema consulta cadastro</text><polygon fill="#F1F1F1" points="258,198.7969,327,198.7969,339,210.7969,327,222.7969,258,222.7969,246,210.7969,258,198.7969" style="stroke:#181818;stroke-width:0.5;"/><text fill="#000000" font-family="sans-serif" font-size="11" lengthAdjust="spacing" textLength="69" x="258" y="215.2979">Conta existe ?</text><rect fill="#F1F1F1" height="35.0938" rx="12.5" ry="12.5" style="stroke:#181818;stroke-width:0.5;" width="192" x="11" y="260.4688"/><text fill="#000000" font-family="sans-serif" font-size="12" lengthAdjust="spacing" textLength="169" x="24" y="282.9258">Mensagem "cadastro já existe"</text><ellipse cx="107" cy="325.5625" fill="none" rx="10" ry="10" style="stroke:#222222;stroke-width:1.5;"/><line style="stroke:#222222;stroke-width:2.5;" x1="100.8128" x2="113.1872" y1="319.3753" y2="331.7497"/><line style="stroke:#222222;stroke-width:2.5;" x1="113.1872" x2="100.8128" y1="319.3753" y2="331.7497"/><rect fill="#F1F1F1" height="35.0938" rx="12.5" ry="12.5" style="stroke:#181818;stroke-width:0.5;" width="327" x="223" y="317.4688"/><text fill="#000000" font-family="sans-serif" font-size="12" lengthAdjust="spacing" textLength="304" x="236" y="339.9258">Sistema solicita preenchimento dos dados de cadastro</text><rect fill="#F1F1F1" height="35.0938" rx="12.5" ry="12.5" style="stroke:#181818;stroke-width:0.5;" width="177" x="298" y="372.5625"/><text fill="#000000" font-family="sans-serif" font-size="12" lengthAdjust="spacing" textLength="154" x="311" y="395.0195">Usuário preenche os dados</text><rect fill="#F1F1F1" height="35.0938" rx="12.5" ry="12.5" style="stroke:#181818;stroke-width:0.5;" width="214" x="279.5" y="427.6563"/><text fill="#000000" font-family="sans-serif" font-size="12" lengthAdjust="spacing" textLength="191" x="292.5" y="450.1133">Sistema valida dados preenchidos</text><polygon fill="#F1F1F1" points="386.5,260.4688,398.5,272.4688,386.5,284.4688,374.5,272.4688,386.5,260.4688" style="stroke:#181818;stroke-width:0.5;"/><polygon fill="#F1F1F1" points="344.5,482.75,428.5,482.75,440.5,494.75,428.5,506.75,344.5,506.75,332.5,494.75,344.5,482.75" style="stroke:#181818;stroke-width:0.5;"/><text fill="#000000" font-family="sans-serif" font-size="11" lengthAdjust="spacing" textLength="84" x="344.5" y="499.251">Dados corretos ?</text><text fill="#000000" font-family="sans-serif" font-size="11" lengthAdjust="spacing" textLength="90" x="440.5" y="492.333">Mensagem de erro</text><rect fill="#F1F1F1" height="35.0938" rx="12.5" ry="12.5" style="stroke:#181818;stroke-width:0.5;" width="145" x="314" y="526.75"/><text fill="#000000" font-family="sans-serif" font-size="12" lengthAdjust="spacing" textLength="122" x="327" y="549.207">Salva os dados no BD</text><rect fill="#F1F1F1" height="35.0938" rx="12.5" ry="12.5" style="stroke:#181818;stroke-width:0.5;" width="273" x="250" y="581.8438"/><text fill="#000000" font-family="sans-serif" font-size="12" lengthAdjust="spacing" textLength="250" x="263" y="604.3008">Mensagem "cadastro efetuado com sucesso"</text><polygon fill="#F1F1F1" points="292.5,626.9375,292.5,626.9375,304.5,638.9375,292.5,650.9375,292.5,650.9375,280.5,638.9375,292.5,626.9375" style="stroke:#181818;stroke-width:0.5;"/><ellipse cx="292.5" cy="680.9375" fill="none" rx="10" ry="10" style="stroke:#222222;stroke-width:1.5;"/><line style="stroke:#222222;stroke-width:2.5;" x1="286.3128" x2="298.6872" y1="674.7503" y2="687.1247"/><line style="stroke:#222222;stroke-width:2.5;" x1="298.6872" x2="286.3128" y1="674.7503" y2="687.1247"/><line style="stroke:#181818;stroke-width:1.0;" x1="292.5" x2="292.5" y1="68.6094" y2="88.6094"/><polygon fill="#181818" points="288.5,78.6094,292.5,88.6094,296.5,78.6094,292.5,82.6094" style="stroke:#181818;stroke-width:1.0;"/><line style="stroke:#181818;stroke-width:1.0;" x1="292.5" x2="292.5" y1="123.7031" y2="143.7031"/><polygon fill="#181818" points="288.5,133.7031,292.5,143.7031,296.5,133.7031,292.5,137.7031" style="stroke:#181818;stroke-width:1.0;"/><line style="stroke:#181818;stroke-width:1.0;" x1="107" x2="107" y1="295.5625" y2="315.5625"/><polygon fill="#181818" points="103,305.5625,107,315.5625,111,305.5625,107,309.5625" style="stroke:#181818;stroke-width:1.0;"/><line style="stroke:#181818;stroke-width:1.0;" x1="386.5" x2="386.5" y1="352.5625" y2="372.5625"/><polygon fill="#181818" points="382.5,362.5625,386.5,372.5625,390.5,362.5625,386.5,366.5625" style="stroke:#181818;stroke-width:1.0;"/><line style="stroke:#181818;stroke-width:1.0;" x1="386.5" x2="386.5" y1="407.6563" y2="427.6563"/><polygon fill="#181818" points="382.5,417.6563,386.5,427.6563,390.5,417.6563,386.5,421.6563" style="stroke:#181818;stroke-width:1.0;"/><line style="stroke:#181818;stroke-width:1.0;" x1="386.5" x2="386.5" y1="284.4688" y2="317.4688"/><polygon fill="#181818" points="382.5,307.4688,386.5,317.4688,390.5,307.4688,386.5,311.4688" style="stroke:#181818;stroke-width:1.0;"/><line style="stroke:#181818;stroke-width:1.0;" x1="440.5" x2="562" y1="494.75" y2="494.75"/><polygon fill="#181818" points="558,400.1094,562,390.1094,566,400.1094,562,396.1094" style="stroke:#181818;stroke-width:1.0;"/><line style="stroke:#181818;stroke-width:1.0;" x1="562" x2="562" y1="272.4688" y2="494.75"/><line style="stroke:#181818;stroke-width:1.0;" x1="562" x2="398.5" y1="272.4688" y2="272.4688"/><polygon fill="#181818" points="408.5,268.4688,398.5,272.4688,408.5,276.4688,404.5,272.4688" style="stroke:#181818;stroke-width:1.0;"/><line style="stroke:#181818;stroke-width:1.0;" x1="386.5" x2="386.5" y1="462.75" y2="482.75"/><polygon fill="#181818" points="382.5,472.75,386.5,482.75,390.5,472.75,386.5,476.75" style="stroke:#181818;stroke-width:1.0;"/><line style="stroke:#181818;stroke-width:1.0;" x1="386.5" x2="386.5" y1="506.75" y2="526.75"/><polygon fill="#181818" points="382.5,516.75,386.5,526.75,390.5,516.75,386.5,520.75" style="stroke:#181818;stroke-width:1.0;"/><line style="stroke:#181818;stroke-width:1.0;" x1="386.5" x2="386.5" y1="561.8438" y2="581.8438"/><polygon fill="#181818" points="382.5,571.8438,386.5,581.8438,390.5,571.8438,386.5,575.8438" style="stroke:#181818;stroke-width:1.0;"/><line style="stroke:#181818;stroke-width:1.0;" x1="246" x2="107" y1="210.7969" y2="210.7969"/><line style="stroke:#181818;stroke-width:1.0;" x1="107" x2="107" y1="210.7969" y2="260.4688"/><polygon fill="#181818" points="103,250.4688,107,260.4688,111,250.4688,107,254.4688" style="stroke:#181818;stroke-width:1.0;"/><text fill="#000000" font-family="sans-serif" font-size="11" lengthAdjust="spacing" textLength="29" x="107" y="240.1338">Existe</text><line style="stroke:#181818;stroke-width:1.0;" x1="339" x2="386.5" y1="210.7969" y2="210.7969"/><line style="stroke:#181818;stroke-width:1.0;" x1="386.5" x2="386.5" y1="210.7969" y2="260.4688"/><polygon fill="#181818" points="382.5,250.4688,386.5,260.4688,390.5,250.4688,386.5,254.4688" style="stroke:#181818;stroke-width:1.0;"/><text fill="#000000" font-family="sans-serif" font-size="11" lengthAdjust="spacing" textLength="51" x="386.5" y="240.1338">Não existe</text><line style="stroke:#181818;stroke-width:1.0;" x1="386.5" x2="386.5" y1="616.9375" y2="638.9375"/><line style="stroke:#181818;stroke-width:1.0;" x1="386.5" x2="304.5" y1="638.9375" y2="638.9375"/><polygon fill="#181818" points="314.5,634.9375,304.5,638.9375,314.5,642.9375,310.5,638.9375" style="stroke:#181818;stroke-width:1.0;"/><line style="stroke:#181818;stroke-width:1.0;" x1="292.5" x2="292.5" y1="178.7969" y2="198.7969"/><polygon fill="#181818" points="288.5,188.7969,292.5,198.7969,296.5,188.7969,292.5,192.7969" style="stroke:#181818;stroke-width:1.0;"/><line style="stroke:#181818;stroke-width:1.0;" x1="292.5" x2="292.5" y1="650.9375" y2="670.9375"/><polygon fill="#181818" points="288.5,660.9375,292.5,670.9375,296.5,660.9375,292.5,664.9375" style="stroke:#181818;stroke-width:1.0;"/><!--MD5=[b659f004d24acc926210f31212b1f8c0]
@startuml CadastroDeCliente

title Cadastro de Cliente

start

: Usuário insere dados;
: Sistema consulta cadastro;
switch (Conta existe ?)
 case (Existe)
  : Mensagem "cadastro já existe";
 end
 case (Não existe)
  repeat
   : Sistema solicita preenchimento dos dados de cadastro;
   : Usuário preenche os dados;
   : Sistema valida dados preenchidos;
  repeat while (Dados corretos ?) is (Mensagem de erro)
  : Salva os dados no BD;
  : Mensagem "cadastro efetuado com sucesso";
endswitch

end

@enduml

PlantUML version 1.2022.7(Mon Aug 22 14:01:30 BRT 2022)
(GPL source distribution)
Java Runtime: OpenJDK Runtime Environment
JVM: OpenJDK 64-Bit Server VM
Default Encoding: Cp1252
Language: pt
Country: BR
--></g></svg>