<?xml version="1.0" encoding="UTF-8" standalone="no"?><svg xmlns="http://www.w3.org/2000/svg" xmlns:xlink="http://www.w3.org/1999/xlink" contentStyleType="text/css" height="607px" preserveAspectRatio="none" style="width:715px;height:607px;background:#FFFFFF;" version="1.1" viewBox="0 0 715 607" width="715px" zoomAndPan="magnify"><defs/><g><rect fill="none" height="27.6094" id="_title" style="stroke:none;stroke-width:1.0;" width="153" x="279.5" y="15"/><text fill="#000000" font-family="sans-serif" font-size="14" font-weight="bold" lengthAdjust="spacing" textLength="143" x="284.5" y="34.5332">Cadastro de Serviço</text><ellipse cx="162.5" cy="58.6094" fill="#222222" rx="10" ry="10" style="stroke:#222222;stroke-width:1.0;"/><rect fill="#F1F1F1" height="35.0938" rx="12.5" ry="12.5" style="stroke:#181818;stroke-width:0.5;" width="153" x="86" y="143.7031"/><text fill="#000000" font-family="sans-serif" font-size="12" lengthAdjust="spacing" textLength="133" x="96" y="166.1602">Sistema valida o serviço</text><rect fill="#F1F1F1" height="35.0938" rx="12.5" ry="12.5" style="stroke:#181818;stroke-width:0.5;" width="269" x="28" y="88.6094"/><text fill="#000000" font-family="sans-serif" font-size="12" lengthAdjust="spacing" textLength="249" x="38" y="111.0664">Usuário preenche serviço que deseja realizar</text><polygon fill="#F1F1F1" points="82.5,203.25,242.5,203.25,254.5,215.25,242.5,227.25,82.5,227.25,70.5,215.25,82.5,203.25" style="stroke:#181818;stroke-width:0.5;"/><text fill="#000000" font-family="sans-serif" font-size="11" lengthAdjust="spacing" textLength="160" x="82.5" y="219.751">Este serviço já existe no banco ?</text><text fill="#000000" font-family="sans-serif" font-size="11" lengthAdjust="spacing" textLength="76" x="254.5" y="212.833">Cadastro existe</text><rect fill="#F1F1F1" height="35.0938" rx="12.5" ry="12.5" style="stroke:#181818;stroke-width:0.5;" width="383" x="321" y="138.1563"/><text fill="#000000" font-family="sans-serif" font-size="12" lengthAdjust="spacing" textLength="360" x="334" y="160.6133">Sistema exibe o erro informando que o serviço ja está cadastrado</text><rect fill="#F1F1F1" height="35.0938" rx="12.5" ry="12.5" style="stroke:#181818;stroke-width:0.5;" width="303" x="11" y="269.5029"/><text fill="#000000" font-family="sans-serif" font-size="12" lengthAdjust="spacing" textLength="283" x="21" y="291.96">Sistema libera preenchimento dos demais campos</text><rect fill="#F1F1F1" height="35.0938" rx="12.5" ry="12.5" style="stroke:#181818;stroke-width:0.5;" width="292" x="16.5" y="324.5967"/><text fill="#000000" font-family="sans-serif" font-size="12" lengthAdjust="spacing" textLength="272" x="26.5" y="347.0537">Usuário preenche campos e clica no botão salvar</text><polygon fill="#F1F1F1" points="73.5,399.6904,251.5,399.6904,263.5,411.6904,251.5,423.6904,73.5,423.6904,61.5,411.6904,73.5,399.6904" style="stroke:#181818;stroke-width:0.5;"/><text fill="#000000" font-family="sans-serif" font-size="11" lengthAdjust="spacing" textLength="178" x="73.5" y="416.1914">Campos preenchidos corretamente ?</text><text fill="#000000" font-family="sans-serif" font-size="11" lengthAdjust="spacing" textLength="91" x="263.5" y="409.2734">Campos incorretos</text><rect fill="#F1F1F1" height="35.0938" rx="12.5" ry="12.5" style="stroke:#181818;stroke-width:0.5;" width="282" x="21.5" y="465.9434"/><text fill="#000000" font-family="sans-serif" font-size="12" lengthAdjust="spacing" textLength="262" x="31.5" y="488.4004">Sistema salva informações no Banco de Dados</text><rect fill="#F1F1F1" height="35.0938" rx="12.5" ry="12.5" style="stroke:#181818;stroke-width:0.5;" width="243" x="41" y="521.0371"/><text fill="#000000" font-family="sans-serif" font-size="12" lengthAdjust="spacing" textLength="223" x="51" y="543.4941">Sistema retorna mensagem de sucesso</text><ellipse cx="162.5" cy="586.1309" fill="none" rx="10" ry="10" style="stroke:#222222;stroke-width:1.5;"/><line style="stroke:#222222;stroke-width:2.5;" x1="156.3128" x2="168.6872" y1="579.9437" y2="592.318"/><line style="stroke:#222222;stroke-width:2.5;" x1="168.6872" x2="156.3128" y1="579.9437" y2="592.318"/><line style="stroke:#181818;stroke-width:1.0;" x1="162.5" x2="162.5" y1="123.7031" y2="143.7031"/><polygon fill="#181818" points="158.5,133.7031,162.5,143.7031,166.5,133.7031,162.5,137.7031" style="stroke:#181818;stroke-width:1.0;"/><line style="stroke:#181818;stroke-width:1.0;" x1="254.5" x2="512.5" y1="215.25" y2="215.25"/><line style="stroke:#181818;stroke-width:1.0;" x1="512.5" x2="512.5" y1="173.25" y2="215.25"/><polygon fill="#181818" points="508.5,183.25,512.5,173.25,516.5,183.25,512.5,179.25" style="stroke:#181818;stroke-width:1.0;"/><line style="stroke:#181818;stroke-width:1.0;" x1="512.5" x2="512.5" y1="106.1563" y2="138.1563"/><line style="stroke:#181818;stroke-width:1.0;" x1="512.5" x2="297" y1="106.1563" y2="106.1563"/><polygon fill="#181818" points="307,102.1563,297,106.1563,307,110.1563,303,106.1563" style="stroke:#181818;stroke-width:1.0;"/><line style="stroke:#181818;stroke-width:1.0;" x1="162.5" x2="162.5" y1="178.7969" y2="203.25"/><polygon fill="#181818" points="158.5,193.25,162.5,203.25,166.5,193.25,162.5,197.25" style="stroke:#181818;stroke-width:1.0;"/><line style="stroke:#181818;stroke-width:1.0;" x1="162.5" x2="162.5" y1="68.6094" y2="88.6094"/><polygon fill="#181818" points="158.5,78.6094,162.5,88.6094,166.5,78.6094,162.5,82.6094" style="stroke:#181818;stroke-width:1.0;"/><line style="stroke:#181818;stroke-width:1.0;" x1="162.5" x2="162.5" y1="227.25" y2="269.5029"/><polygon fill="#181818" points="158.5,259.5029,162.5,269.5029,166.5,259.5029,162.5,263.5029" style="stroke:#181818;stroke-width:1.0;"/><text fill="#000000" font-family="sans-serif" font-size="11" lengthAdjust="spacing" textLength="51" x="166.5" y="249.5859">Não existe</text><line style="stroke:#181818;stroke-width:1.0;" x1="162.5" x2="162.5" y1="359.6904" y2="399.6904"/><polygon fill="#181818" points="158.5,389.6904,162.5,399.6904,166.5,389.6904,162.5,393.6904" style="stroke:#181818;stroke-width:1.0;"/><line style="stroke:#181818;stroke-width:1.0;" x1="263.5" x2="320.5" y1="411.6904" y2="411.6904"/><polygon fill="#181818" points="316.5,379.6904,320.5,369.6904,324.5,379.6904,320.5,375.6904" style="stroke:#181818;stroke-width:1.0;"/><line style="stroke:#181818;stroke-width:1.0;" x1="320.5" x2="320.5" y1="342.1436" y2="411.6904"/><line style="stroke:#181818;stroke-width:1.0;" x1="320.5" x2="308.5" y1="342.1436" y2="342.1436"/><polygon fill="#181818" points="318.5,338.1436,308.5,342.1436,318.5,346.1436,314.5,342.1436" style="stroke:#181818;stroke-width:1.0;"/><line style="stroke:#181818;stroke-width:1.0;" x1="162.5" x2="162.5" y1="304.5967" y2="324.5967"/><polygon fill="#181818" points="158.5,314.5967,162.5,324.5967,166.5,314.5967,162.5,318.5967" style="stroke:#181818;stroke-width:1.0;"/><line style="stroke:#181818;stroke-width:1.0;" x1="162.5" x2="162.5" y1="423.6904" y2="465.9434"/><polygon fill="#181818" points="158.5,455.9434,162.5,465.9434,166.5,455.9434,162.5,459.9434" style="stroke:#181818;stroke-width:1.0;"/><text fill="#000000" font-family="sans-serif" font-size="11" lengthAdjust="spacing" textLength="42" x="166.5" y="446.0264">Corretos</text><line style="stroke:#181818;stroke-width:1.0;" x1="162.5" x2="162.5" y1="501.0371" y2="521.0371"/><polygon fill="#181818" points="158.5,511.0371,162.5,521.0371,166.5,511.0371,162.5,515.0371" style="stroke:#181818;stroke-width:1.0;"/><line style="stroke:#181818;stroke-width:1.0;" x1="162.5" x2="162.5" y1="556.1309" y2="576.1309"/><polygon fill="#181818" points="158.5,566.1309,162.5,576.1309,166.5,566.1309,162.5,570.1309" style="stroke:#181818;stroke-width:1.0;"/><!--MD5=[d73c462d43c43b291c6020cc2415d367]
@startuml CadastroDeServico

title Cadastro de Serviço

start

 repeat :Usuário preenche serviço que deseja realizar;
  :Sistema valida o serviço;
  backward: Sistema exibe o erro informando que o serviço ja está cadastrado;
 repeat while (Este serviço já existe no banco ?) is (Cadastro existe)
 -> Não existe;
 :Sistema libera preenchimento dos demais campos;
  repeat :Usuário preenche campos e clica no botão salvar;
  repeat while (Campos preenchidos corretamente ?) is (Campos incorretos)
  -> Corretos;
  :Sistema salva informações no Banco de Dados;
  :Sistema retorna mensagem de sucesso;

end

@enduml

PlantUML version 1.2022.7(Mon Aug 22 14:01:30 BRT 2022)
(GPL source distribution)
Java Runtime: OpenJDK Runtime Environment
JVM: OpenJDK 64-Bit Server VM
Default Encoding: Cp1252
Language: pt
Country: BR
--></g></svg>