<?xml version="1.0" encoding="UTF-8" standalone="no"?><svg xmlns="http://www.w3.org/2000/svg" xmlns:xlink="http://www.w3.org/1999/xlink" contentStyleType="text/css" height="431px" preserveAspectRatio="none" style="width:500px;height:431px;background:#FFFFFF;" version="1.1" viewBox="0 0 500 431" width="500px" zoomAndPan="magnify"><defs/><g><rect fill="none" height="27.6094" id="_title" style="stroke:none;stroke-width:1.0;" width="158" x="169.5" y="15"/><text fill="#000000" font-family="sans-serif" font-size="14" font-weight="bold" lengthAdjust="spacing" textLength="148" x="174.5" y="34.5332">Relatório de Clientes</text><ellipse cx="247" cy="58.6094" fill="#222222" rx="10" ry="10" style="stroke:#222222;stroke-width:1.0;"/><rect fill="#F1F1F1" height="35.0938" rx="12.5" ry="12.5" style="stroke:#181818;stroke-width:0.5;" width="243" x="125.5" y="88.6094"/><text fill="#000000" font-family="sans-serif" font-size="12" lengthAdjust="spacing" textLength="220" x="138.5" y="111.0664">Usuário seleciona filtros para o relatório</text><rect fill="#F1F1F1" height="35.0938" rx="12.5" ry="12.5" style="stroke:#181818;stroke-width:0.5;" width="212" x="141" y="143.7031"/><text fill="#000000" font-family="sans-serif" font-size="12" lengthAdjust="spacing" textLength="189" x="154" y="166.1602">Sistema realiza consulta no banco</text><rect fill="#F1F1F1" height="35.0938" rx="12.5" ry="12.5" style="stroke:#181818;stroke-width:0.5;" width="278" x="108" y="198.7969"/><text fill="#000000" font-family="sans-serif" font-size="12" lengthAdjust="spacing" textLength="255" x="121" y="221.2539">Banco verifica se existem retornos da consulta</text><polygon fill="#F1F1F1" points="209,253.8906,285,253.8906,297,265.8906,285,277.8906,209,277.8906,197,265.8906,209,253.8906" style="stroke:#181818;stroke-width:0.5;"/><text fill="#000000" font-family="sans-serif" font-size="11" lengthAdjust="spacing" textLength="76" x="209" y="270.3916">Existe retorno ?</text><text fill="#000000" font-family="sans-serif" font-size="11" lengthAdjust="spacing" textLength="16" x="181" y="263.4736">sim</text><text fill="#000000" font-family="sans-serif" font-size="11" lengthAdjust="spacing" textLength="18" x="297" y="263.4736">não</text><rect fill="#F1F1F1" height="35.0938" rx="12.5" ry="12.5" style="stroke:#181818;stroke-width:0.5;" width="223" x="11" y="287.8906"/><text fill="#000000" font-family="sans-serif" font-size="12" lengthAdjust="spacing" textLength="200" x="24" y="310.3477">Sistema monta retornos da consulta</text><rect fill="#F1F1F1" height="35.0938" rx="12.5" ry="12.5" style="stroke:#181818;stroke-width:0.5;" width="212" x="16.5" y="342.9844"/><text fill="#000000" font-family="sans-serif" font-size="12" lengthAdjust="spacing" textLength="189" x="29.5" y="365.4414">Sistema exibe dados para usuário</text><ellipse cx="122.5" cy="409.0781" fill="none" rx="11" ry="11" style="stroke:#222222;stroke-width:1.0;"/><ellipse cx="122.5" cy="409.0781" fill="#222222" rx="6" ry="6" style="stroke:#111111;stroke-width:1.0;"/><rect fill="#F1F1F1" height="35.0938" rx="12.5" ry="12.5" style="stroke:#181818;stroke-width:0.5;" width="235" x="254" y="287.8906"/><text fill="#000000" font-family="sans-serif" font-size="12" lengthAdjust="spacing" textLength="212" x="267" y="310.3477">Sistema exibe dados não encontrados</text><ellipse cx="371.5" cy="353.9844" fill="none" rx="11" ry="11" style="stroke:#222222;stroke-width:1.0;"/><ellipse cx="371.5" cy="353.9844" fill="#222222" rx="6" ry="6" style="stroke:#111111;stroke-width:1.0;"/><line style="stroke:#181818;stroke-width:1.0;" x1="247" x2="247" y1="68.6094" y2="88.6094"/><polygon fill="#181818" points="243,78.6094,247,88.6094,251,78.6094,247,82.6094" style="stroke:#181818;stroke-width:1.0;"/><line style="stroke:#181818;stroke-width:1.0;" x1="247" x2="247" y1="123.7031" y2="143.7031"/><polygon fill="#181818" points="243,133.7031,247,143.7031,251,133.7031,247,137.7031" style="stroke:#181818;stroke-width:1.0;"/><line style="stroke:#181818;stroke-width:1.0;" x1="247" x2="247" y1="178.7969" y2="198.7969"/><polygon fill="#181818" points="243,188.7969,247,198.7969,251,188.7969,247,192.7969" style="stroke:#181818;stroke-width:1.0;"/><line style="stroke:#181818;stroke-width:1.0;" x1="122.5" x2="122.5" y1="322.9844" y2="342.9844"/><polygon fill="#181818" points="118.5,332.9844,122.5,342.9844,126.5,332.9844,122.5,336.9844" style="stroke:#181818;stroke-width:1.0;"/><line style="stroke:#181818;stroke-width:1.0;" x1="122.5" x2="122.5" y1="378.0781" y2="398.0781"/><polygon fill="#181818" points="118.5,388.0781,122.5,398.0781,126.5,388.0781,122.5,392.0781" style="stroke:#181818;stroke-width:1.0;"/><line style="stroke:#181818;stroke-width:1.0;" x1="371.5" x2="371.5" y1="322.9844" y2="342.9844"/><polygon fill="#181818" points="367.5,332.9844,371.5,342.9844,375.5,332.9844,371.5,336.9844" style="stroke:#181818;stroke-width:1.0;"/><line style="stroke:#181818;stroke-width:1.0;" x1="197" x2="122.5" y1="265.8906" y2="265.8906"/><line style="stroke:#181818;stroke-width:1.0;" x1="122.5" x2="122.5" y1="265.8906" y2="287.8906"/><polygon fill="#181818" points="118.5,277.8906,122.5,287.8906,126.5,277.8906,122.5,281.8906" style="stroke:#181818;stroke-width:1.0;"/><line style="stroke:#181818;stroke-width:1.0;" x1="297" x2="371.5" y1="265.8906" y2="265.8906"/><line style="stroke:#181818;stroke-width:1.0;" x1="371.5" x2="371.5" y1="265.8906" y2="287.8906"/><polygon fill="#181818" points="367.5,277.8906,371.5,287.8906,375.5,277.8906,371.5,281.8906" style="stroke:#181818;stroke-width:1.0;"/><line style="stroke:#181818;stroke-width:1.0;" x1="247" x2="247" y1="233.8906" y2="253.8906"/><polygon fill="#181818" points="243,243.8906,247,253.8906,251,243.8906,247,247.8906" style="stroke:#181818;stroke-width:1.0;"/><!--MD5=[692777a1a6a11fbac83df625558c82ee]
@startuml RelatorioDeClientes

title Relatório de Clientes

start

: Usuário seleciona filtros para o relatório;
: Sistema realiza consulta no banco;
: Banco verifica se existem retornos da consulta;
if(Existe retorno ?) is (sim) then
: Sistema monta retornos da consulta;
: Sistema exibe dados para usuário;
stop
else
-> não;
: Sistema exibe dados não encontrados;

stop

@enduml

PlantUML version 1.2022.7(Mon Aug 22 14:01:30 BRT 2022)
(GPL source distribution)
Java Runtime: OpenJDK Runtime Environment
JVM: OpenJDK 64-Bit Server VM
Default Encoding: Cp1252
Language: pt
Country: BR
--></g></svg>