<?xml version="1.0" encoding="UTF-8" standalone="no"?><svg xmlns="http://www.w3.org/2000/svg" xmlns:xlink="http://www.w3.org/1999/xlink" contentStyleType="text/css" height="589px" preserveAspectRatio="none" style="width:505px;height:589px;background:#FFFFFF;" version="1.1" viewBox="0 0 505 589" width="505px" zoomAndPan="magnify"><defs/><g><rect fill="none" height="27.6094" id="_title" style="stroke:none;stroke-width:1.0;" width="130" x="188.75" y="10"/><text fill="#000000" font-family="sans-serif" font-size="14" font-weight="bold" lengthAdjust="spacing" textLength="120" x="193.75" y="29.5332">Logar no sistema</text><rect fill="none" height="338.1875" style="stroke:#000000;stroke-width:1.5;" width="488.5" x="10" y="154.5703"/><rect fill="none" height="155.5938" style="stroke:#000000;stroke-width:1.5;" width="468.5" x="20" y="330.1641"/><line style="stroke:#181818;stroke-width:0.5;stroke-dasharray:5.0,5.0;" x1="69" x2="69" y1="107.2188" y2="509.7578"/><line style="stroke:#181818;stroke-width:0.5;stroke-dasharray:5.0,5.0;" x1="252.5" x2="252.5" y1="107.2188" y2="509.7578"/><line style="stroke:#181818;stroke-width:0.5;stroke-dasharray:5.0,5.0;" x1="460.5" x2="460.5" y1="107.2188" y2="509.7578"/><rect fill="#E2E2F0" height="31.6094" rx="2.5" ry="2.5" style="stroke:#181818;stroke-width:0.5;" width="79" x="30" y="74.6094"/><text fill="#000000" font-family="sans-serif" font-size="14" lengthAdjust="spacing" textLength="65" x="37" y="96.1426">Atendente</text><rect fill="#E2E2F0" height="31.6094" rx="2.5" ry="2.5" style="stroke:#181818;stroke-width:0.5;" width="79" x="30" y="508.7578"/><text fill="#000000" font-family="sans-serif" font-size="14" lengthAdjust="spacing" textLength="65" x="37" y="530.291">Atendente</text><rect fill="#E2E2F0" height="31.6094" rx="2.5" ry="2.5" style="stroke:#181818;stroke-width:0.5;" width="64" x="220.5" y="74.6094"/><text fill="#000000" font-family="sans-serif" font-size="14" lengthAdjust="spacing" textLength="50" x="227.5" y="96.1426">Sistema</text><rect fill="#E2E2F0" height="31.6094" rx="2.5" ry="2.5" style="stroke:#181818;stroke-width:0.5;" width="64" x="220.5" y="508.7578"/><text fill="#000000" font-family="sans-serif" font-size="14" lengthAdjust="spacing" textLength="50" x="227.5" y="530.291">Sistema</text><text fill="#000000" font-family="sans-serif" font-size="14" lengthAdjust="spacing" textLength="19" x="448" y="104.1426">BD</text><path d="M442.5,53.6094 C442.5,43.6094 460.5,43.6094 460.5,43.6094 C460.5,43.6094 478.5,43.6094 478.5,53.6094 L478.5,79.6094 C478.5,89.6094 460.5,89.6094 460.5,89.6094 C460.5,89.6094 442.5,89.6094 442.5,79.6094 L442.5,53.6094 " fill="#E2E2F0" style="stroke:#181818;stroke-width:1.5;"/><path d="M442.5,53.6094 C442.5,63.6094 460.5,63.6094 460.5,63.6094 C460.5,63.6094 478.5,63.6094 478.5,53.6094 " fill="none" style="stroke:#181818;stroke-width:1.5;"/><text fill="#000000" font-family="sans-serif" font-size="14" lengthAdjust="spacing" textLength="19" x="448" y="523.291">BD</text><path d="M442.5,536.3672 C442.5,526.3672 460.5,526.3672 460.5,526.3672 C460.5,526.3672 478.5,526.3672 478.5,536.3672 L478.5,562.3672 C478.5,572.3672 460.5,572.3672 460.5,572.3672 C460.5,572.3672 442.5,572.3672 442.5,562.3672 L442.5,536.3672 " fill="#E2E2F0" style="stroke:#181818;stroke-width:1.5;"/><path d="M442.5,536.3672 C442.5,546.3672 460.5,546.3672 460.5,546.3672 C460.5,546.3672 478.5,546.3672 478.5,536.3672 " fill="none" style="stroke:#181818;stroke-width:1.5;"/><polygon fill="#181818" points="240.5,135.5703,250.5,139.5703,240.5,143.5703,244.5,139.5703" style="stroke:#181818;stroke-width:1.0;"/><line style="stroke:#181818;stroke-width:1.0;" x1="69.5" x2="246.5" y1="139.5703" y2="139.5703"/><text fill="#000000" font-family="sans-serif" font-size="13" lengthAdjust="spacing" textLength="74" x="76.5" y="134.7139">Insere dados</text><path d="M10,154.5703 L71,154.5703 L71,162.9219 L61,172.9219 L10,172.9219 L10,154.5703 " fill="#EEEEEE" style="stroke:#000000;stroke-width:1.5;"/><rect fill="none" height="338.1875" style="stroke:#000000;stroke-width:1.5;" width="488.5" x="10" y="154.5703"/><text fill="#000000" font-family="sans-serif" font-size="13" font-weight="bold" lengthAdjust="spacing" textLength="16" x="25" y="169.0654">alt</text><text fill="#000000" font-family="sans-serif" font-size="11" font-weight="bold" lengthAdjust="spacing" textLength="94" x="86" y="167.9893">[Dados Invalidos]</text><polygon fill="#181818" points="80.5,191.2734,70.5,195.2734,80.5,199.2734,76.5,195.2734" style="stroke:#181818;stroke-width:1.0;"/><line style="stroke:#181818;stroke-width:1.0;" x1="74.5" x2="251.5" y1="195.2734" y2="195.2734"/><text fill="#000000" font-family="sans-serif" font-size="13" lengthAdjust="spacing" textLength="145" x="86.5" y="190.417">Exibe mensagem de erro</text><polygon fill="#181818" points="240.5,221.625,250.5,225.625,240.5,229.625,244.5,225.625" style="stroke:#181818;stroke-width:1.0;"/><line style="stroke:#181818;stroke-width:1.0;" x1="69.5" x2="246.5" y1="225.625" y2="225.625"/><text fill="#000000" font-family="sans-serif" font-size="13" lengthAdjust="spacing" textLength="74" x="76.5" y="220.7686">Insere dados</text><line style="stroke:#000000;stroke-width:1.0;stroke-dasharray:2.0,2.0;" x1="10" x2="498.5" y1="234.625" y2="234.625"/><text fill="#000000" font-family="sans-serif" font-size="11" font-weight="bold" lengthAdjust="spacing" textLength="86" x="15" y="246.0439">[Dados Validos]</text><line style="stroke:#181818;stroke-width:1.0;" x1="252.5" x2="294.5" y1="271.8125" y2="271.8125"/><line style="stroke:#181818;stroke-width:1.0;" x1="294.5" x2="294.5" y1="271.8125" y2="284.8125"/><line style="stroke:#181818;stroke-width:1.0;" x1="253.5" x2="294.5" y1="284.8125" y2="284.8125"/><polygon fill="#181818" points="263.5,280.8125,253.5,284.8125,263.5,288.8125,259.5,284.8125" style="stroke:#181818;stroke-width:1.0;"/><text fill="#000000" font-family="sans-serif" font-size="13" lengthAdjust="spacing" textLength="75" x="259.5" y="266.9561">Valida dados</text><polygon fill="#181818" points="448.5,311.1641,458.5,315.1641,448.5,319.1641,452.5,315.1641" style="stroke:#181818;stroke-width:1.0;"/><line style="stroke:#181818;stroke-width:1.0;" x1="252.5" x2="454.5" y1="315.1641" y2="315.1641"/><text fill="#000000" font-family="sans-serif" font-size="13" lengthAdjust="spacing" textLength="90" x="259.5" y="310.3076">Consulta dados</text><path d="M20,330.1641 L81,330.1641 L81,338.5156 L71,348.5156 L20,348.5156 L20,330.1641 " fill="#EEEEEE" style="stroke:#000000;stroke-width:1.5;"/><rect fill="none" height="155.5938" style="stroke:#000000;stroke-width:1.5;" width="468.5" x="20" y="330.1641"/><text fill="#000000" font-family="sans-serif" font-size="13" font-weight="bold" lengthAdjust="spacing" textLength="16" x="35" y="344.6592">alt</text><text fill="#000000" font-family="sans-serif" font-size="11" font-weight="bold" lengthAdjust="spacing" textLength="115" x="96" y="343.583">[Dados encontrados]</text><polygon fill="#181818" points="263.5,366.8672,253.5,370.8672,263.5,374.8672,259.5,370.8672" style="stroke:#181818;stroke-width:1.0;"/><line style="stroke:#181818;stroke-width:1.0;" x1="257.5" x2="459.5" y1="370.8672" y2="370.8672"/><text fill="#000000" font-family="sans-serif" font-size="13" lengthAdjust="spacing" textLength="84" x="269.5" y="366.0107">Retorna dados</text><polygon fill="#181818" points="80.5,397.2188,70.5,401.2188,80.5,405.2188,76.5,401.2188" style="stroke:#181818;stroke-width:1.0;"/><line style="stroke:#181818;stroke-width:1.0;" x1="74.5" x2="251.5" y1="401.2188" y2="401.2188"/><text fill="#000000" font-family="sans-serif" font-size="13" lengthAdjust="spacing" textLength="159" x="86.5" y="396.3623">Redireciona para tela inicial</text><line style="stroke:#000000;stroke-width:1.0;stroke-dasharray:2.0,2.0;" x1="20" x2="488.5" y1="410.2188" y2="410.2188"/><text fill="#000000" font-family="sans-serif" font-size="11" font-weight="bold" lengthAdjust="spacing" textLength="138" x="25" y="421.6377">[Dados n達o encontrados]</text><polygon fill="#181818" points="263.5,443.4063,253.5,447.4063,263.5,451.4063,259.5,447.4063" style="stroke:#181818;stroke-width:1.0;"/><line style="stroke:#181818;stroke-width:1.0;" x1="257.5" x2="459.5" y1="447.4063" y2="447.4063"/><text fill="#000000" font-family="sans-serif" font-size="13" lengthAdjust="spacing" textLength="184" x="269.5" y="442.5498">Retorna dados n達o encontrados</text><polygon fill="#181818" points="80.5,473.7578,70.5,477.7578,80.5,481.7578,76.5,477.7578" style="stroke:#181818;stroke-width:1.0;"/><line style="stroke:#181818;stroke-width:1.0;" x1="74.5" x2="251.5" y1="477.7578" y2="477.7578"/><text fill="#000000" font-family="sans-serif" font-size="13" lengthAdjust="spacing" textLength="145" x="86.5" y="472.9014">Exibe mensagem de erro</text><!--MD5=[1b5abb140b6a4b71c5b0a4e6e716f62a]
@startuml 01 - Logar
title Logar no sistema

participant Atendente
participant Sistema
database BD

Atendente -> Sistema: Insere dados
alt Dados Invalidos
    Sistema -> Atendente: Exibe mensagem de erro
    Atendente -> Sistema: Insere dados
else Dados Validos
    Sistema -> Sistema: Valida dados
    Sistema -> BD: Consulta dados
    alt Dados encontrados
        BD -> Sistema: Retorna dados
        Sistema -> Atendente: Redireciona para tela inicial
    else Dados n達o encontrados
        BD -> Sistema: Retorna dados n達o encontrados
        Sistema -> Atendente: Exibe mensagem de erro
    end
end

@enduml

PlantUML version 1.2022.7(Mon Aug 22 14:01:30 BRT 2022)
(GPL source distribution)
Java Runtime: OpenJDK Runtime Environment
JVM: OpenJDK 64-Bit Server VM
Default Encoding: Cp1252
Language: pt
Country: BR
--></g></svg>