<?xml version="1.0" encoding="UTF-8" standalone="no"?><svg xmlns="http://www.w3.org/2000/svg" xmlns:xlink="http://www.w3.org/1999/xlink" contentStyleType="text/css" height="710px" preserveAspectRatio="none" style="width:539px;height:710px;background:#FFFFFF;" version="1.1" viewBox="0 0 539 710" width="539px" zoomAndPan="magnify"><defs/><g><rect fill="none" height="27.6094" id="_title" style="stroke:none;stroke-width:1.0;" width="132" x="204.75" y="10"/><text fill="#000000" font-family="sans-serif" font-size="14" font-weight="bold" lengthAdjust="spacing" textLength="122" x="209.75" y="29.5332">Agendar - Cliente</text><rect fill="none" height="155.5938" style="stroke:#000000;stroke-width:1.5;" width="522.5" x="10" y="458.0859"/><line style="stroke:#181818;stroke-width:0.5;stroke-dasharray:5.0,5.0;" x1="59" x2="59" y1="107.2188" y2="630.6797"/><line style="stroke:#181818;stroke-width:0.5;stroke-dasharray:5.0,5.0;" x1="301.5" x2="301.5" y1="107.2188" y2="630.6797"/><line style="stroke:#181818;stroke-width:0.5;stroke-dasharray:5.0,5.0;" x1="504.5" x2="504.5" y1="107.2188" y2="630.6797"/><rect fill="#E2E2F0" height="31.6094" rx="2.5" ry="2.5" style="stroke:#181818;stroke-width:0.5;" width="79" x="20" y="74.6094"/><text fill="#000000" font-family="sans-serif" font-size="14" lengthAdjust="spacing" textLength="65" x="27" y="96.1426">Atendente</text><rect fill="#E2E2F0" height="31.6094" rx="2.5" ry="2.5" style="stroke:#181818;stroke-width:0.5;" width="79" x="20" y="629.6797"/><text fill="#000000" font-family="sans-serif" font-size="14" lengthAdjust="spacing" textLength="65" x="27" y="651.2129">Atendente</text><rect fill="#E2E2F0" height="31.6094" rx="2.5" ry="2.5" style="stroke:#181818;stroke-width:0.5;" width="64" x="269.5" y="74.6094"/><text fill="#000000" font-family="sans-serif" font-size="14" lengthAdjust="spacing" textLength="50" x="276.5" y="96.1426">Sistema</text><rect fill="#E2E2F0" height="31.6094" rx="2.5" ry="2.5" style="stroke:#181818;stroke-width:0.5;" width="64" x="269.5" y="629.6797"/><text fill="#000000" font-family="sans-serif" font-size="14" lengthAdjust="spacing" textLength="50" x="276.5" y="651.2129">Sistema</text><text fill="#000000" font-family="sans-serif" font-size="14" lengthAdjust="spacing" textLength="19" x="492" y="104.1426">BD</text><path d="M486.5,53.6094 C486.5,43.6094 504.5,43.6094 504.5,43.6094 C504.5,43.6094 522.5,43.6094 522.5,53.6094 L522.5,79.6094 C522.5,89.6094 504.5,89.6094 504.5,89.6094 C504.5,89.6094 486.5,89.6094 486.5,79.6094 L486.5,53.6094 " fill="#E2E2F0" style="stroke:#181818;stroke-width:1.5;"/><path d="M486.5,53.6094 C486.5,63.6094 504.5,63.6094 504.5,63.6094 C504.5,63.6094 522.5,63.6094 522.5,53.6094 " fill="none" style="stroke:#181818;stroke-width:1.5;"/><text fill="#000000" font-family="sans-serif" font-size="14" lengthAdjust="spacing" textLength="19" x="492" y="644.2129">BD</text><path d="M486.5,657.2891 C486.5,647.2891 504.5,647.2891 504.5,647.2891 C504.5,647.2891 522.5,647.2891 522.5,657.2891 L522.5,683.2891 C522.5,693.2891 504.5,693.2891 504.5,693.2891 C504.5,693.2891 486.5,693.2891 486.5,683.2891 L486.5,657.2891 " fill="#E2E2F0" style="stroke:#181818;stroke-width:1.5;"/><path d="M486.5,657.2891 C486.5,667.2891 504.5,667.2891 504.5,667.2891 C504.5,667.2891 522.5,667.2891 522.5,657.2891 " fill="none" style="stroke:#181818;stroke-width:1.5;"/><polygon fill="#181818" points="289.5,135.5703,299.5,139.5703,289.5,143.5703,293.5,139.5703" style="stroke:#181818;stroke-width:1.0;"/><line style="stroke:#181818;stroke-width:1.0;" x1="59.5" x2="295.5" y1="139.5703" y2="139.5703"/><text fill="#000000" font-family="sans-serif" font-size="13" font-weight="bold" lengthAdjust="spacing" textLength="7" x="66.5" y="134.7139">1</text><text fill="#000000" font-family="sans-serif" font-size="13" lengthAdjust="spacing" textLength="169" x="77.5" y="134.7139">Acessa tela de agendamento</text><polygon fill="#181818" points="492.5,165.9219,502.5,169.9219,492.5,173.9219,496.5,169.9219" style="stroke:#181818;stroke-width:1.0;"/><line style="stroke:#181818;stroke-width:1.0;" x1="301.5" x2="498.5" y1="169.9219" y2="169.9219"/><text fill="#000000" font-family="sans-serif" font-size="13" font-weight="bold" lengthAdjust="spacing" textLength="7" x="308.5" y="165.0654">2</text><text fill="#000000" font-family="sans-serif" font-size="13" lengthAdjust="spacing" textLength="166" x="319.5" y="165.0654">Seleciona cliente, serviço(s).</text><polygon fill="#181818" points="312.5,196.2734,302.5,200.2734,312.5,204.2734,308.5,200.2734" style="stroke:#181818;stroke-width:1.0;"/><line style="stroke:#181818;stroke-width:1.0;stroke-dasharray:2.0,2.0;" x1="306.5" x2="503.5" y1="200.2734" y2="200.2734"/><text fill="#000000" font-family="sans-serif" font-size="13" font-weight="bold" lengthAdjust="spacing" textLength="7" x="318.5" y="195.417">3</text><text fill="#000000" font-family="sans-serif" font-size="13" lengthAdjust="spacing" textLength="84" x="329.5" y="195.417">Retorna dados</text><polygon fill="#181818" points="70.5,226.625,60.5,230.625,70.5,234.625,66.5,230.625" style="stroke:#181818;stroke-width:1.0;"/><line style="stroke:#181818;stroke-width:1.0;stroke-dasharray:2.0,2.0;" x1="64.5" x2="300.5" y1="230.625" y2="230.625"/><text fill="#000000" font-family="sans-serif" font-size="13" font-weight="bold" lengthAdjust="spacing" textLength="7" x="76.5" y="225.7686">4</text><text fill="#000000" font-family="sans-serif" font-size="13" lengthAdjust="spacing" textLength="158" x="87.5" y="225.7686">Exibe tela de agendamento</text><polygon fill="#181818" points="289.5,256.9766,299.5,260.9766,289.5,264.9766,293.5,260.9766" style="stroke:#181818;stroke-width:1.0;"/><line style="stroke:#181818;stroke-width:1.0;" x1="59.5" x2="295.5" y1="260.9766" y2="260.9766"/><text fill="#000000" font-family="sans-serif" font-size="13" font-weight="bold" lengthAdjust="spacing" textLength="7" x="66.5" y="256.1201">5</text><text fill="#000000" font-family="sans-serif" font-size="13" lengthAdjust="spacing" textLength="166" x="77.5" y="256.1201">Seleciona cliente, serviço(s).</text><polygon fill="#181818" points="492.5,287.3281,502.5,291.3281,492.5,295.3281,496.5,291.3281" style="stroke:#181818;stroke-width:1.0;"/><line style="stroke:#181818;stroke-width:1.0;" x1="301.5" x2="498.5" y1="291.3281" y2="291.3281"/><text fill="#000000" font-family="sans-serif" font-size="13" font-weight="bold" lengthAdjust="spacing" textLength="7" x="308.5" y="286.4717">6</text><text fill="#000000" font-family="sans-serif" font-size="13" lengthAdjust="spacing" textLength="168" x="319.5" y="286.4717">Consulta tempo de serviço(s)</text><polygon fill="#181818" points="312.5,317.6797,302.5,321.6797,312.5,325.6797,308.5,321.6797" style="stroke:#181818;stroke-width:1.0;"/><line style="stroke:#181818;stroke-width:1.0;stroke-dasharray:2.0,2.0;" x1="306.5" x2="503.5" y1="321.6797" y2="321.6797"/><text fill="#000000" font-family="sans-serif" font-size="13" font-weight="bold" lengthAdjust="spacing" textLength="7" x="318.5" y="316.8232">7</text><text fill="#000000" font-family="sans-serif" font-size="13" lengthAdjust="spacing" textLength="84" x="329.5" y="316.8232">Retorna dados</text><polygon fill="#181818" points="70.5,348.0313,60.5,352.0313,70.5,356.0313,66.5,352.0313" style="stroke:#181818;stroke-width:1.0;"/><line style="stroke:#181818;stroke-width:1.0;stroke-dasharray:2.0,2.0;" x1="64.5" x2="300.5" y1="352.0313" y2="352.0313"/><text fill="#000000" font-family="sans-serif" font-size="13" font-weight="bold" lengthAdjust="spacing" textLength="7" x="76.5" y="347.1748">8</text><text fill="#000000" font-family="sans-serif" font-size="13" lengthAdjust="spacing" textLength="207" x="87.5" y="347.1748">Exibe tempo de serviço(s) estimado</text><polygon fill="#181818" points="289.5,378.3828,299.5,382.3828,289.5,386.3828,293.5,382.3828" style="stroke:#181818;stroke-width:1.0;"/><line style="stroke:#181818;stroke-width:1.0;" x1="59.5" x2="295.5" y1="382.3828" y2="382.3828"/><text fill="#000000" font-family="sans-serif" font-size="13" font-weight="bold" lengthAdjust="spacing" textLength="7" x="66.5" y="377.5264">9</text><text fill="#000000" font-family="sans-serif" font-size="13" lengthAdjust="spacing" textLength="140" x="77.5" y="377.5264">Seleciona data e horário</text><polygon fill="#181818" points="492.5,408.7344,502.5,412.7344,492.5,416.7344,496.5,412.7344" style="stroke:#181818;stroke-width:1.0;"/><line style="stroke:#181818;stroke-width:1.0;" x1="301.5" x2="498.5" y1="412.7344" y2="412.7344"/><text fill="#000000" font-family="sans-serif" font-size="13" font-weight="bold" lengthAdjust="spacing" textLength="14" x="308.5" y="407.8779">10</text><text fill="#000000" font-family="sans-serif" font-size="13" lengthAdjust="spacing" textLength="140" x="326.5" y="407.8779">Consulta disponibilidade</text><polygon fill="#181818" points="312.5,439.0859,302.5,443.0859,312.5,447.0859,308.5,443.0859" style="stroke:#181818;stroke-width:1.0;"/><line style="stroke:#181818;stroke-width:1.0;stroke-dasharray:2.0,2.0;" x1="306.5" x2="503.5" y1="443.0859" y2="443.0859"/><text fill="#000000" font-family="sans-serif" font-size="13" font-weight="bold" lengthAdjust="spacing" textLength="14" x="318.5" y="438.2295">11</text><text fill="#000000" font-family="sans-serif" font-size="13" lengthAdjust="spacing" textLength="84" x="336.5" y="438.2295">Retorna dados</text><path d="M10,458.0859 L71,458.0859 L71,466.4375 L61,476.4375 L10,476.4375 L10,458.0859 " fill="#EEEEEE" style="stroke:#000000;stroke-width:1.5;"/><rect fill="none" height="155.5938" style="stroke:#000000;stroke-width:1.5;" width="522.5" x="10" y="458.0859"/><text fill="#000000" font-family="sans-serif" font-size="13" font-weight="bold" lengthAdjust="spacing" textLength="16" x="25" y="472.5811">alt</text><text fill="#000000" font-family="sans-serif" font-size="11" font-weight="bold" lengthAdjust="spacing" textLength="66" x="86" y="471.5049">[Se conflito]</text><polygon fill="#181818" points="70.5,494.7891,60.5,498.7891,70.5,502.7891,66.5,498.7891" style="stroke:#181818;stroke-width:1.0;"/><line style="stroke:#181818;stroke-width:1.0;stroke-dasharray:2.0,2.0;" x1="64.5" x2="300.5" y1="498.7891" y2="498.7891"/><text fill="#000000" font-family="sans-serif" font-size="13" font-weight="bold" lengthAdjust="spacing" textLength="14" x="76.5" y="493.9326">12</text><text fill="#000000" font-family="sans-serif" font-size="13" lengthAdjust="spacing" textLength="164" x="94.5" y="493.9326">Exibe mensagem de conflito</text><line style="stroke:#000000;stroke-width:1.0;stroke-dasharray:2.0,2.0;" x1="10" x2="532.5" y1="507.7891" y2="507.7891"/><text fill="#000000" font-family="sans-serif" font-size="11" font-weight="bold" lengthAdjust="spacing" textLength="97" x="15" y="519.208">[Não tem conflito]</text><polygon fill="#181818" points="492.5,540.9766,502.5,544.9766,492.5,548.9766,496.5,544.9766" style="stroke:#181818;stroke-width:1.0;"/><line style="stroke:#181818;stroke-width:1.0;" x1="301.5" x2="498.5" y1="544.9766" y2="544.9766"/><text fill="#000000" font-family="sans-serif" font-size="13" font-weight="bold" lengthAdjust="spacing" textLength="14" x="308.5" y="540.1201">13</text><text fill="#000000" font-family="sans-serif" font-size="13" lengthAdjust="spacing" textLength="70" x="326.5" y="540.1201">Salva dados</text><polygon fill="#181818" points="312.5,571.3281,302.5,575.3281,312.5,579.3281,308.5,575.3281" style="stroke:#181818;stroke-width:1.0;"/><line style="stroke:#181818;stroke-width:1.0;stroke-dasharray:2.0,2.0;" x1="306.5" x2="503.5" y1="575.3281" y2="575.3281"/><text fill="#000000" font-family="sans-serif" font-size="13" font-weight="bold" lengthAdjust="spacing" textLength="14" x="318.5" y="570.4717">14</text><text fill="#000000" font-family="sans-serif" font-size="13" lengthAdjust="spacing" textLength="84" x="336.5" y="570.4717">Retorna dados</text><polygon fill="#181818" points="70.5,601.6797,60.5,605.6797,70.5,609.6797,66.5,605.6797" style="stroke:#181818;stroke-width:1.0;"/><line style="stroke:#181818;stroke-width:1.0;stroke-dasharray:2.0,2.0;" x1="64.5" x2="300.5" y1="605.6797" y2="605.6797"/><text fill="#000000" font-family="sans-serif" font-size="13" font-weight="bold" lengthAdjust="spacing" textLength="14" x="76.5" y="600.8232">15</text><text fill="#000000" font-family="sans-serif" font-size="13" lengthAdjust="spacing" textLength="172" x="94.5" y="600.8232">Exibe mensagem de sucesso</text><!--MD5=[ebe25ba1355819c1571fcce8655e038c]
@startuml 02 - Agendar - Cliente
title Agendar - Cliente

participant Atendente
participant Sistema
database BD

autonumber
Atendente -> Sistema: Acessa tela de agendamento
Sistema -> BD: Seleciona cliente, serviço(s).
BD - -> Sistema: Retorna dados
Sistema - -> Atendente: Exibe tela de agendamento
Atendente -> Sistema: Seleciona cliente, serviço(s).
Sistema -> BD: Consulta tempo de serviço(s)
BD - -> Sistema: Retorna dados
Sistema - -> Atendente: Exibe tempo de serviço(s) estimado
Atendente -> Sistema: Seleciona data e horário
Sistema -> BD: Consulta disponibilidade
BD - -> Sistema: Retorna dados
alt Se conflito
    Sistema - -> Atendente: Exibe mensagem de conflito
else Não tem conflito
    Sistema -> BD: Salva dados
    BD - -> Sistema: Retorna dados
    Sistema - -> Atendente: Exibe mensagem de sucesso
end

@enduml

PlantUML version 1.2022.7(Mon Aug 22 14:01:30 BRT 2022)
(GPL source distribution)
Java Runtime: OpenJDK Runtime Environment
JVM: OpenJDK 64-Bit Server VM
Default Encoding: Cp1252
Language: pt
Country: BR
--></g></svg>